<svg viewBox="0 0 60 60" fill="none" xmlns="http://www.w3.org/2000/svg">
<g clip-path="url(#clip0_8_15)">
<mask id="mask0_8_15" style="mask-type:luminance" maskUnits="userSpaceOnUse" x="0" y="0" width="60" height="60">
<path d="M60 0H0V60H60V0Z" fill="white"/>
</mask>
<g mask="url(#mask0_8_15)">
<path d="M60 0H0V60H60V0Z" fill="white"/>
<path d="M43.0625 43.5625C43.2812 44.1406 43.5781 44.6562 43.8438 45.2187C44.125 45.8281 44.2812 46.4531 44.2812 47.125C44.2969 48.0625 44.3125 48.9844 44.3437 49.9219C44.3594 50.3594 44.2031 50.7031 43.7969 50.9062C43.3906 51.0937 43.0469 50.9844 42.7187 50.7031C42 50.1094 41.2812 49.5156 40.5625 48.9219C40.0156 48.4844 39.6094 47.9531 39.2969 47.3281C38.1094 44.875 36.9219 42.4375 35.7344 39.9844C35.6406 39.7812 35.5625 39.7344 35.3438 39.8125C32.7188 40.7031 30.0156 41.0781 27.25 40.9844C25.0312 40.9062 22.8437 40.5312 20.7344 39.7969C20.4844 39.7031 20.3906 39.7813 20.2969 40C19.125 42.4375 17.9375 44.875 16.75 47.3125C16.4375 47.9531 16.0313 48.4844 15.4688 48.9375C14.7344 49.5156 14.0156 50.1094 13.3125 50.7188C12.9687 51 12.6094 51.0937 12.2031 50.9062C11.8125 50.7031 11.6719 50.3594 11.6875 49.9375C11.7188 48.8906 11.75 47.8438 11.7813 46.7969C11.7969 46.2344 11.9688 45.7187 12.2031 45.2187C13.3906 42.7812 14.5781 40.3281 15.7813 37.8906C15.8906 37.6563 15.875 37.5469 15.6562 37.4062C12.9687 35.7031 10.7188 33.5313 8.92188 30.9063C8.53125 30.3438 8.60938 29.9531 9.15625 29.5469C10.0938 28.8594 11.0469 28.1563 11.9844 27.4688C12.5312 27.0781 12.9531 27.1406 13.3281 27.7031C14.5938 29.5938 16.1719 31.1875 18.0469 32.4844C18.2656 32.6406 18.3438 32.6094 18.4531 32.375C20.125 28.9062 21.8125 25.4375 23.5 21.9844C23.5469 21.875 23.6094 21.7813 23.6719 21.6875C24.6875 23.2656 26.125 24.125 28.0312 24.1875C27.9844 24.2813 27.9219 24.375 27.8906 24.4688C26.2656 27.8125 24.6406 31.1563 23.0156 34.5C22.875 34.8125 22.8594 34.8125 23.2031 34.9062C26.4375 35.8125 29.6719 35.8125 32.9219 34.9219C33.1563 34.8594 33.2188 34.7969 33.0938 34.5469C32.0938 32.5156 31.0938 30.4687 30.1094 28.4219C29.4219 27.0156 28.75 25.6094 28.0781 24.2031C29.9687 24.125 31.4062 23.2813 32.4062 21.6719C33.0937 23.0781 33.7656 24.4844 34.4531 25.875C34.5 25.9531 34.5469 26.0469 34.5937 26.125C34.7187 26.4062 34.8438 26.6875 34.9688 26.9531C36.2969 29.6719 37.6094 32.4063 38.9375 35.125C40.2031 37.7344 41.4688 40.3281 42.75 42.9375C42.8281 43.1094 42.8906 43.3594 43.0625 43.5625Z" fill="#4285F3"/>
<path d="M43.0625 43.5625C42.9063 43.3594 42.8281 43.1094 42.7187 42.875C41.4531 40.2656 40.1719 37.6719 38.9063 35.0625C37.5781 32.3437 36.25 29.6094 34.9375 26.8906C34.8125 26.625 34.6875 26.3437 34.5625 26.0625C35.8281 25.5469 37.1406 25.3437 38.5 25.4062C40.2969 25.5 41.9531 26.0469 43.4375 27.0625C43.5938 27.1719 43.6406 27.1094 43.7187 26.9844C44.25 26.1875 44.7969 25.3906 45.3281 24.5937C45.375 24.5312 45.4219 24.4531 45.4844 24.3906C45.6094 24.2969 45.75 24.2969 45.875 24.3906C46.0156 24.5 46.0469 24.6406 45.9688 24.7969C45.9063 24.9219 45.8281 25.0156 45.75 25.1406C45.25 25.875 44.75 26.625 44.25 27.3594C44.1406 27.5156 44.125 27.5937 44.2812 27.7344C46.2344 29.4531 47.3437 31.625 47.7031 34.1875C47.7344 34.4219 47.75 34.6562 47.7656 34.8906C47.7656 35.0469 47.8438 35.0781 47.9688 35.0781C48.9531 35.1406 49.9219 35.2187 50.9062 35.2969C51.2187 35.3125 51.375 35.4375 51.3594 35.6562C51.3594 35.875 51.1563 36 50.8594 35.9844C49.9531 35.9219 49.0313 35.8594 48.125 35.7656C47.8438 35.7344 47.75 35.8281 47.7344 36.1094C47.5781 38.0625 46.875 39.7969 45.6563 41.3281C44.9219 42.2344 44.0625 42.9844 43.0625 43.5625ZM43.9687 36.4687C43.5312 36.4687 43.1563 36.8437 43.1563 37.2812C43.1563 37.7187 43.5469 38.0937 43.9844 38.0937C44.4063 38.0937 44.7813 37.7187 44.7969 37.2969C44.7813 36.8594 44.4062 36.4687 43.9687 36.4687ZM40.0313 30.0156C40.4844 30.0156 40.8437 29.6406 40.8437 29.2031C40.8437 28.7656 40.4687 28.4062 40.0469 28.4062C39.5937 28.4062 39.2188 28.7656 39.2188 29.2031C39.2188 29.6562 39.5781 30.0156 40.0313 30.0156Z" fill="#3DDB84"/>
<path d="M28 24.1406C26.1094 24.0937 24.6719 23.2344 23.6406 21.6406C23.3125 21 23.0781 20.3281 23 19.5937C22.7656 17.4375 24.0625 15.2812 26.0781 14.4687C26.1719 14.4375 26.25 14.3906 26.3281 14.3594C26.6875 14.2812 27.0469 14.1719 27.4062 14.125C28.1719 14.0156 28.9219 14.1562 29.6562 14.3594C30.3906 14.6562 31.0625 15.0625 31.625 15.6406C33.1094 17.2031 33.4531 19.4844 32.4687 21.4062C32.4375 21.4687 32.4062 21.5469 32.375 21.6094C31.375 23.2187 29.9375 24.0781 28.0469 24.1406C28.0312 24.1406 28.0156 24.1406 28 24.1406ZM30.7656 19.125C30.7656 17.6094 29.5469 16.3594 28.0312 16.3594C26.5 16.3594 25.2656 17.5781 25.25 19.0937C25.2344 20.625 26.4687 21.875 28 21.8906C29.5156 21.875 30.75 20.6406 30.7656 19.125Z" fill="#083143"/>
<path d="M29.6563 14.3594C28.9219 14.1563 28.1875 14.0313 27.4063 14.125C27.0313 14.1719 26.6875 14.2813 26.3281 14.3594C26.3281 13.1094 26.3125 11.8594 26.3281 10.625C26.3438 9.75001 27.0781 9.03126 27.9688 9.03126C28.8594 9.01564 29.625 9.71876 29.6406 10.6094C29.6875 11.8438 29.6719 13.0938 29.6563 14.3594Z" fill="#4285F3"/>
<path d="M43.9687 36.4688C44.4062 36.4688 44.7812 36.8594 44.7812 37.2969C44.7812 37.7188 44.4062 38.0938 43.9687 38.0938C43.5312 38.0938 43.1406 37.7188 43.1406 37.2813C43.1406 36.8438 43.5312 36.4688 43.9687 36.4688Z" fill="#FDFEFE"/>
<path d="M40.0313 30.0156C39.5781 30.0156 39.2188 29.6563 39.2188 29.2031C39.2188 28.7656 39.5937 28.3906 40.0469 28.4063C40.4844 28.4063 40.8437 28.7656 40.8437 29.2031C40.8594 29.6563 40.4844 30.0156 40.0313 30.0156Z" fill="#FDFEFE"/>
</g>
</g>
<defs>
<clipPath id="clip0_8_15">
<rect width="60" height="60" fill="white"/>
</clipPath>
</defs>
</svg>
