<svg width="384" height="384" viewBox="0 0 384 384" fill="none" xmlns="http://www.w3.org/2000/svg">
<g clip-path="url(#clip0_1_2)">
<rect width="384" height="384" fill="white"/>
<path d="M275.6 278.8C277 282.5 278.9 285.8 280.6 289.4C282.4 293.3 283.4 297.3 283.4 301.6C283.5 307.6 283.6 313.5 283.8 319.5C283.9 322.3 282.9 324.5 280.3 325.8C277.7 327 275.5 326.3 273.4 324.5C268.8 320.7 264.2 316.9 259.6 313.1C256.1 310.3 253.5 306.9 251.5 302.9C243.9 287.2 236.3 271.6 228.7 255.9C228.1 254.6 227.6 254.3 226.2 254.8C209.4 260.5 192.1 262.9 174.4 262.3C160.2 261.8 146.2 259.4 132.7 254.7C131.1 254.1 130.5 254.6 129.9 256C122.4 271.6 114.8 287.2 107.2 302.8C105.2 306.9 102.6 310.3 99 313.2C94.3 316.9 89.7 320.7 85.2 324.6C83 326.4 80.7 327 78.1 325.8C75.6 324.5 74.7 322.3 74.8 319.6C75 312.9 75.2 306.2 75.4 299.5C75.5 295.9 76.6 292.6 78.1 289.4C85.7 273.8 93.3 258.1 101 242.5C101.7 241 101.6 240.3 100.2 239.4C83 228.5 68.6 214.6 57.1 197.8C54.6 194.2 55.1 191.7 58.6 189.1C64.6 184.7 70.7 180.2 76.7 175.8C80.2 173.3 82.9 173.7 85.3 177.3C93.4 189.4 103.5 199.6 115.5 207.9C116.9 208.9 117.4 208.7 118.1 207.2C128.8 185 139.6 162.8 150.4 140.7C150.7 140 151.1 139.4 151.5 138.8C158 148.9 167.2 154.4 179.4 154.8C179.1 155.4 178.7 156 178.5 156.6C168.1 178 157.7 199.4 147.3 220.8C146.4 222.8 146.3 222.8 148.5 223.4C169.2 229.2 189.9 229.2 210.7 223.5C212.2 223.1 212.6 222.7 211.8 221.1C205.4 208.1 199 195 192.7 181.9C188.3 172.9 184 163.9 179.7 154.9C191.8 154.4 201 149 207.4 138.7C211.8 147.7 216.1 156.7 220.5 165.6C220.8 166.1 221.1 166.7 221.4 167.2C222.2 169 223 170.8 223.8 172.5C232.3 189.9 240.7 207.4 249.2 224.8C257.3 241.5 265.4 258.1 273.6 274.8C274.1 275.9 274.5 277.5 275.6 278.8Z" fill="#4285F3"/>
<path d="M275.6 278.8C274.6 277.5 274.1 275.9 273.4 274.4C265.3 257.7 257.1 241.1 249 224.4C240.5 207 232 189.5 223.6 172.1C222.8 170.4 222 168.6 221.2 166.8C229.3 163.5 237.7 162.2 246.4 162.6C257.9 163.2 268.5 166.7 278 173.2C279 173.9 279.3 173.5 279.8 172.7C283.2 167.6 286.7 162.5 290.1 157.4C290.4 157 290.7 156.5 291.1 156.1C291.9 155.5 292.8 155.5 293.6 156.1C294.5 156.8 294.7 157.7 294.2 158.7C293.8 159.5 293.3 160.1 292.8 160.9C289.6 165.6 286.4 170.4 283.2 175.1C282.5 176.1 282.4 176.6 283.4 177.5C295.9 188.5 303 202.4 305.3 218.8C305.5 220.3 305.6 221.8 305.7 223.3C305.7 224.3 306.2 224.5 307 224.5C313.3 224.9 319.5 225.4 325.8 225.9C327.8 226 328.8 226.8 328.7 228.2C328.7 229.6 327.4 230.4 325.5 230.3C319.7 229.9 313.8 229.5 308 228.9C306.2 228.7 305.6 229.3 305.5 231.1C304.5 243.6 300 254.7 292.2 264.5C287.5 270.3 282 275.1 275.6 278.8ZM281.4 233.4C278.6 233.4 276.2 235.8 276.2 238.6C276.2 241.4 278.7 243.8 281.5 243.8C284.2 243.8 286.6 241.4 286.7 238.7C286.6 235.9 284.2 233.4 281.4 233.4ZM256.2 192.1C259.1 192.1 261.4 189.7 261.4 186.9C261.4 184.1 259 181.8 256.3 181.8C253.4 181.8 251 184.1 251 186.9C251 189.8 253.3 192.1 256.2 192.1Z" fill="#3DDB84"/>
<path d="M179.2 154.5C167.1 154.2 157.9 148.7 151.3 138.5C149.2 134.4 147.7 130.1 147.2 125.4C145.7 111.6 154 97.8 166.9 92.6C167.5 92.4 168 92.1 168.5 91.9C170.8 91.4 173.1 90.7 175.4 90.4C180.3 89.7 185.1 90.6 189.8 91.9C194.5 93.8 198.8 96.4 202.4 100.1C211.9 110.1 214.1 124.7 207.8 137C207.6 137.4 207.4 137.9 207.2 138.3C200.8 148.6 191.6 154.1 179.5 154.5C179.4 154.5 179.3 154.5 179.2 154.5ZM196.9 122.4C196.9 112.7 189.1 104.7 179.4 104.7C169.6 104.7 161.7 112.5 161.6 122.2C161.5 132 169.4 140 179.2 140.1C188.9 140 196.8 132.1 196.9 122.4Z" fill="#083143"/>
<path d="M189.8 91.9C185.1 90.6 180.4 89.8 175.4 90.4C173 90.7 170.8 91.4 168.5 91.9C168.5 83.9 168.4 75.9 168.5 68C168.6 62.4 173.3 57.8 179 57.8C184.7 57.7 189.6 62.2 189.7 67.9C190 75.8 189.9 83.8 189.8 91.9Z" fill="#4285F3"/>
<path d="M281.4 233.4C284.2 233.4 286.6 235.9 286.6 238.7C286.6 241.4 284.2 243.8 281.4 243.8C278.6 243.8 276.1 241.4 276.1 238.6C276.1 235.8 278.6 233.4 281.4 233.4Z" fill="#FDFEFE"/>
<path d="M256.2 192.1C253.3 192.1 251 189.8 251 186.9C251 184.1 253.4 181.7 256.3 181.8C259.1 181.8 261.4 184.1 261.4 186.9C261.5 189.8 259.1 192.1 256.2 192.1Z" fill="#FDFEFE"/>
</g>
<defs>
<clipPath id="clip0_1_2">
<rect width="384" height="384" fill="white"/>
</clipPath>
</defs>
</svg>
