<?xml version="1.0" encoding="UTF-8"?>
<svg xmlns="http://www.w3.org/2000/svg" xmlns:xlink="http://www.w3.org/1999/xlink" viewBox="0 0 50 35" version="1.1">
<defs>
<clipPath id="clip1">
  <path d="M 16 13 L 34 13 L 34 27 L 16 27 Z M 16 13 "/>
</clipPath>
<clipPath id="clip2">
  <path d="M 33.75 17.5 C 33.75 22.332031 29.832031 26.25 25 26.25 C 20.167969 26.25 16.25 22.332031 16.25 17.5 C 16.25 12.667969 20.167969 8.75 25 8.75 C 29.832031 8.75 33.75 12.667969 33.75 17.5 Z M 33.75 17.5 "/>
</clipPath>
<clipPath id="clip3">
  <path d="M 27 15 L 29 15 L 29 17 L 27 17 Z M 27 15 "/>
</clipPath>
<clipPath id="clip4">
  <path d="M 27.714844 16.316406 L 28.046875 15.554688 L 28.734375 15.851562 L 28.402344 16.617188 Z M 28.28125 15.953125 L 28.222656 16.085938 L 28.566406 16.234375 L 28.625 16.105469 Z M 28.28125 15.953125 "/>
</clipPath>
</defs>
<g id="surface1">
<rect x="0" y="0" width="50" height="35" style="fill:rgb(0%,58.039216%,25.098039%);fill-opacity:1;stroke:none;"/>
<path style=" stroke:none;fill-rule:nonzero;fill:rgb(100%,79.607843%,0%);fill-opacity:1;" d="M 4.25 17.5 L 25 30.75 L 45.75 17.5 L 25 4.25 Z M 4.25 17.5 "/>
<path style=" stroke:none;fill-rule:nonzero;fill:rgb(18.823529%,14.901961%,50.588235%);fill-opacity:1;" d="M 33.75 17.5 C 33.75 22.332031 29.832031 26.25 25 26.25 C 20.167969 26.25 16.25 22.332031 16.25 17.5 C 16.25 12.667969 20.167969 8.75 25 8.75 C 29.832031 8.75 33.75 12.667969 33.75 17.5 Z M 33.75 17.5 "/>
<g clip-path="url(#clip1)" clip-rule="nonzero">
<g clip-path="url(#clip2)" clip-rule="nonzero">
<path style=" stroke:none;fill-rule:nonzero;fill:rgb(100%,100%,100%);fill-opacity:1;" d="M -1.25 35 C -1.25 23.265625 8.265625 13.75 20 13.75 C 31.734375 13.75 41.25 23.265625 41.25 35 L 40 35 C 40 23.953125 31.046875 15 20 15 C 8.953125 15 0 23.953125 0 35 Z M -1.25 35 "/>
</g>
</g>
<path style=" stroke:none;fill-rule:evenodd;fill:rgb(0%,58.039216%,25.098039%);fill-opacity:1;" d="M 17.539062 14.941406 C 17.742188 14.917969 17.886719 14.710938 17.859375 14.484375 C 17.832031 14.253906 17.640625 14.089844 17.4375 14.113281 C 17.230469 14.140625 17.085938 14.347656 17.113281 14.574219 C 17.140625 14.804688 17.332031 14.96875 17.539062 14.941406 M 17.519531 14.789062 C 17.640625 14.773438 17.722656 14.644531 17.703125 14.5 C 17.6875 14.359375 17.574219 14.253906 17.453125 14.269531 C 17.332031 14.285156 17.25 14.410156 17.269531 14.554688 C 17.285156 14.699219 17.398438 14.804688 17.519531 14.789062 "/>
<path style=" stroke:none;fill-rule:evenodd;fill:rgb(0%,58.039216%,25.098039%);fill-opacity:1;" d="M 18.214844 14.867188 L 18.371094 14.855469 L 18.347656 14.546875 L 18.679688 14.523438 C 18.824219 14.515625 18.933594 14.390625 18.925781 14.246094 C 18.914062 14.101562 18.789062 13.992188 18.644531 14 L 18.171875 14.035156 Z M 18.339844 14.394531 L 18.660156 14.371094 C 18.71875 14.367188 18.761719 14.316406 18.757812 14.257812 C 18.753906 14.199219 18.703125 14.152344 18.644531 14.15625 L 18.324219 14.179688 Z M 18.339844 14.394531 "/>
<path style=" stroke:none;fill-rule:nonzero;fill:rgb(0%,58.039216%,25.098039%);fill-opacity:1;" d="M 18.921875 14.816406 C 18.914062 14.699219 18.894531 14.4375 18.71875 14.449219 L 18.492188 14.464844 C 18.753906 14.449219 18.773438 14.707031 18.78125 14.828125 "/>
<path style=" stroke:none;fill-rule:evenodd;fill:rgb(0%,58.039216%,25.098039%);fill-opacity:1;" d="M 19.273438 14.800781 L 19.664062 14.792969 C 19.863281 14.789062 20.019531 14.628906 20.015625 14.429688 L 20.015625 14.3125 C 20.011719 14.113281 19.847656 13.957031 19.652344 13.960938 L 19.257812 13.96875 Z M 19.425781 14.644531 L 19.652344 14.640625 C 19.777344 14.636719 19.875 14.535156 19.871094 14.410156 L 19.871094 14.339844 C 19.871094 14.214844 19.765625 14.113281 19.640625 14.117188 L 19.414062 14.121094 Z M 19.425781 14.644531 "/>
<path style=" stroke:none;fill-rule:nonzero;fill:rgb(0%,58.039216%,25.098039%);fill-opacity:1;" d="M 20.332031 14.789062 L 21.078125 14.816406 L 21.085938 14.664062 L 20.480469 14.640625 L 20.484375 14.425781 L 20.960938 14.445312 L 20.96875 14.300781 L 20.492188 14.285156 L 20.496094 14.117188 L 21.066406 14.136719 L 21.074219 13.984375 L 20.359375 13.957031 Z M 20.332031 14.789062 "/>
<path style=" stroke:none;fill-rule:nonzero;fill:rgb(0%,58.039216%,25.098039%);fill-opacity:1;" d="M 21.386719 14.835938 L 21.53125 14.847656 L 21.578125 14.277344 L 21.695312 14.863281 L 21.828125 14.875 L 22.042969 14.320312 L 21.992188 14.890625 L 22.136719 14.902344 L 22.207031 14.070312 L 22 14.054688 L 21.785156 14.609375 L 21.667969 14.023438 L 21.460938 14.003906 Z M 21.386719 14.835938 "/>
<path style=" stroke:none;fill-rule:nonzero;fill:rgb(0%,58.039216%,25.098039%);fill-opacity:1;" d="M 23.113281 15.03125 L 23.730469 15.136719 L 23.753906 14.996094 L 23.277344 14.914062 L 23.3125 14.726562 L 23.699219 14.792969 L 23.722656 14.652344 L 23.335938 14.585938 L 23.359375 14.457031 L 23.820312 14.535156 L 23.84375 14.394531 L 23.242188 14.292969 Z M 23.113281 15.03125 "/>
<path style=" stroke:none;fill-rule:evenodd;fill:rgb(0%,58.039216%,25.098039%);fill-opacity:1;" d="M 24.695312 15.339844 L 24.847656 15.378906 L 24.925781 15.082031 L 25.246094 15.164062 C 25.386719 15.199219 25.53125 15.117188 25.566406 14.976562 C 25.601562 14.835938 25.519531 14.691406 25.378906 14.65625 L 24.917969 14.539062 Z M 24.960938 14.929688 L 25.273438 15.011719 C 25.332031 15.027344 25.390625 14.992188 25.40625 14.933594 C 25.417969 14.878906 25.386719 14.820312 25.328125 14.804688 L 25.015625 14.722656 Z M 24.960938 14.929688 "/>
<path style=" stroke:none;fill-rule:evenodd;fill:rgb(0%,58.039216%,25.098039%);fill-opacity:1;" d="M 25.71875 15.613281 L 25.867188 15.660156 L 25.960938 15.367188 L 26.277344 15.464844 C 26.414062 15.507812 26.5625 15.433594 26.605469 15.292969 C 26.648438 15.15625 26.574219 15.007812 26.433594 14.964844 L 25.980469 14.824219 Z M 26.007812 15.21875 L 26.3125 15.316406 C 26.371094 15.332031 26.429688 15.300781 26.449219 15.246094 C 26.464844 15.1875 26.433594 15.128906 26.378906 15.109375 L 26.070312 15.011719 Z M 26.007812 15.21875 "/>
<path style=" stroke:none;fill-rule:nonzero;fill:rgb(0%,58.039216%,25.098039%);fill-opacity:1;" d="M 26.394531 15.828125 C 26.429688 15.714844 26.507812 15.464844 26.339844 15.410156 L 26.125 15.34375 C 26.371094 15.421875 26.292969 15.671875 26.257812 15.785156 "/>
<path style=" stroke:none;fill-rule:evenodd;fill:rgb(0%,58.039216%,25.098039%);fill-opacity:1;" d="M 27.078125 16.070312 C 27.269531 16.144531 27.492188 16.027344 27.574219 15.8125 C 27.65625 15.597656 27.5625 15.363281 27.367188 15.289062 C 27.175781 15.21875 26.953125 15.335938 26.871094 15.550781 C 26.792969 15.765625 26.882812 16 27.078125 16.070312 M 27.132812 15.925781 C 27.246094 15.96875 27.378906 15.894531 27.429688 15.757812 C 27.480469 15.621094 27.429688 15.476562 27.316406 15.4375 C 27.199219 15.394531 27.066406 15.46875 27.015625 15.605469 C 26.964844 15.738281 27.015625 15.882812 27.132812 15.925781 "/>
<g clip-path="url(#clip3)" clip-rule="nonzero">
<g clip-path="url(#clip4)" clip-rule="nonzero">
<path style=" stroke:none;fill-rule:evenodd;fill:rgb(0%,58.039216%,25.098039%);fill-opacity:1;" d="M 28.058594 16.46875 C 28.246094 16.550781 28.476562 16.445312 28.566406 16.234375 C 28.660156 16.023438 28.582031 15.785156 28.390625 15.703125 C 28.199219 15.621094 27.972656 15.726562 27.878906 15.9375 C 27.789062 16.148438 27.867188 16.386719 28.058594 16.46875 M 28.121094 16.324219 C 28.230469 16.375 28.367188 16.304688 28.425781 16.171875 C 28.484375 16.039062 28.441406 15.894531 28.328125 15.84375 C 28.21875 15.796875 28.078125 15.863281 28.023438 15.996094 C 27.964844 16.128906 28.007812 16.277344 28.121094 16.324219 "/>
</g>
</g>
<path style=" stroke:none;fill-rule:nonzero;fill:rgb(0%,58.039216%,25.098039%);fill-opacity:1;" d="M 28.277344 16.109375 L 28.566406 16.234375 L 28.519531 16.34375 L 28.230469 16.21875 Z M 28.277344 16.109375 "/>
<path style=" stroke:none;fill-rule:nonzero;fill:rgb(0%,58.039216%,25.098039%);fill-opacity:1;" d="M 28.457031 16.1875 L 28.566406 16.234375 L 28.402344 16.617188 L 28.292969 16.570312 Z M 28.457031 16.1875 "/>
<path style=" stroke:none;fill-rule:evenodd;fill:rgb(0%,58.039216%,25.098039%);fill-opacity:1;" d="M 28.679688 16.746094 L 28.820312 16.816406 L 28.957031 16.539062 L 29.257812 16.6875 C 29.386719 16.753906 29.542969 16.699219 29.609375 16.570312 C 29.671875 16.441406 29.621094 16.285156 29.488281 16.21875 L 29.0625 16.007812 Z M 29.027344 16.402344 L 29.316406 16.542969 C 29.367188 16.570312 29.433594 16.550781 29.457031 16.496094 C 29.484375 16.445312 29.464844 16.378906 29.410156 16.351562 L 29.121094 16.210938 Z M 29.027344 16.402344 "/>
<path style=" stroke:none;fill-rule:nonzero;fill:rgb(0%,58.039216%,25.098039%);fill-opacity:1;" d="M 29.316406 17.0625 C 29.367188 16.957031 29.484375 16.722656 29.324219 16.644531 L 29.121094 16.542969 C 29.355469 16.660156 29.242188 16.894531 29.1875 17 "/>
<path style=" stroke:none;fill-rule:nonzero;fill:rgb(0%,58.039216%,25.098039%);fill-opacity:1;" d="M 29.625 17.226562 L 30.277344 17.597656 L 30.355469 17.460938 L 29.824219 17.164062 L 29.929688 16.976562 L 30.34375 17.210938 L 30.414062 17.085938 L 30 16.851562 L 30.082031 16.707031 L 30.582031 16.988281 L 30.65625 16.851562 L 30.035156 16.5 Z M 29.625 17.226562 "/>
<path style=" stroke:none;fill-rule:nonzero;fill:rgb(0%,58.039216%,25.098039%);fill-opacity:1;" d="M 30.839844 17.636719 C 30.796875 17.707031 30.839844 17.785156 30.941406 17.847656 C 31.042969 17.910156 31.109375 17.910156 31.140625 17.863281 C 31.230469 17.722656 30.703125 17.511719 30.867188 17.261719 C 31.003906 17.046875 31.246094 17.214844 31.335938 17.273438 C 31.425781 17.332031 31.570312 17.480469 31.457031 17.652344 L 31.304688 17.554688 C 31.351562 17.476562 31.300781 17.40625 31.21875 17.355469 C 31.140625 17.304688 31.078125 17.28125 31.03125 17.355469 C 30.957031 17.472656 31.472656 17.691406 31.3125 17.941406 C 31.195312 18.121094 30.992188 18.042969 30.859375 17.957031 C 30.742188 17.882812 30.570312 17.710938 30.683594 17.535156 Z M 30.839844 17.636719 "/>
<path style=" stroke:none;fill-rule:nonzero;fill:rgb(0%,58.039216%,25.098039%);fill-opacity:1;" d="M 31.734375 18.226562 C 31.6875 18.292969 31.726562 18.375 31.824219 18.445312 C 31.921875 18.511719 31.988281 18.515625 32.019531 18.46875 C 32.121094 18.332031 31.605469 18.097656 31.777344 17.855469 C 31.929688 17.648438 32.160156 17.828125 32.246094 17.890625 C 32.335938 17.953125 32.472656 18.109375 32.351562 18.273438 L 32.203125 18.167969 C 32.253906 18.097656 32.207031 18.019531 32.128906 17.964844 C 32.054688 17.914062 31.992188 17.886719 31.941406 17.957031 C 31.859375 18.070312 32.363281 18.316406 32.191406 18.554688 C 32.066406 18.730469 31.867188 18.640625 31.734375 18.546875 C 31.625 18.46875 31.460938 18.285156 31.582031 18.117188 Z M 31.734375 18.226562 "/>
<path style=" stroke:none;fill-rule:evenodd;fill:rgb(0%,58.039216%,25.098039%);fill-opacity:1;" d="M 32.578125 19.183594 C 32.742188 19.3125 32.988281 19.273438 33.132812 19.09375 C 33.277344 18.910156 33.261719 18.660156 33.097656 18.53125 C 32.9375 18.402344 32.6875 18.445312 32.546875 18.625 C 32.402344 18.804688 32.417969 19.054688 32.578125 19.183594 M 32.675781 19.0625 C 32.773438 19.140625 32.921875 19.109375 33.011719 18.996094 C 33.101562 18.882812 33.097656 18.730469 33.003906 18.652344 C 32.90625 18.578125 32.757812 18.609375 32.667969 18.722656 C 32.578125 18.835938 32.582031 18.988281 32.675781 19.0625 "/>
<path style=" stroke:none;fill-rule:nonzero;fill:rgb(100%,100%,100%);fill-opacity:1;" d="M 17.855469 15.554688 L 17.742188 15.910156 L 17.917969 15.96875 "/>
<path style=" stroke:none;fill-rule:nonzero;fill:rgb(100%,100%,100%);fill-opacity:1;" d="M 17.855469 15.554688 L 17.972656 15.910156 L 17.792969 15.96875 "/>
<path style=" stroke:none;fill-rule:nonzero;fill:rgb(100%,100%,100%);fill-opacity:1;" d="M 18.214844 15.8125 L 17.839844 15.8125 L 17.839844 16 "/>
<path style=" stroke:none;fill-rule:nonzero;fill:rgb(100%,100%,100%);fill-opacity:1;" d="M 18.214844 15.8125 L 17.910156 16.03125 L 17.800781 15.882812 "/>
<path style=" stroke:none;fill-rule:nonzero;fill:rgb(100%,100%,100%);fill-opacity:1;" d="M 17.5 15.8125 L 17.804688 16.03125 L 17.914062 15.882812 "/>
<path style=" stroke:none;fill-rule:nonzero;fill:rgb(100%,100%,100%);fill-opacity:1;" d="M 17.5 15.8125 L 17.875 15.8125 L 17.875 16 "/>
<path style=" stroke:none;fill-rule:nonzero;fill:rgb(100%,100%,100%);fill-opacity:1;" d="M 18.078125 16.230469 L 17.960938 15.875 L 17.785156 15.933594 "/>
<path style=" stroke:none;fill-rule:nonzero;fill:rgb(100%,100%,100%);fill-opacity:1;" d="M 18.078125 16.230469 L 17.773438 16.011719 L 17.882812 15.859375 "/>
<path style=" stroke:none;fill-rule:nonzero;fill:rgb(100%,100%,100%);fill-opacity:1;" d="M 17.636719 16.230469 L 17.941406 16.011719 L 17.828125 15.859375 "/>
<path style=" stroke:none;fill-rule:nonzero;fill:rgb(100%,100%,100%);fill-opacity:1;" d="M 17.636719 16.230469 L 17.753906 15.875 L 17.929688 15.933594 "/>
<path style=" stroke:none;fill-rule:nonzero;fill:rgb(100%,100%,100%);fill-opacity:1;" d="M 18.632812 19.230469 L 18.515625 19.589844 L 18.695312 19.648438 "/>
<path style=" stroke:none;fill-rule:nonzero;fill:rgb(100%,100%,100%);fill-opacity:1;" d="M 18.632812 19.230469 L 18.746094 19.589844 L 18.570312 19.648438 "/>
<path style=" stroke:none;fill-rule:nonzero;fill:rgb(100%,100%,100%);fill-opacity:1;" d="M 18.988281 19.492188 L 18.613281 19.492188 L 18.613281 19.679688 "/>
<path style=" stroke:none;fill-rule:nonzero;fill:rgb(100%,100%,100%);fill-opacity:1;" d="M 18.988281 19.492188 L 18.683594 19.710938 L 18.574219 19.558594 "/>
<path style=" stroke:none;fill-rule:nonzero;fill:rgb(100%,100%,100%);fill-opacity:1;" d="M 18.273438 19.492188 L 18.578125 19.710938 L 18.6875 19.558594 "/>
<path style=" stroke:none;fill-rule:nonzero;fill:rgb(100%,100%,100%);fill-opacity:1;" d="M 18.273438 19.492188 L 18.648438 19.492188 L 18.648438 19.679688 "/>
<path style=" stroke:none;fill-rule:nonzero;fill:rgb(100%,100%,100%);fill-opacity:1;" d="M 18.851562 19.910156 L 18.734375 19.554688 L 18.558594 19.613281 "/>
<path style=" stroke:none;fill-rule:nonzero;fill:rgb(100%,100%,100%);fill-opacity:1;" d="M 18.851562 19.910156 L 18.546875 19.691406 L 18.65625 19.539062 "/>
<path style=" stroke:none;fill-rule:nonzero;fill:rgb(100%,100%,100%);fill-opacity:1;" d="M 18.410156 19.910156 L 18.714844 19.691406 L 18.605469 19.539062 "/>
<path style=" stroke:none;fill-rule:nonzero;fill:rgb(100%,100%,100%);fill-opacity:1;" d="M 18.410156 19.910156 L 18.527344 19.554688 L 18.703125 19.613281 "/>
<path style=" stroke:none;fill-rule:nonzero;fill:rgb(100%,100%,100%);fill-opacity:1;" d="M 17.558594 20.082031 L 17.464844 20.378906 L 17.613281 20.425781 "/>
<path style=" stroke:none;fill-rule:nonzero;fill:rgb(100%,100%,100%);fill-opacity:1;" d="M 17.558594 20.082031 L 17.65625 20.378906 L 17.507812 20.425781 "/>
<path style=" stroke:none;fill-rule:nonzero;fill:rgb(100%,100%,100%);fill-opacity:1;" d="M 17.855469 20.296875 L 17.542969 20.296875 L 17.542969 20.453125 "/>
<path style=" stroke:none;fill-rule:nonzero;fill:rgb(100%,100%,100%);fill-opacity:1;" d="M 17.855469 20.296875 L 17.605469 20.480469 L 17.511719 20.355469 "/>
<path style=" stroke:none;fill-rule:nonzero;fill:rgb(100%,100%,100%);fill-opacity:1;" d="M 17.261719 20.296875 L 17.515625 20.480469 L 17.605469 20.355469 "/>
<path style=" stroke:none;fill-rule:nonzero;fill:rgb(100%,100%,100%);fill-opacity:1;" d="M 17.261719 20.296875 L 17.574219 20.296875 L 17.574219 20.453125 "/>
<path style=" stroke:none;fill-rule:nonzero;fill:rgb(100%,100%,100%);fill-opacity:1;" d="M 17.742188 20.644531 L 17.648438 20.347656 L 17.496094 20.398438 "/>
<path style=" stroke:none;fill-rule:nonzero;fill:rgb(100%,100%,100%);fill-opacity:1;" d="M 17.742188 20.644531 L 17.492188 20.460938 L 17.582031 20.335938 "/>
<path style=" stroke:none;fill-rule:nonzero;fill:rgb(100%,100%,100%);fill-opacity:1;" d="M 17.375 20.644531 L 17.628906 20.460938 L 17.535156 20.335938 "/>
<path style=" stroke:none;fill-rule:nonzero;fill:rgb(100%,100%,100%);fill-opacity:1;" d="M 17.375 20.644531 L 17.472656 20.347656 L 17.621094 20.398438 "/>
<path style=" stroke:none;fill-rule:nonzero;fill:rgb(100%,100%,100%);fill-opacity:1;" d="M 19.488281 18.894531 L 19.433594 19.0625 L 19.519531 19.089844 "/>
<path style=" stroke:none;fill-rule:nonzero;fill:rgb(100%,100%,100%);fill-opacity:1;" d="M 19.488281 18.894531 L 19.542969 19.0625 L 19.457031 19.089844 "/>
<path style=" stroke:none;fill-rule:nonzero;fill:rgb(100%,100%,100%);fill-opacity:1;" d="M 19.65625 19.015625 L 19.480469 19.015625 L 19.480469 19.105469 "/>
<path style=" stroke:none;fill-rule:nonzero;fill:rgb(100%,100%,100%);fill-opacity:1;" d="M 19.65625 19.015625 L 19.511719 19.121094 L 19.460938 19.050781 "/>
<path style=" stroke:none;fill-rule:nonzero;fill:rgb(100%,100%,100%);fill-opacity:1;" d="M 19.316406 19.015625 L 19.460938 19.121094 L 19.515625 19.050781 "/>
<path style=" stroke:none;fill-rule:nonzero;fill:rgb(100%,100%,100%);fill-opacity:1;" d="M 19.316406 19.015625 L 19.496094 19.015625 L 19.496094 19.105469 "/>
<path style=" stroke:none;fill-rule:nonzero;fill:rgb(100%,100%,100%);fill-opacity:1;" d="M 19.59375 19.214844 L 19.539062 19.046875 L 19.453125 19.074219 "/>
<path style=" stroke:none;fill-rule:nonzero;fill:rgb(100%,100%,100%);fill-opacity:1;" d="M 19.59375 19.214844 L 19.449219 19.109375 L 19.5 19.039062 "/>
<path style=" stroke:none;fill-rule:nonzero;fill:rgb(100%,100%,100%);fill-opacity:1;" d="M 19.382812 19.214844 L 19.527344 19.109375 L 19.476562 19.039062 "/>
<path style=" stroke:none;fill-rule:nonzero;fill:rgb(100%,100%,100%);fill-opacity:1;" d="M 19.382812 19.214844 L 19.4375 19.046875 L 19.523438 19.074219 "/>
<path style=" stroke:none;fill-rule:nonzero;fill:rgb(100%,100%,100%);fill-opacity:1;" d="M 20.453125 20.164062 L 20.355469 20.460938 L 20.503906 20.507812 "/>
<path style=" stroke:none;fill-rule:nonzero;fill:rgb(100%,100%,100%);fill-opacity:1;" d="M 20.453125 20.164062 L 20.550781 20.460938 L 20.398438 20.507812 "/>
<path style=" stroke:none;fill-rule:nonzero;fill:rgb(100%,100%,100%);fill-opacity:1;" d="M 20.75 20.378906 L 20.4375 20.378906 L 20.4375 20.535156 "/>
<path style=" stroke:none;fill-rule:nonzero;fill:rgb(100%,100%,100%);fill-opacity:1;" d="M 20.75 20.378906 L 20.496094 20.5625 L 20.40625 20.4375 "/>
<path style=" stroke:none;fill-rule:nonzero;fill:rgb(100%,100%,100%);fill-opacity:1;" d="M 20.15625 20.378906 L 20.40625 20.5625 L 20.5 20.4375 "/>
<path style=" stroke:none;fill-rule:nonzero;fill:rgb(100%,100%,100%);fill-opacity:1;" d="M 20.15625 20.378906 L 20.46875 20.378906 L 20.46875 20.535156 "/>
<path style=" stroke:none;fill-rule:nonzero;fill:rgb(100%,100%,100%);fill-opacity:1;" d="M 20.636719 20.730469 L 20.539062 20.433594 L 20.390625 20.480469 "/>
<path style=" stroke:none;fill-rule:nonzero;fill:rgb(100%,100%,100%);fill-opacity:1;" d="M 20.636719 20.730469 L 20.382812 20.546875 L 20.476562 20.417969 "/>
<path style=" stroke:none;fill-rule:nonzero;fill:rgb(100%,100%,100%);fill-opacity:1;" d="M 20.269531 20.730469 L 20.523438 20.546875 L 20.429688 20.417969 "/>
<path style=" stroke:none;fill-rule:nonzero;fill:rgb(100%,100%,100%);fill-opacity:1;" d="M 20.269531 20.730469 L 20.367188 20.433594 L 20.515625 20.480469 "/>
<path style=" stroke:none;fill-rule:nonzero;fill:rgb(100%,100%,100%);fill-opacity:1;" d="M 20.191406 21.09375 L 20.113281 21.332031 L 20.230469 21.371094 "/>
<path style=" stroke:none;fill-rule:nonzero;fill:rgb(100%,100%,100%);fill-opacity:1;" d="M 20.191406 21.09375 L 20.269531 21.332031 L 20.148438 21.371094 "/>
<path style=" stroke:none;fill-rule:nonzero;fill:rgb(100%,100%,100%);fill-opacity:1;" d="M 20.429688 21.269531 L 20.179688 21.269531 L 20.179688 21.394531 "/>
<path style=" stroke:none;fill-rule:nonzero;fill:rgb(100%,100%,100%);fill-opacity:1;" d="M 20.429688 21.269531 L 20.226562 21.414062 L 20.152344 21.3125 "/>
<path style=" stroke:none;fill-rule:nonzero;fill:rgb(100%,100%,100%);fill-opacity:1;" d="M 19.953125 21.269531 L 20.15625 21.414062 L 20.226562 21.3125 "/>
<path style=" stroke:none;fill-rule:nonzero;fill:rgb(100%,100%,100%);fill-opacity:1;" d="M 19.953125 21.269531 L 20.203125 21.269531 L 20.203125 21.394531 "/>
<path style=" stroke:none;fill-rule:nonzero;fill:rgb(100%,100%,100%);fill-opacity:1;" d="M 20.335938 21.546875 L 20.261719 21.308594 L 20.140625 21.347656 "/>
<path style=" stroke:none;fill-rule:nonzero;fill:rgb(100%,100%,100%);fill-opacity:1;" d="M 20.335938 21.546875 L 20.136719 21.402344 L 20.207031 21.300781 "/>
<path style=" stroke:none;fill-rule:nonzero;fill:rgb(100%,100%,100%);fill-opacity:1;" d="M 20.042969 21.546875 L 20.246094 21.402344 L 20.171875 21.300781 "/>
<path style=" stroke:none;fill-rule:nonzero;fill:rgb(100%,100%,100%);fill-opacity:1;" d="M 20.042969 21.546875 L 20.121094 21.308594 L 20.238281 21.347656 "/>
<path style=" stroke:none;fill-rule:nonzero;fill:rgb(100%,100%,100%);fill-opacity:1;" d="M 27.714844 14.410156 L 27.597656 14.765625 L 27.777344 14.824219 "/>
<path style=" stroke:none;fill-rule:nonzero;fill:rgb(100%,100%,100%);fill-opacity:1;" d="M 27.714844 14.410156 L 27.832031 14.765625 L 27.652344 14.824219 "/>
<path style=" stroke:none;fill-rule:nonzero;fill:rgb(100%,100%,100%);fill-opacity:1;" d="M 28.070312 14.667969 L 27.695312 14.667969 L 27.695312 14.855469 "/>
<path style=" stroke:none;fill-rule:nonzero;fill:rgb(100%,100%,100%);fill-opacity:1;" d="M 28.070312 14.667969 L 27.765625 14.890625 L 27.65625 14.738281 "/>
<path style=" stroke:none;fill-rule:nonzero;fill:rgb(100%,100%,100%);fill-opacity:1;" d="M 27.359375 14.667969 L 27.660156 14.890625 L 27.769531 14.738281 "/>
<path style=" stroke:none;fill-rule:nonzero;fill:rgb(100%,100%,100%);fill-opacity:1;" d="M 27.359375 14.667969 L 27.734375 14.667969 L 27.734375 14.855469 "/>
<path style=" stroke:none;fill-rule:nonzero;fill:rgb(100%,100%,100%);fill-opacity:1;" d="M 27.933594 15.089844 L 27.820312 14.734375 L 27.640625 14.789062 "/>
<path style=" stroke:none;fill-rule:nonzero;fill:rgb(100%,100%,100%);fill-opacity:1;" d="M 27.933594 15.089844 L 27.632812 14.867188 L 27.742188 14.71875 "/>
<path style=" stroke:none;fill-rule:nonzero;fill:rgb(100%,100%,100%);fill-opacity:1;" d="M 27.492188 15.089844 L 27.796875 14.867188 L 27.6875 14.71875 "/>
<path style=" stroke:none;fill-rule:nonzero;fill:rgb(100%,100%,100%);fill-opacity:1;" d="M 27.492188 15.089844 L 27.609375 14.734375 L 27.789062 14.789062 "/>
<path style=" stroke:none;fill-rule:nonzero;fill:rgb(100%,100%,100%);fill-opacity:1;" d="M 31.132812 20.195312 L 31.015625 20.554688 L 31.195312 20.609375 "/>
<path style=" stroke:none;fill-rule:nonzero;fill:rgb(100%,100%,100%);fill-opacity:1;" d="M 31.132812 20.195312 L 31.246094 20.554688 L 31.070312 20.609375 "/>
<path style=" stroke:none;fill-rule:nonzero;fill:rgb(100%,100%,100%);fill-opacity:1;" d="M 31.488281 20.457031 L 31.113281 20.457031 L 31.113281 20.644531 "/>
<path style=" stroke:none;fill-rule:nonzero;fill:rgb(100%,100%,100%);fill-opacity:1;" d="M 31.488281 20.457031 L 31.183594 20.675781 L 31.074219 20.523438 "/>
<path style=" stroke:none;fill-rule:nonzero;fill:rgb(100%,100%,100%);fill-opacity:1;" d="M 30.773438 20.457031 L 31.078125 20.675781 L 31.1875 20.523438 "/>
<path style=" stroke:none;fill-rule:nonzero;fill:rgb(100%,100%,100%);fill-opacity:1;" d="M 30.773438 20.457031 L 31.148438 20.457031 L 31.148438 20.644531 "/>
<path style=" stroke:none;fill-rule:nonzero;fill:rgb(100%,100%,100%);fill-opacity:1;" d="M 31.351562 20.875 L 31.234375 20.519531 L 31.058594 20.574219 "/>
<path style=" stroke:none;fill-rule:nonzero;fill:rgb(100%,100%,100%);fill-opacity:1;" d="M 31.351562 20.875 L 31.046875 20.65625 L 31.15625 20.503906 "/>
<path style=" stroke:none;fill-rule:nonzero;fill:rgb(100%,100%,100%);fill-opacity:1;" d="M 30.910156 20.875 L 31.214844 20.65625 L 31.105469 20.503906 "/>
<path style=" stroke:none;fill-rule:nonzero;fill:rgb(100%,100%,100%);fill-opacity:1;" d="M 30.910156 20.875 L 31.027344 20.519531 L 31.203125 20.574219 "/>
<path style=" stroke:none;fill-rule:nonzero;fill:rgb(100%,100%,100%);fill-opacity:1;" d="M 32.34375 20.40625 L 32.269531 20.640625 L 32.386719 20.679688 "/>
<path style=" stroke:none;fill-rule:nonzero;fill:rgb(100%,100%,100%);fill-opacity:1;" d="M 32.34375 20.40625 L 32.421875 20.640625 L 32.304688 20.679688 "/>
<path style=" stroke:none;fill-rule:nonzero;fill:rgb(100%,100%,100%);fill-opacity:1;" d="M 32.582031 20.578125 L 32.332031 20.578125 L 32.332031 20.703125 "/>
<path style=" stroke:none;fill-rule:nonzero;fill:rgb(100%,100%,100%);fill-opacity:1;" d="M 32.582031 20.578125 L 32.378906 20.722656 L 32.308594 20.625 "/>
<path style=" stroke:none;fill-rule:nonzero;fill:rgb(100%,100%,100%);fill-opacity:1;" d="M 32.109375 20.578125 L 32.308594 20.722656 L 32.382812 20.625 "/>
<path style=" stroke:none;fill-rule:nonzero;fill:rgb(100%,100%,100%);fill-opacity:1;" d="M 32.109375 20.578125 L 32.359375 20.578125 L 32.359375 20.703125 "/>
<path style=" stroke:none;fill-rule:nonzero;fill:rgb(100%,100%,100%);fill-opacity:1;" d="M 32.492188 20.855469 L 32.414062 20.621094 L 32.296875 20.65625 "/>
<path style=" stroke:none;fill-rule:nonzero;fill:rgb(100%,100%,100%);fill-opacity:1;" d="M 32.492188 20.855469 L 32.289062 20.710938 L 32.363281 20.609375 "/>
<path style=" stroke:none;fill-rule:nonzero;fill:rgb(100%,100%,100%);fill-opacity:1;" d="M 32.199219 20.855469 L 32.402344 20.710938 L 32.328125 20.609375 "/>
<path style=" stroke:none;fill-rule:nonzero;fill:rgb(100%,100%,100%);fill-opacity:1;" d="M 32.199219 20.855469 L 32.277344 20.621094 L 32.394531 20.65625 "/>
<path style=" stroke:none;fill-rule:nonzero;fill:rgb(100%,100%,100%);fill-opacity:1;" d="M 31.488281 21.03125 L 31.390625 21.328125 L 31.539062 21.378906 "/>
<path style=" stroke:none;fill-rule:nonzero;fill:rgb(100%,100%,100%);fill-opacity:1;" d="M 31.488281 21.03125 L 31.585938 21.328125 L 31.4375 21.378906 "/>
<path style=" stroke:none;fill-rule:nonzero;fill:rgb(100%,100%,100%);fill-opacity:1;" d="M 31.785156 21.25 L 31.472656 21.25 L 31.472656 21.40625 "/>
<path style=" stroke:none;fill-rule:nonzero;fill:rgb(100%,100%,100%);fill-opacity:1;" d="M 31.785156 21.25 L 31.53125 21.433594 L 31.441406 21.304688 "/>
<path style=" stroke:none;fill-rule:nonzero;fill:rgb(100%,100%,100%);fill-opacity:1;" d="M 31.191406 21.25 L 31.445312 21.433594 L 31.535156 21.304688 "/>
<path style=" stroke:none;fill-rule:nonzero;fill:rgb(100%,100%,100%);fill-opacity:1;" d="M 31.191406 21.25 L 31.503906 21.25 L 31.503906 21.40625 "/>
<path style=" stroke:none;fill-rule:nonzero;fill:rgb(100%,100%,100%);fill-opacity:1;" d="M 31.671875 21.597656 L 31.574219 21.300781 L 31.425781 21.347656 "/>
<path style=" stroke:none;fill-rule:nonzero;fill:rgb(100%,100%,100%);fill-opacity:1;" d="M 31.671875 21.597656 L 31.417969 21.414062 L 31.511719 21.289062 "/>
<path style=" stroke:none;fill-rule:nonzero;fill:rgb(100%,100%,100%);fill-opacity:1;" d="M 31.304688 21.597656 L 31.558594 21.414062 L 31.464844 21.289062 "/>
<path style=" stroke:none;fill-rule:nonzero;fill:rgb(100%,100%,100%);fill-opacity:1;" d="M 31.304688 21.597656 L 31.402344 21.300781 L 31.550781 21.347656 "/>
<path style=" stroke:none;fill-rule:nonzero;fill:rgb(100%,100%,100%);fill-opacity:1;" d="M 29.382812 22.867188 L 29.285156 23.164062 L 29.433594 23.210938 "/>
<path style=" stroke:none;fill-rule:nonzero;fill:rgb(100%,100%,100%);fill-opacity:1;" d="M 29.382812 22.867188 L 29.476562 23.164062 L 29.328125 23.210938 "/>
<path style=" stroke:none;fill-rule:nonzero;fill:rgb(100%,100%,100%);fill-opacity:1;" d="M 29.679688 23.082031 L 29.367188 23.082031 L 29.367188 23.238281 "/>
<path style=" stroke:none;fill-rule:nonzero;fill:rgb(100%,100%,100%);fill-opacity:1;" d="M 29.679688 23.082031 L 29.425781 23.265625 L 29.332031 23.140625 "/>
<path style=" stroke:none;fill-rule:nonzero;fill:rgb(100%,100%,100%);fill-opacity:1;" d="M 29.082031 23.082031 L 29.335938 23.265625 L 29.429688 23.140625 "/>
<path style=" stroke:none;fill-rule:nonzero;fill:rgb(100%,100%,100%);fill-opacity:1;" d="M 29.082031 23.082031 L 29.394531 23.082031 L 29.394531 23.238281 "/>
<path style=" stroke:none;fill-rule:nonzero;fill:rgb(100%,100%,100%);fill-opacity:1;" d="M 29.566406 23.429688 L 29.46875 23.132812 L 29.320312 23.183594 "/>
<path style=" stroke:none;fill-rule:nonzero;fill:rgb(100%,100%,100%);fill-opacity:1;" d="M 29.566406 23.429688 L 29.3125 23.246094 L 29.402344 23.121094 "/>
<path style=" stroke:none;fill-rule:nonzero;fill:rgb(100%,100%,100%);fill-opacity:1;" d="M 29.199219 23.429688 L 29.449219 23.246094 L 29.359375 23.121094 "/>
<path style=" stroke:none;fill-rule:nonzero;fill:rgb(100%,100%,100%);fill-opacity:1;" d="M 29.199219 23.429688 L 29.292969 23.132812 L 29.441406 23.183594 "/>
<path style=" stroke:none;fill-rule:nonzero;fill:rgb(100%,100%,100%);fill-opacity:1;" d="M 29.367188 23.808594 L 29.292969 24.046875 L 29.410156 24.085938 "/>
<path style=" stroke:none;fill-rule:nonzero;fill:rgb(100%,100%,100%);fill-opacity:1;" d="M 29.367188 23.808594 L 29.445312 24.046875 L 29.328125 24.085938 "/>
<path style=" stroke:none;fill-rule:nonzero;fill:rgb(100%,100%,100%);fill-opacity:1;" d="M 29.605469 23.980469 L 29.355469 23.980469 L 29.355469 24.105469 "/>
<path style=" stroke:none;fill-rule:nonzero;fill:rgb(100%,100%,100%);fill-opacity:1;" d="M 29.605469 23.980469 L 29.40625 24.128906 L 29.332031 24.027344 "/>
<path style=" stroke:none;fill-rule:nonzero;fill:rgb(100%,100%,100%);fill-opacity:1;" d="M 29.132812 23.980469 L 29.332031 24.128906 L 29.40625 24.027344 "/>
<path style=" stroke:none;fill-rule:nonzero;fill:rgb(100%,100%,100%);fill-opacity:1;" d="M 29.132812 23.980469 L 29.382812 23.980469 L 29.382812 24.105469 "/>
<path style=" stroke:none;fill-rule:nonzero;fill:rgb(100%,100%,100%);fill-opacity:1;" d="M 29.515625 24.261719 L 29.4375 24.023438 L 29.320312 24.0625 "/>
<path style=" stroke:none;fill-rule:nonzero;fill:rgb(100%,100%,100%);fill-opacity:1;" d="M 29.515625 24.261719 L 29.3125 24.113281 L 29.386719 24.015625 "/>
<path style=" stroke:none;fill-rule:nonzero;fill:rgb(100%,100%,100%);fill-opacity:1;" d="M 29.222656 24.261719 L 29.425781 24.113281 L 29.351562 24.015625 "/>
<path style=" stroke:none;fill-rule:nonzero;fill:rgb(100%,100%,100%);fill-opacity:1;" d="M 29.222656 24.261719 L 29.300781 24.023438 L 29.417969 24.0625 "/>
<path style=" stroke:none;fill-rule:nonzero;fill:rgb(100%,100%,100%);fill-opacity:1;" d="M 30.25 22.238281 L 30.171875 22.476562 L 30.292969 22.515625 "/>
<path style=" stroke:none;fill-rule:nonzero;fill:rgb(100%,100%,100%);fill-opacity:1;" d="M 30.25 22.238281 L 30.328125 22.476562 L 30.207031 22.515625 "/>
<path style=" stroke:none;fill-rule:nonzero;fill:rgb(100%,100%,100%);fill-opacity:1;" d="M 30.488281 22.410156 L 30.238281 22.410156 L 30.238281 22.535156 "/>
<path style=" stroke:none;fill-rule:nonzero;fill:rgb(100%,100%,100%);fill-opacity:1;" d="M 30.488281 22.410156 L 30.285156 22.558594 L 30.210938 22.457031 "/>
<path style=" stroke:none;fill-rule:nonzero;fill:rgb(100%,100%,100%);fill-opacity:1;" d="M 30.011719 22.410156 L 30.214844 22.558594 L 30.289062 22.457031 "/>
<path style=" stroke:none;fill-rule:nonzero;fill:rgb(100%,100%,100%);fill-opacity:1;" d="M 30.011719 22.410156 L 30.261719 22.410156 L 30.261719 22.535156 "/>
<path style=" stroke:none;fill-rule:nonzero;fill:rgb(100%,100%,100%);fill-opacity:1;" d="M 30.398438 22.691406 L 30.320312 22.453125 L 30.199219 22.492188 "/>
<path style=" stroke:none;fill-rule:nonzero;fill:rgb(100%,100%,100%);fill-opacity:1;" d="M 30.398438 22.691406 L 30.195312 22.542969 L 30.269531 22.441406 "/>
<path style=" stroke:none;fill-rule:nonzero;fill:rgb(100%,100%,100%);fill-opacity:1;" d="M 30.101562 22.691406 L 30.304688 22.542969 L 30.230469 22.441406 "/>
<path style=" stroke:none;fill-rule:nonzero;fill:rgb(100%,100%,100%);fill-opacity:1;" d="M 30.101562 22.691406 L 30.179688 22.453125 L 30.300781 22.492188 "/>
<path style=" stroke:none;fill-rule:nonzero;fill:rgb(100%,100%,100%);fill-opacity:1;" d="M 30.953125 21.734375 L 30.855469 22.03125 L 31.003906 22.082031 "/>
<path style=" stroke:none;fill-rule:nonzero;fill:rgb(100%,100%,100%);fill-opacity:1;" d="M 30.953125 21.734375 L 31.050781 22.03125 L 30.898438 22.082031 "/>
<path style=" stroke:none;fill-rule:nonzero;fill:rgb(100%,100%,100%);fill-opacity:1;" d="M 31.25 21.949219 L 30.9375 21.949219 L 30.9375 22.105469 "/>
<path style=" stroke:none;fill-rule:nonzero;fill:rgb(100%,100%,100%);fill-opacity:1;" d="M 31.25 21.949219 L 30.996094 22.132812 L 30.90625 22.007812 "/>
<path style=" stroke:none;fill-rule:nonzero;fill:rgb(100%,100%,100%);fill-opacity:1;" d="M 30.65625 21.949219 L 30.90625 22.132812 L 31 22.007812 "/>
<path style=" stroke:none;fill-rule:nonzero;fill:rgb(100%,100%,100%);fill-opacity:1;" d="M 30.65625 21.949219 L 30.96875 21.949219 L 30.96875 22.105469 "/>
<path style=" stroke:none;fill-rule:nonzero;fill:rgb(100%,100%,100%);fill-opacity:1;" d="M 31.136719 22.300781 L 31.039062 22.003906 L 30.890625 22.050781 "/>
<path style=" stroke:none;fill-rule:nonzero;fill:rgb(100%,100%,100%);fill-opacity:1;" d="M 31.136719 22.300781 L 30.882812 22.117188 L 30.976562 21.992188 "/>
<path style=" stroke:none;fill-rule:nonzero;fill:rgb(100%,100%,100%);fill-opacity:1;" d="M 30.769531 22.300781 L 31.023438 22.117188 L 30.929688 21.992188 "/>
<path style=" stroke:none;fill-rule:nonzero;fill:rgb(100%,100%,100%);fill-opacity:1;" d="M 30.769531 22.300781 L 30.867188 22.003906 L 31.015625 22.050781 "/>
<path style=" stroke:none;fill-rule:nonzero;fill:rgb(100%,100%,100%);fill-opacity:1;" d="M 29.34375 22.070312 L 29.269531 22.308594 L 29.386719 22.347656 "/>
<path style=" stroke:none;fill-rule:nonzero;fill:rgb(100%,100%,100%);fill-opacity:1;" d="M 29.34375 22.070312 L 29.421875 22.308594 L 29.304688 22.347656 "/>
<path style=" stroke:none;fill-rule:nonzero;fill:rgb(100%,100%,100%);fill-opacity:1;" d="M 29.582031 22.246094 L 29.332031 22.246094 L 29.332031 22.371094 "/>
<path style=" stroke:none;fill-rule:nonzero;fill:rgb(100%,100%,100%);fill-opacity:1;" d="M 29.582031 22.246094 L 29.378906 22.390625 L 29.308594 22.289062 "/>
<path style=" stroke:none;fill-rule:nonzero;fill:rgb(100%,100%,100%);fill-opacity:1;" d="M 29.109375 22.246094 L 29.308594 22.390625 L 29.382812 22.289062 "/>
<path style=" stroke:none;fill-rule:nonzero;fill:rgb(100%,100%,100%);fill-opacity:1;" d="M 29.109375 22.246094 L 29.359375 22.246094 L 29.359375 22.371094 "/>
<path style=" stroke:none;fill-rule:nonzero;fill:rgb(100%,100%,100%);fill-opacity:1;" d="M 29.492188 22.523438 L 29.414062 22.285156 L 29.296875 22.324219 "/>
<path style=" stroke:none;fill-rule:nonzero;fill:rgb(100%,100%,100%);fill-opacity:1;" d="M 29.492188 22.523438 L 29.289062 22.375 L 29.363281 22.277344 "/>
<path style=" stroke:none;fill-rule:nonzero;fill:rgb(100%,100%,100%);fill-opacity:1;" d="M 29.199219 22.523438 L 29.402344 22.375 L 29.328125 22.277344 "/>
<path style=" stroke:none;fill-rule:nonzero;fill:rgb(100%,100%,100%);fill-opacity:1;" d="M 29.199219 22.523438 L 29.277344 22.285156 L 29.394531 22.324219 "/>
<path style=" stroke:none;fill-rule:nonzero;fill:rgb(100%,100%,100%);fill-opacity:1;" d="M 21.667969 17.542969 L 21.570312 17.84375 L 21.71875 17.890625 "/>
<path style=" stroke:none;fill-rule:nonzero;fill:rgb(100%,100%,100%);fill-opacity:1;" d="M 21.667969 17.542969 L 21.761719 17.84375 L 21.613281 17.890625 "/>
<path style=" stroke:none;fill-rule:nonzero;fill:rgb(100%,100%,100%);fill-opacity:1;" d="M 21.964844 17.761719 L 21.652344 17.761719 L 21.652344 17.917969 "/>
<path style=" stroke:none;fill-rule:nonzero;fill:rgb(100%,100%,100%);fill-opacity:1;" d="M 21.964844 17.761719 L 21.710938 17.945312 L 21.621094 17.816406 "/>
<path style=" stroke:none;fill-rule:nonzero;fill:rgb(100%,100%,100%);fill-opacity:1;" d="M 21.371094 17.761719 L 21.621094 17.945312 L 21.714844 17.816406 "/>
<path style=" stroke:none;fill-rule:nonzero;fill:rgb(100%,100%,100%);fill-opacity:1;" d="M 21.371094 17.761719 L 21.683594 17.761719 L 21.683594 17.917969 "/>
<path style=" stroke:none;fill-rule:nonzero;fill:rgb(100%,100%,100%);fill-opacity:1;" d="M 21.851562 18.109375 L 21.753906 17.8125 L 21.605469 17.859375 "/>
<path style=" stroke:none;fill-rule:nonzero;fill:rgb(100%,100%,100%);fill-opacity:1;" d="M 21.851562 18.109375 L 21.597656 17.925781 L 21.6875 17.800781 "/>
<path style=" stroke:none;fill-rule:nonzero;fill:rgb(100%,100%,100%);fill-opacity:1;" d="M 21.484375 18.109375 L 21.734375 17.925781 L 21.644531 17.800781 "/>
<path style=" stroke:none;fill-rule:nonzero;fill:rgb(100%,100%,100%);fill-opacity:1;" d="M 21.484375 18.109375 L 21.578125 17.8125 L 21.726562 17.859375 "/>
<path style=" stroke:none;fill-rule:nonzero;fill:rgb(100%,100%,100%);fill-opacity:1;" d="M 27.382812 16.808594 L 27.304688 17.046875 L 27.421875 17.085938 "/>
<path style=" stroke:none;fill-rule:nonzero;fill:rgb(100%,100%,100%);fill-opacity:1;" d="M 27.382812 16.808594 L 27.457031 17.046875 L 27.339844 17.085938 "/>
<path style=" stroke:none;fill-rule:nonzero;fill:rgb(100%,100%,100%);fill-opacity:1;" d="M 27.617188 16.980469 L 27.367188 16.980469 L 27.367188 17.105469 "/>
<path style=" stroke:none;fill-rule:nonzero;fill:rgb(100%,100%,100%);fill-opacity:1;" d="M 27.617188 16.980469 L 27.417969 17.128906 L 27.34375 17.027344 "/>
<path style=" stroke:none;fill-rule:nonzero;fill:rgb(100%,100%,100%);fill-opacity:1;" d="M 27.144531 16.980469 L 27.34375 17.128906 L 27.417969 17.027344 "/>
<path style=" stroke:none;fill-rule:nonzero;fill:rgb(100%,100%,100%);fill-opacity:1;" d="M 27.144531 16.980469 L 27.394531 16.980469 L 27.394531 17.105469 "/>
<path style=" stroke:none;fill-rule:nonzero;fill:rgb(100%,100%,100%);fill-opacity:1;" d="M 27.527344 17.261719 L 27.449219 17.023438 L 27.332031 17.0625 "/>
<path style=" stroke:none;fill-rule:nonzero;fill:rgb(100%,100%,100%);fill-opacity:1;" d="M 27.527344 17.261719 L 27.324219 17.113281 L 27.398438 17.015625 "/>
<path style=" stroke:none;fill-rule:nonzero;fill:rgb(100%,100%,100%);fill-opacity:1;" d="M 27.234375 17.261719 L 27.4375 17.113281 L 27.363281 17.015625 "/>
<path style=" stroke:none;fill-rule:nonzero;fill:rgb(100%,100%,100%);fill-opacity:1;" d="M 27.234375 17.261719 L 27.3125 17.023438 L 27.429688 17.0625 "/>
<path style=" stroke:none;fill-rule:nonzero;fill:rgb(100%,100%,100%);fill-opacity:1;" d="M 25 21.054688 L 24.882812 21.410156 L 25.0625 21.46875 "/>
<path style=" stroke:none;fill-rule:nonzero;fill:rgb(100%,100%,100%);fill-opacity:1;" d="M 25 21.054688 L 25.117188 21.410156 L 24.9375 21.46875 "/>
<path style=" stroke:none;fill-rule:nonzero;fill:rgb(100%,100%,100%);fill-opacity:1;" d="M 25.355469 21.3125 L 24.980469 21.3125 L 24.980469 21.5 "/>
<path style=" stroke:none;fill-rule:nonzero;fill:rgb(100%,100%,100%);fill-opacity:1;" d="M 25.355469 21.3125 L 25.054688 21.53125 L 24.941406 21.382812 "/>
<path style=" stroke:none;fill-rule:nonzero;fill:rgb(100%,100%,100%);fill-opacity:1;" d="M 24.644531 21.3125 L 24.945312 21.53125 L 25.058594 21.382812 "/>
<path style=" stroke:none;fill-rule:nonzero;fill:rgb(100%,100%,100%);fill-opacity:1;" d="M 24.644531 21.3125 L 25.019531 21.3125 L 25.019531 21.5 "/>
<path style=" stroke:none;fill-rule:nonzero;fill:rgb(100%,100%,100%);fill-opacity:1;" d="M 25.21875 21.730469 L 25.105469 21.375 L 24.925781 21.433594 "/>
<path style=" stroke:none;fill-rule:nonzero;fill:rgb(100%,100%,100%);fill-opacity:1;" d="M 25.21875 21.730469 L 24.917969 21.511719 L 25.027344 21.359375 "/>
<path style=" stroke:none;fill-rule:nonzero;fill:rgb(100%,100%,100%);fill-opacity:1;" d="M 24.78125 21.730469 L 25.082031 21.511719 L 24.972656 21.359375 "/>
<path style=" stroke:none;fill-rule:nonzero;fill:rgb(100%,100%,100%);fill-opacity:1;" d="M 24.78125 21.730469 L 24.894531 21.375 L 25.074219 21.433594 "/>
<path style=" stroke:none;fill-rule:nonzero;fill:rgb(100%,100%,100%);fill-opacity:1;" d="M 26.011719 19.378906 L 25.914062 19.675781 L 26.0625 19.722656 "/>
<path style=" stroke:none;fill-rule:nonzero;fill:rgb(100%,100%,100%);fill-opacity:1;" d="M 26.011719 19.378906 L 26.109375 19.675781 L 25.960938 19.722656 "/>
<path style=" stroke:none;fill-rule:nonzero;fill:rgb(100%,100%,100%);fill-opacity:1;" d="M 26.308594 19.59375 L 25.996094 19.59375 L 25.996094 19.75 "/>
<path style=" stroke:none;fill-rule:nonzero;fill:rgb(100%,100%,100%);fill-opacity:1;" d="M 26.308594 19.59375 L 26.054688 19.777344 L 25.964844 19.652344 "/>
<path style=" stroke:none;fill-rule:nonzero;fill:rgb(100%,100%,100%);fill-opacity:1;" d="M 25.714844 19.59375 L 25.96875 19.777344 L 26.058594 19.652344 "/>
<path style=" stroke:none;fill-rule:nonzero;fill:rgb(100%,100%,100%);fill-opacity:1;" d="M 25.714844 19.59375 L 26.027344 19.59375 L 26.027344 19.75 "/>
<path style=" stroke:none;fill-rule:nonzero;fill:rgb(100%,100%,100%);fill-opacity:1;" d="M 26.195312 19.941406 L 26.097656 19.644531 L 25.949219 19.695312 "/>
<path style=" stroke:none;fill-rule:nonzero;fill:rgb(100%,100%,100%);fill-opacity:1;" d="M 26.195312 19.941406 L 25.941406 19.757812 L 26.035156 19.632812 "/>
<path style=" stroke:none;fill-rule:nonzero;fill:rgb(100%,100%,100%);fill-opacity:1;" d="M 25.828125 19.941406 L 26.082031 19.757812 L 25.988281 19.632812 "/>
<path style=" stroke:none;fill-rule:nonzero;fill:rgb(100%,100%,100%);fill-opacity:1;" d="M 25.828125 19.941406 L 25.925781 19.644531 L 26.074219 19.695312 "/>
<path style=" stroke:none;fill-rule:nonzero;fill:rgb(100%,100%,100%);fill-opacity:1;" d="M 25 18.59375 L 24.902344 18.890625 L 25.050781 18.9375 "/>
<path style=" stroke:none;fill-rule:nonzero;fill:rgb(100%,100%,100%);fill-opacity:1;" d="M 25 18.59375 L 25.097656 18.890625 L 24.949219 18.9375 "/>
<path style=" stroke:none;fill-rule:nonzero;fill:rgb(100%,100%,100%);fill-opacity:1;" d="M 25.296875 18.808594 L 24.984375 18.808594 L 24.984375 18.964844 "/>
<path style=" stroke:none;fill-rule:nonzero;fill:rgb(100%,100%,100%);fill-opacity:1;" d="M 25.296875 18.808594 L 25.042969 18.992188 L 24.953125 18.867188 "/>
<path style=" stroke:none;fill-rule:nonzero;fill:rgb(100%,100%,100%);fill-opacity:1;" d="M 24.703125 18.808594 L 24.957031 18.992188 L 25.046875 18.867188 "/>
<path style=" stroke:none;fill-rule:nonzero;fill:rgb(100%,100%,100%);fill-opacity:1;" d="M 24.703125 18.808594 L 25.015625 18.808594 L 25.015625 18.964844 "/>
<path style=" stroke:none;fill-rule:nonzero;fill:rgb(100%,100%,100%);fill-opacity:1;" d="M 25.183594 19.15625 L 25.085938 18.859375 L 24.9375 18.910156 "/>
<path style=" stroke:none;fill-rule:nonzero;fill:rgb(100%,100%,100%);fill-opacity:1;" d="M 25.183594 19.15625 L 24.929688 18.972656 L 25.023438 18.847656 "/>
<path style=" stroke:none;fill-rule:nonzero;fill:rgb(100%,100%,100%);fill-opacity:1;" d="M 24.816406 19.15625 L 25.070312 18.972656 L 24.976562 18.847656 "/>
<path style=" stroke:none;fill-rule:nonzero;fill:rgb(100%,100%,100%);fill-opacity:1;" d="M 24.816406 19.15625 L 24.914062 18.859375 L 25.0625 18.910156 "/>
<path style=" stroke:none;fill-rule:nonzero;fill:rgb(100%,100%,100%);fill-opacity:1;" d="M 24.117188 19.441406 L 24.042969 19.679688 L 24.160156 19.71875 "/>
<path style=" stroke:none;fill-rule:nonzero;fill:rgb(100%,100%,100%);fill-opacity:1;" d="M 24.117188 19.441406 L 24.195312 19.679688 L 24.078125 19.71875 "/>
<path style=" stroke:none;fill-rule:nonzero;fill:rgb(100%,100%,100%);fill-opacity:1;" d="M 24.355469 19.613281 L 24.105469 19.613281 L 24.105469 19.738281 "/>
<path style=" stroke:none;fill-rule:nonzero;fill:rgb(100%,100%,100%);fill-opacity:1;" d="M 24.355469 19.613281 L 24.15625 19.761719 L 24.082031 19.660156 "/>
<path style=" stroke:none;fill-rule:nonzero;fill:rgb(100%,100%,100%);fill-opacity:1;" d="M 23.882812 19.613281 L 24.082031 19.761719 L 24.15625 19.660156 "/>
<path style=" stroke:none;fill-rule:nonzero;fill:rgb(100%,100%,100%);fill-opacity:1;" d="M 23.882812 19.613281 L 24.132812 19.613281 L 24.132812 19.738281 "/>
<path style=" stroke:none;fill-rule:nonzero;fill:rgb(100%,100%,100%);fill-opacity:1;" d="M 24.265625 19.894531 L 24.1875 19.65625 L 24.070312 19.695312 "/>
<path style=" stroke:none;fill-rule:nonzero;fill:rgb(100%,100%,100%);fill-opacity:1;" d="M 24.265625 19.894531 L 24.0625 19.746094 L 24.136719 19.644531 "/>
<path style=" stroke:none;fill-rule:nonzero;fill:rgb(100%,100%,100%);fill-opacity:1;" d="M 23.972656 19.894531 L 24.175781 19.746094 L 24.101562 19.644531 "/>
<path style=" stroke:none;fill-rule:nonzero;fill:rgb(100%,100%,100%);fill-opacity:1;" d="M 23.972656 19.894531 L 24.050781 19.65625 L 24.167969 19.695312 "/>
<path style=" stroke:none;fill-rule:nonzero;fill:rgb(100%,100%,100%);fill-opacity:1;" d="M 24.558594 20.117188 L 24.503906 20.289062 L 24.589844 20.316406 "/>
<path style=" stroke:none;fill-rule:nonzero;fill:rgb(100%,100%,100%);fill-opacity:1;" d="M 24.558594 20.117188 L 24.613281 20.289062 L 24.53125 20.316406 "/>
<path style=" stroke:none;fill-rule:nonzero;fill:rgb(100%,100%,100%);fill-opacity:1;" d="M 24.730469 20.242188 L 24.550781 20.242188 L 24.550781 20.332031 "/>
<path style=" stroke:none;fill-rule:nonzero;fill:rgb(100%,100%,100%);fill-opacity:1;" d="M 24.730469 20.242188 L 24.585938 20.347656 L 24.53125 20.273438 "/>
<path style=" stroke:none;fill-rule:nonzero;fill:rgb(100%,100%,100%);fill-opacity:1;" d="M 24.390625 20.242188 L 24.535156 20.347656 L 24.585938 20.273438 "/>
<path style=" stroke:none;fill-rule:nonzero;fill:rgb(100%,100%,100%);fill-opacity:1;" d="M 24.390625 20.242188 L 24.566406 20.242188 L 24.566406 20.332031 "/>
<path style=" stroke:none;fill-rule:nonzero;fill:rgb(100%,100%,100%);fill-opacity:1;" d="M 24.664062 20.441406 L 24.609375 20.273438 L 24.523438 20.300781 "/>
<path style=" stroke:none;fill-rule:nonzero;fill:rgb(100%,100%,100%);fill-opacity:1;" d="M 24.664062 20.441406 L 24.519531 20.335938 L 24.574219 20.265625 "/>
<path style=" stroke:none;fill-rule:nonzero;fill:rgb(100%,100%,100%);fill-opacity:1;" d="M 24.453125 20.441406 L 24.597656 20.335938 L 24.546875 20.265625 "/>
<path style=" stroke:none;fill-rule:nonzero;fill:rgb(100%,100%,100%);fill-opacity:1;" d="M 24.453125 20.441406 L 24.507812 20.273438 L 24.59375 20.300781 "/>
<path style=" stroke:none;fill-rule:nonzero;fill:rgb(100%,100%,100%);fill-opacity:1;" d="M 27.617188 23.082031 L 27.523438 23.378906 L 27.671875 23.425781 "/>
<path style=" stroke:none;fill-rule:nonzero;fill:rgb(100%,100%,100%);fill-opacity:1;" d="M 27.617188 23.082031 L 27.714844 23.378906 L 27.566406 23.425781 "/>
<path style=" stroke:none;fill-rule:nonzero;fill:rgb(100%,100%,100%);fill-opacity:1;" d="M 27.917969 23.296875 L 27.605469 23.296875 L 27.605469 23.453125 "/>
<path style=" stroke:none;fill-rule:nonzero;fill:rgb(100%,100%,100%);fill-opacity:1;" d="M 27.917969 23.296875 L 27.664062 23.480469 L 27.570312 23.355469 "/>
<path style=" stroke:none;fill-rule:nonzero;fill:rgb(100%,100%,100%);fill-opacity:1;" d="M 27.320312 23.296875 L 27.574219 23.480469 L 27.667969 23.355469 "/>
<path style=" stroke:none;fill-rule:nonzero;fill:rgb(100%,100%,100%);fill-opacity:1;" d="M 27.320312 23.296875 L 27.632812 23.296875 L 27.632812 23.453125 "/>
<path style=" stroke:none;fill-rule:nonzero;fill:rgb(100%,100%,100%);fill-opacity:1;" d="M 27.800781 23.644531 L 27.707031 23.347656 L 27.558594 23.398438 "/>
<path style=" stroke:none;fill-rule:nonzero;fill:rgb(100%,100%,100%);fill-opacity:1;" d="M 27.800781 23.644531 L 27.550781 23.460938 L 27.640625 23.335938 "/>
<path style=" stroke:none;fill-rule:nonzero;fill:rgb(100%,100%,100%);fill-opacity:1;" d="M 27.433594 23.644531 L 27.6875 23.460938 L 27.597656 23.335938 "/>
<path style=" stroke:none;fill-rule:nonzero;fill:rgb(100%,100%,100%);fill-opacity:1;" d="M 27.433594 23.644531 L 27.53125 23.347656 L 27.679688 23.398438 "/>
<path style=" stroke:none;fill-rule:nonzero;fill:rgb(100%,100%,100%);fill-opacity:1;" d="M 28.367188 22.367188 L 28.292969 22.605469 L 28.410156 22.644531 "/>
<path style=" stroke:none;fill-rule:nonzero;fill:rgb(100%,100%,100%);fill-opacity:1;" d="M 28.367188 22.367188 L 28.445312 22.605469 L 28.328125 22.644531 "/>
<path style=" stroke:none;fill-rule:nonzero;fill:rgb(100%,100%,100%);fill-opacity:1;" d="M 28.605469 22.542969 L 28.355469 22.542969 L 28.355469 22.667969 "/>
<path style=" stroke:none;fill-rule:nonzero;fill:rgb(100%,100%,100%);fill-opacity:1;" d="M 28.605469 22.542969 L 28.40625 22.6875 L 28.332031 22.585938 "/>
<path style=" stroke:none;fill-rule:nonzero;fill:rgb(100%,100%,100%);fill-opacity:1;" d="M 28.132812 22.542969 L 28.332031 22.6875 L 28.40625 22.585938 "/>
<path style=" stroke:none;fill-rule:nonzero;fill:rgb(100%,100%,100%);fill-opacity:1;" d="M 28.132812 22.542969 L 28.382812 22.542969 L 28.382812 22.667969 "/>
<path style=" stroke:none;fill-rule:nonzero;fill:rgb(100%,100%,100%);fill-opacity:1;" d="M 28.515625 22.820312 L 28.4375 22.582031 L 28.320312 22.621094 "/>
<path style=" stroke:none;fill-rule:nonzero;fill:rgb(100%,100%,100%);fill-opacity:1;" d="M 28.515625 22.820312 L 28.3125 22.675781 L 28.386719 22.574219 "/>
<path style=" stroke:none;fill-rule:nonzero;fill:rgb(100%,100%,100%);fill-opacity:1;" d="M 28.222656 22.820312 L 28.425781 22.675781 L 28.351562 22.574219 "/>
<path style=" stroke:none;fill-rule:nonzero;fill:rgb(100%,100%,100%);fill-opacity:1;" d="M 28.222656 22.820312 L 28.300781 22.582031 L 28.417969 22.621094 "/>
<path style=" stroke:none;fill-rule:nonzero;fill:rgb(100%,100%,100%);fill-opacity:1;" d="M 26.929688 22.15625 L 26.851562 22.390625 L 26.96875 22.429688 "/>
<path style=" stroke:none;fill-rule:nonzero;fill:rgb(100%,100%,100%);fill-opacity:1;" d="M 26.929688 22.15625 L 27.003906 22.390625 L 26.886719 22.429688 "/>
<path style=" stroke:none;fill-rule:nonzero;fill:rgb(100%,100%,100%);fill-opacity:1;" d="M 27.167969 22.328125 L 26.917969 22.328125 L 26.917969 22.453125 "/>
<path style=" stroke:none;fill-rule:nonzero;fill:rgb(100%,100%,100%);fill-opacity:1;" d="M 27.167969 22.328125 L 26.964844 22.472656 L 26.890625 22.375 "/>
<path style=" stroke:none;fill-rule:nonzero;fill:rgb(100%,100%,100%);fill-opacity:1;" d="M 26.691406 22.328125 L 26.894531 22.472656 L 26.964844 22.375 "/>
<path style=" stroke:none;fill-rule:nonzero;fill:rgb(100%,100%,100%);fill-opacity:1;" d="M 26.691406 22.328125 L 26.941406 22.328125 L 26.941406 22.453125 "/>
<path style=" stroke:none;fill-rule:nonzero;fill:rgb(100%,100%,100%);fill-opacity:1;" d="M 27.074219 22.605469 L 27 22.371094 L 26.878906 22.40625 "/>
<path style=" stroke:none;fill-rule:nonzero;fill:rgb(100%,100%,100%);fill-opacity:1;" d="M 27.074219 22.605469 L 26.875 22.460938 L 26.945312 22.359375 "/>
<path style=" stroke:none;fill-rule:nonzero;fill:rgb(100%,100%,100%);fill-opacity:1;" d="M 26.78125 22.605469 L 26.984375 22.460938 L 26.910156 22.359375 "/>
<path style=" stroke:none;fill-rule:nonzero;fill:rgb(100%,100%,100%);fill-opacity:1;" d="M 26.78125 22.605469 L 26.859375 22.371094 L 26.976562 22.40625 "/>
<path style=" stroke:none;fill-rule:nonzero;fill:rgb(100%,100%,100%);fill-opacity:1;" d="M 21.488281 21.769531 L 21.371094 22.125 L 21.550781 22.183594 "/>
<path style=" stroke:none;fill-rule:nonzero;fill:rgb(100%,100%,100%);fill-opacity:1;" d="M 21.488281 21.769531 L 21.605469 22.125 L 21.425781 22.183594 "/>
<path style=" stroke:none;fill-rule:nonzero;fill:rgb(100%,100%,100%);fill-opacity:1;" d="M 21.84375 22.027344 L 21.46875 22.027344 L 21.46875 22.214844 "/>
<path style=" stroke:none;fill-rule:nonzero;fill:rgb(100%,100%,100%);fill-opacity:1;" d="M 21.84375 22.027344 L 21.542969 22.246094 L 21.429688 22.097656 "/>
<path style=" stroke:none;fill-rule:nonzero;fill:rgb(100%,100%,100%);fill-opacity:1;" d="M 21.132812 22.027344 L 21.433594 22.246094 L 21.546875 22.097656 "/>
<path style=" stroke:none;fill-rule:nonzero;fill:rgb(100%,100%,100%);fill-opacity:1;" d="M 21.132812 22.027344 L 21.507812 22.027344 L 21.507812 22.214844 "/>
<path style=" stroke:none;fill-rule:nonzero;fill:rgb(100%,100%,100%);fill-opacity:1;" d="M 21.707031 22.445312 L 21.59375 22.089844 L 21.414062 22.148438 "/>
<path style=" stroke:none;fill-rule:nonzero;fill:rgb(100%,100%,100%);fill-opacity:1;" d="M 21.707031 22.445312 L 21.40625 22.226562 L 21.515625 22.074219 "/>
<path style=" stroke:none;fill-rule:nonzero;fill:rgb(100%,100%,100%);fill-opacity:1;" d="M 21.269531 22.445312 L 21.570312 22.226562 L 21.460938 22.074219 "/>
<path style=" stroke:none;fill-rule:nonzero;fill:rgb(100%,100%,100%);fill-opacity:1;" d="M 21.269531 22.445312 L 21.382812 22.089844 L 21.5625 22.148438 "/>
<path style=" stroke:none;fill-rule:nonzero;fill:rgb(100%,100%,100%);fill-opacity:1;" d="M 25 24.21875 L 24.960938 24.339844 L 25.019531 24.359375 "/>
<path style=" stroke:none;fill-rule:nonzero;fill:rgb(100%,100%,100%);fill-opacity:1;" d="M 25 24.21875 L 25.039062 24.339844 L 24.980469 24.359375 "/>
<path style=" stroke:none;fill-rule:nonzero;fill:rgb(100%,100%,100%);fill-opacity:1;" d="M 25.117188 24.304688 L 24.992188 24.304688 L 24.992188 24.367188 "/>
<path style=" stroke:none;fill-rule:nonzero;fill:rgb(100%,100%,100%);fill-opacity:1;" d="M 25.117188 24.304688 L 25.019531 24.378906 L 24.980469 24.328125 "/>
<path style=" stroke:none;fill-rule:nonzero;fill:rgb(100%,100%,100%);fill-opacity:1;" d="M 24.882812 24.304688 L 24.980469 24.378906 L 25.019531 24.328125 "/>
<path style=" stroke:none;fill-rule:nonzero;fill:rgb(100%,100%,100%);fill-opacity:1;" d="M 24.882812 24.304688 L 25.007812 24.304688 L 25.007812 24.367188 "/>
<path style=" stroke:none;fill-rule:nonzero;fill:rgb(100%,100%,100%);fill-opacity:1;" d="M 25.074219 24.445312 L 25.035156 24.328125 L 24.976562 24.347656 "/>
<path style=" stroke:none;fill-rule:nonzero;fill:rgb(100%,100%,100%);fill-opacity:1;" d="M 25.074219 24.445312 L 24.972656 24.371094 L 25.007812 24.324219 "/>
<path style=" stroke:none;fill-rule:nonzero;fill:rgb(100%,100%,100%);fill-opacity:1;" d="M 24.925781 24.445312 L 25.027344 24.371094 L 24.992188 24.324219 "/>
<path style=" stroke:none;fill-rule:nonzero;fill:rgb(100%,100%,100%);fill-opacity:1;" d="M 24.925781 24.445312 L 24.964844 24.328125 L 25.023438 24.347656 "/>
</g>
</svg>
