<?xml version="1.0" encoding="utf-8"?>
<!-- Generator: Adobe Illustrator 19.0.0, SVG Export Plug-In . SVG Version: 6.00 Build 0)  -->
<svg version="1.1" id="Camada_1" xmlns="http://www.w3.org/2000/svg" xmlns:xlink="http://www.w3.org/1999/xlink" x="0px" y="0px"
	 viewBox="0 0 144 144" style="enable-background:new 0 0 144 144;" xml:space="preserve">
<style type="text/css">
	.st0{fill:#FFFFFF;}
	.st1{fill:#0000FF;}
	.st2{fill:#FF0000;}
</style>
<g id="XMLID_77_">
	<g id="XMLID_172_">
		<path id="XMLID_173_" class="st0" d="M70.4,77.3c-1.7,0.5-2.9,1.1-3.6,1.9c-0.7,0.7-1,1.9-1,3.5V92c0,3.6,1.1,6.5,3.2,8.6
			l-1.7,1.3c-4.6-4.4-9.6-6.5-15.1-6.5c-6.5,0-11.6,3.1-15.2,9.4c-2.5-3.9-5.5-5.9-9.1-5.9c-1.8,0-3.2,0.5-4.4,1.5
			c-1.2,1-1.8,2.3-1.8,3.9c0,1.7,0.6,2.7,1.9,3.2c0.7,0.3,1,0.5,1,0.7c0,0.4-0.3,0.6-1,0.6c-1.5,0-2.7-0.8-3.6-2.4
			c-0.8-1.4-1.2-3-1.2-4.6c0-5.7,3.8-9.2,11.3-10.4V71.4c-2,0.1-3.2,0.6-3.6,1.6c-0.3,0.6-0.4,2-0.4,4.1h-2.6V60.5h2.6v2.1
			c0,1.4,0.3,2.4,1,2.8c0.5,0.3,1.5,0.5,3.1,0.4V55.6c0-5.8-3.2-8.6-9.7-8.5v-1.7h6.5c4.5,0,8.1-0.6,10.8-1.8
			c1.2-0.6,3.1-1.8,5.9-3.9c2.4-1.8,5.1-3.2,8.1-4.1c0.9-0.3,1.7-0.4,2.2-0.4c0.7,0,1.3,0.4,2,1.3c4.1,5.5,9,8.4,14.5,8.9v1.7
			c-2.1,0.2-3.5,0.7-4.2,1.5c-0.7,0.9-1,2.4-1,4.6v9.4c0,2.8-1.4,4.8-4.1,5.9c-1.3,0.5-3.9,1-7.8,1.4c1.7,0.2,4.3,1.3,7.8,3.2
			c3.3,1.9,5.6,2.8,7,2.8c0.7,0,1.5-0.1,2.4-0.4V77.3z M52.6,64.4v-8.9c0-2.5-1-4.7-3.1-6.7c-1.8-1.7-4-2.9-6.6-3.5v23.9
			c3.1-0.2,5.2-0.4,6.1-0.7C51.4,67.8,52.6,66.5,52.6,64.4z M52.6,92.9V78.9c0-3.3-0.9-5.4-2.7-6.3c-0.9-0.4-3.3-0.8-7.1-1.2v11.2
			c0,3.6,0.4,6.1,1.2,7.5c1.1,1.9,3.3,2.8,6.7,2.8H52.6z"/>
		<path id="XMLID_177_" class="st0" d="M125.2,48c-4.2,1-7.1,4.8-8.6,11.2L111.5,80c-0.5,2-0.7,3.8-0.7,5.2c0,4.5,2.1,7.2,6.3,8V95
			c-6.3-0.1-11.1,3.1-14.4,9.8c-1.4-0.7-3.1-2-5-3.9c-2.1-2.2-3.6-3.6-4.6-4.2c-1.8-1.2-4-1.8-6.5-1.7v-1.7H87c4,0,6-1.8,6-5.5
			c0-2.3-1-7.3-3.1-15.2c-0.2-0.1-0.6-0.1-1.2-0.1c-2.2,0-3.6,0.5-4.2,1.4c-0.4,0.8-0.7,2.3-0.7,4.5h-2.2V62.1H84v1.7
			c0,1.5,0.3,2.4,1,2.8c0.4,0.3,1.2,0.4,2.2,0.4h1.7l-3.7-17.2c-0.3-1.7-1.1-3.3-2.3-5.1c-1.4-2-2.8-3.1-4.3-3.1
			c-1,0-1.9,0.5-2.9,1.5c-0.9,1-1.4,2-1.4,3.1c0,1,0.5,2,1.4,2.9c0.9,0.9,1.4,1.4,1.4,1.5c0,0.3-0.2,0.5-0.7,0.5
			c-1.2,0-2.1-0.5-2.9-1.5c-0.8-1-1.2-2.2-1.2-3.5c0-2.8,1.3-5.1,3.8-6.7c2.2-1.4,4.8-2.2,7.8-2.2c2.4,0,4.5,0.8,6.3,2.3
			c1.6,1.4,3.3,2.9,5.1,4.4c2.6,1.5,6,2.2,10.2,2.2v1.8c-1.9,0.1-3.5,0.7-4.6,2c-1.1,1.3-1.7,3-1.7,5.1c0,0.9,0.1,2,0.4,3.3
			l5.9,27.8c0.5,2.3,1.4,4,2.8,5.1c-0.3-1.5-0.4-2.9-0.4-4.2c0-2.3,0.4-5.1,1.3-8.6l4.8-18.9c0.2-0.9,0.3-1.8,0.3-2.7
			c0-2.1-0.6-3.9-1.9-5.5c-1.3-1.6-2.9-2.6-5-3.1v-1.8c5-1.4,7.9-4.4,8.8-8.9c1,4.7,4,7.7,9.1,9V48z"/>
	</g>
	<g id="XMLID_314_">
		<g id="XMLID_370_">
			<path id="XMLID_371_" class="st1" d="M39.6,120.4c0.7-1.6,2.4-3.5,3.4-3.9c1.2-0.5,2.8-0.5,4.2-0.1l1.3,0.3l1.5-2.1
				c3-4.4,6.7-10.6,9.3-15.4c2-3.8,4-7.9,3.9-8.4c-0.1-0.6,0.5-2.3,1.1-3.1c0.2-0.3,0.6-1.1,0.8-1.7c0.4-0.9,0.5-1,1-1.1
				c0.7-0.1,1.3,0.2,1.3,0.6c0,0.4-1.6,4.6-3.2,7.9c-2.9,6.2-6.7,12.7-11.2,19.6l-2.7,4.2l1,0.3c2.6,0.7,5.3,0.9,8.9,0.8
				c2.5-0.1,2.8,0,2.9,0.3c0,0.4-1,0.6-3.6,0.6c-3,0.1-5.8-0.2-8.1-0.7l-1.7-0.4l-3,3.6c-2,2.4-3.3,3.9-3.9,4.3
				c-1,0.7-2.3,1-2.9,0.8C38.2,126.3,38,123.7,39.6,120.4z M47.8,117.5c0-0.2-1.8-0.6-2.7-0.5c-1.4,0.1-2.8,1.6-3.9,4.2
				c-0.8,1.9-1.2,4.7-0.6,4.6c0.1,0,0.7-0.5,1.2-1C42.9,123.9,47.9,117.8,47.8,117.5z"/>
			<path id="XMLID_374_" class="st1" d="M69.8,109.5c0.1-0.6,0.3-1.3,0.3-1.7c0-0.3,0.2-0.8,0.5-1.1c0.3-0.3,0.6-0.8,0.7-1.1
				c0.2-0.5,0.3-0.6,1-0.6c1.2,0,1.3,0.3,0.4,2.1c-0.4,0.9-0.8,2.1-1,2.8c-0.4,1.5-0.3,1.9,0.8,1.8c1.5-0.1,4.7-4.5,7.8-5.7
				c0.5-0.2,0.8-0.3,1.3-0.2c0.4,0,0.4,0.7,0.5,0.8c0,0.1-1.4,0.3-2.4,1.2c-6.1,6-7.9,5.2-9.2,4.3C69.6,111.7,69.4,110.9,69.8,109.5
				z M71.6,101.2c0-0.4,1.9-1.6,2.4-1.6c0.5,0,1.2,0.3,1.1,0.5c0,0.1-0.4,0.5-1,0.9c-1,0.8-1.7,0.9-2.3,0.5
				C71.8,101.6,71.6,101.3,71.6,101.2z"/>
			<path id="XMLID_377_" class="st1" d="M81.8,106.4c0.7-1.3,1.3-2.5,1.3-2.6c0-0.5,0.5-1.6,1.1-2.1s1.6-0.7,2.1-0.4
				c0.3,0.2,0.3,0.2,0,0.7c-0.6,0.9-3.4,6.1-3.4,6.2c0,0.1,0.5-0.3,1.1-0.8c1.9-1.7,4.4-3.7,5.4-4.3c1.6-1,3.4-0.9,3.5,0.2
				c0,0.3-0.1,1.1-0.2,1.8c-0.3,1.5-0.2,2.2,0,2.2c0.3,0,2.9-1.3,5.1-2.6c2.5-1.4,3.4-1.6,4.3-0.9c0.3,0.2,0.6,0.5,0.6,0.7
				c0,0.2,0.1,0.6,0.3,1c2.1,2.8,6.6-1.5,8.6-1.9c0.5,0,1.4-0.1,1.4,0c-4.2,2.7-6.3,3.7-8,3.8c-0.7,0-1.4-0.1-2.2-0.4
				c-0.9-0.3-1.7-1.1-1.8-1.7c-0.1-0.8-0.3-0.8-2.9,0.6c-3.9,2.1-5.2,2.6-6.5,2.1c-1-0.4-1.3-1.2-1-3c0.1-0.6,0.2-1.1,0.1-1.1
				c-0.1-0.2-2.2,1.4-5.2,4.1s-4,3.2-5.1,2.7C79.7,110.5,79.9,109.8,81.8,106.4z"/>
			<path id="XMLID_379_" class="st1" d="M111.9,106.9c0.9-2.4,2.8-4.9,4.2-5.8c0.6-0.4,0.9-0.5,1.7-0.5c0.5,0,1.2,0,1.5,0
				c1.2-0.2,2.1,0.8,2,2.1c-0.1,0.9,0.3,2.6,0.7,2.7c0.4,0.1,2-0.7,4.4-2.2c1.8-1.2,2.3-1.4,2.8-1.4c1.2,0.1,1.1,0.4-0.3,1.4
				c-2.5,1.7-5.2,3-6.5,3.1c-0.8,0.1-1.9-0.3-2.4-0.9c-0.2-0.3-0.5-0.9-0.6-1.4l-0.2-1l-2.1,2.7c-2.6,3.2-3.6,3.9-4.8,3.4
				C111.7,108.8,111.5,107.9,111.9,106.9z M118,101.5c-0.3-0.3-2.8,2.8-3.6,4.4c-0.3,0.6-0.2,0.6,0.5-0.2c0.5-0.5,1.3-1.6,2-2.5
				C117.5,102.3,118,101.5,118,101.5z"/>
		</g>
		<g id="XMLID_358_">
			<path id="XMLID_359_" class="st2" d="M37.5,120.4c0.7-1.6,2.4-3.5,3.4-3.9c1.2-0.5,2.8-0.5,4.2-0.1l1.3,0.3l1.5-2.1
				c3-4.4,6.7-10.6,9.3-15.4c2-3.8,4-7.9,3.9-8.4c-0.1-0.6,0.5-2.3,1.1-3.1c0.2-0.3,0.6-1.1,0.8-1.7c0.4-0.9,0.5-1,1-1.1
				c0.7-0.1,1.3,0.2,1.3,0.6c0,0.4-1.6,4.6-3.2,7.9c-2.9,6.2-6.7,12.7-11.2,19.6l-2.7,4.2l1,0.3c2.6,0.7,5.3,0.9,8.9,0.8
				c2.5-0.1,2.8,0,2.9,0.3c0,0.4-1,0.6-3.6,0.6c-3,0.1-5.8-0.2-8.1-0.7l-1.7-0.4l-3,3.6c-2,2.4-3.3,3.9-3.9,4.3
				c-1,0.7-2.3,1-2.9,0.8C36.1,126.3,36,123.7,37.5,120.4z M45.8,117.5c0-0.2-1.8-0.6-2.7-0.5c-1.4,0.1-2.8,1.6-3.9,4.2
				c-0.8,1.9-1.2,4.7-0.6,4.6c0.1,0,0.7-0.5,1.2-1C40.8,123.9,45.8,117.8,45.8,117.5z"/>
			<path id="XMLID_362_" class="st2" d="M67.8,109.5c0.1-0.6,0.3-1.3,0.3-1.7c0-0.3,0.2-0.8,0.5-1.1c0.3-0.3,0.6-0.8,0.7-1.1
				c0.2-0.5,0.3-0.6,1-0.6c1.2,0,1.3,0.3,0.4,2.1c-0.4,0.9-0.8,2.1-1,2.8c-0.4,1.5-0.3,1.9,0.8,1.8c1.5-0.1,4.7-4.5,7.8-5.7
				c0.5-0.2,0.8-0.3,1.3-0.2c0.4,0,0.4,0.7,0.5,0.8c0,0.1-1.4,0.3-2.4,1.2c-6.1,6-7.9,5.2-9.2,4.3C67.6,111.7,67.4,110.9,67.8,109.5
				z M69.6,101.2c0-0.4,1.9-1.6,2.4-1.6c0.5,0,1.2,0.3,1.1,0.5c0,0.1-0.4,0.5-1,0.9c-1,0.8-1.7,0.9-2.3,0.5
				C69.8,101.6,69.6,101.3,69.6,101.2z"/>
			<path id="XMLID_365_" class="st2" d="M79.8,106.4c0.7-1.3,1.3-2.5,1.3-2.6c0-0.5,0.5-1.6,1.1-2.1c0.6-0.5,1.6-0.7,2.1-0.4
				c0.3,0.2,0.3,0.2,0,0.7c-0.6,0.9-3.4,6.1-3.4,6.2c0,0.1,0.5-0.3,1.1-0.8c1.9-1.7,4.4-3.7,5.4-4.3c1.6-1,3.4-0.9,3.5,0.2
				c0,0.3-0.1,1.1-0.2,1.8c-0.3,1.5-0.2,2.2,0,2.2c0.3,0,2.9-1.3,5.1-2.6c2.5-1.4,3.4-1.6,4.3-0.9c0.3,0.2,0.6,0.5,0.6,0.7
				c0,0.2,0.1,0.6,0.3,1c2.1,2.8,6.6-1.5,8.6-1.9c0.5,0,1.4-0.1,1.4,0c-4.2,2.7-6.3,3.7-8,3.8c-0.7,0-1.4-0.1-2.2-0.4
				c-0.9-0.3-1.7-1.1-1.8-1.7c-0.1-0.8-0.3-0.8-2.9,0.6c-3.9,2.1-5.2,2.6-6.5,2.1c-1-0.4-1.3-1.2-1-3c0.1-0.6,0.2-1.1,0.1-1.1
				c-0.1-0.2-2.2,1.4-5.2,4.1s-4,3.2-5.1,2.7C77.7,110.5,77.9,109.8,79.8,106.4z"/>
			<path id="XMLID_367_" class="st2" d="M109.9,106.9c0.9-2.4,2.8-4.9,4.2-5.8c0.6-0.4,0.9-0.5,1.7-0.5c0.5,0,1.2,0,1.5,0
				c1.2-0.2,2.1,0.8,2,2.1c-0.1,0.9,0.3,2.6,0.7,2.7c0.4,0.1,2-0.7,4.4-2.2c1.8-1.2,2.3-1.4,2.8-1.4c1.2,0.1,1.1,0.4-0.3,1.4
				c-2.5,1.7-5.2,3-6.5,3.1c-0.8,0.1-1.9-0.3-2.4-0.9c-0.2-0.3-0.5-0.9-0.6-1.4l-0.2-1l-2.1,2.7c-2.6,3.2-3.6,3.9-4.8,3.4
				C109.6,108.8,109.5,107.9,109.9,106.9z M115.9,101.5c-0.3-0.3-2.8,2.8-3.6,4.4c-0.3,0.6-0.2,0.6,0.5-0.2c0.5-0.5,1.3-1.6,2-2.5
				C115.5,102.3,116,101.5,115.9,101.5z"/>
		</g>
	</g>
</g>
</svg>
