<?xml version="1.0" encoding="utf-8"?>
<!-- Generator: Adobe Illustrator 19.0.0, SVG Export Plug-In . SVG Version: 6.00 Build 0)  -->
<svg version="1.1" id="Camada_1" xmlns="http://www.w3.org/2000/svg" xmlns:xlink="http://www.w3.org/1999/xlink" x="0px" y="0px"
	 viewBox="0 0 384 384" style="enable-background:new 0 0 384 384;" xml:space="preserve">
<style type="text/css">
	.st0{fill:#4A56D0;}
	.st1{fill:#2E34A2;}
	.st2{fill:#3D47C2;}
	.st3{fill:#FFFFFF;}
</style>
<g id="XMLID_1_">
	<rect id="XMLID_6_" class="st0" width="384" height="384"/>
	<polygon id="XMLID_7_" class="st1" points="384,80 0,297.3 0,384 384,384 	"/>
	<polygon id="XMLID_10_" class="st2" points="192,189 384,296.6 384,80 192,189 	"/>
	<path id="XMLID_8_" class="st3" d="M192,250.3c-33.8,0-61.3-27.4-61.3-61.3s27.4-61.3,61.3-61.3c22.7,0,42.5,12.4,53.1,30.7
		l53.6-30.4c-21.2-37-61-61.9-106.7-61.9c-67.9,0-122.9,55-122.9,122.9s55,122.9,122.9,122.9c45.9,0,85.9-25.2,107-62.4l-53.7-30.1
		C234.7,237.8,214.8,250.3,192,250.3z"/>
</g>
</svg>
