<?xml version="1.0" encoding="utf-8"?>
<!-- Generator: Adobe Illustrator 19.0.0, SVG Export Plug-In . SVG Version: 6.00 Build 0)  -->
<svg version="1.1" id="Camada_1" xmlns="http://www.w3.org/2000/svg" xmlns:xlink="http://www.w3.org/1999/xlink" x="0px" y="0px"
	 viewBox="0 0 384 384" style="enable-background:new 0 0 384 384;" xml:space="preserve">
<style type="text/css">
	.st0{fill:#3799D4;}
	.st1{fill:#FEFDFD;}
</style>
<rect id="XMLID_2_" class="st0" width="384" height="384"/>
<g id="XMLID_9_">
	<path id="XMLID_6_" class="st1" d="M84.4,100.9c71.9,0,143.2,0,215.1,0c-6.7,72.8-13.4,145.4-20.1,218.2
		c-11.6,3.1-22.9,6.2-34.3,9.3c-17,4.6-34,9.1-50.9,13.7c-1.3,0.3-2.4,0.6-3.7,0.3c-28.5-7.7-56.9-15.4-85.9-23.2
		C97.9,246.6,91.2,174,84.4,100.9z M224.6,225.2c-0.8,12-1.5,23.4-2.3,34.5c-9.5,2.9-18.3,5.5-27.2,8.2c-1.2,0.4-2.5,0.9-3.8,0.5
		c-9.6-2.6-19.2-5.3-29.1-8c-0.6-6.9-1.2-13.6-1.8-20.7c-9.1,0.1-17.8-0.3-26.8,0.3c1.2,13.9,2.3,27.3,3.4,40.7
		c13.9,4,27.7,7.5,41,12.1c9.2,3.2,17.6,3.4,26.8,0.4c13.9-4.5,28.1-8,42.4-12c2.3-27.6,4.5-55,6.9-83c-20.5,0-40.3,0-60.1,0
		c0-0.2,0-0.4-0.1-0.6c20.9-8.9,41.8-17.7,62.6-26.5c0.6-9,1.3-17.6,1.9-26.2c-45.2,0-89.9,0-135.1,0c1.3,9.1,2.6,17.7,3.8,26.4
		c22.1,0,43.9,0,65.8,0c0,0.2,0.1,0.4,0.1,0.5c-21,8.9-42,17.7-63.2,26.7c0.2,8.9,0.8,17.7,1.7,26.8
		C162.8,225.2,193.4,225.2,224.6,225.2z"/>
	<path id="XMLID_5_" class="st1" d="M188,67.5c-3.3-3.2-6.5-6.5-9.9-9.5c-1.8-1.6-2.5-3.3-2.4-5.7c0.2-3.4,0.1-6.9,0.1-10.7
		c11,0,21.7,0,32.8,0c0,4.3,0,8.7,0,13.6c-3.9,0-8,0-12,0c-0.2,0.4-0.5,0.8-0.7,1.1c3.1,2.9,6.2,6,9.5,8.7c2.8,2.3,4,5,3.6,8.7
		c-0.3,2.4-0.1,4.8-0.1,7.5c-11.1,0-21.8,0-32.8,0c0-4.1,0-8.3,0-12.7c3.9,0,7.7,0,11.5,0C187.7,68.2,187.8,67.8,188,67.5z"/>
	<path id="XMLID_4_" class="st1" d="M222.8,41.5c11.2,0,21.8,0,32.8,0c0,4.5,0,8.9,0,13.8c-4,0-8.1,0-12.1,0
		c-0.1,0.3-0.3,0.6-0.4,0.9c3.2,3.1,6.3,6.3,9.6,9.2c2.5,2.1,3.5,4.5,3.2,7.7c-0.2,2.6,0,5.3,0,8.2c-11.2,0-22,0-32.9,0
		c0-4.3,0-8.3,0-12.7c3.9,0,7.7,0,12.9,0c-3.6-3.6-6.3-6.6-9.3-9.2c-2.9-2.5-4.2-5.2-3.8-9C223.1,47.6,222.8,44.7,222.8,41.5z"/>
	<path id="XMLID_3_" class="st1" d="M161,41.6c0,4.6,0,8.9,0,13.6c-6.1,0-12,0-18.2,0c0,4.5,0,8.6,0,13.2c6,0,12,0,18.2,0
		c0,4.5,0,8.5,0,12.8c-10.9,0-21.6,0-32.6,0c0-13.2,0-26.3,0-39.6C139.2,41.6,149.9,41.6,161,41.6z"/>
</g>
</svg>
