<svg width="60" height="60" viewBox="0 0 60 60" fill="none" xmlns="http://www.w3.org/2000/svg">
<rect width="60" height="60" fill="white"/>
<g clip-path="url(#clip0_7_42)">
<path d="M30 30.3333C30 28.6536 30.6673 27.0427 31.855 25.855C33.0427 24.6673 34.6536 24 36.3333 24C38.013 24 39.6239 24.6673 40.8117 25.855C41.9994 27.0427 42.6667 28.6536 42.6667 30.3333C42.6667 32.013 41.9994 33.6239 40.8117 34.8117C39.6239 35.9994 38.013 36.6667 36.3333 36.6667C34.6536 36.6667 33.0427 35.9994 31.855 34.8117C30.6673 33.6239 30 32.013 30 30.3333Z" fill="#1ABCFE"/>
<path d="M17.3333 43C17.3333 41.3203 18.0006 39.7094 19.1883 38.5217C20.3761 37.3339 21.987 36.6667 23.6667 36.6667H30V43C30 44.6797 29.3327 46.2906 28.145 47.4783C26.9573 48.6661 25.3464 49.3333 23.6667 49.3333C21.987 49.3333 20.3761 48.6661 19.1883 47.4783C18.0006 46.2906 17.3333 44.6797 17.3333 43V43Z" fill="#0ACF83"/>
<path d="M30 11.3333V24H36.3333C38.013 24 39.6239 23.3327 40.8117 22.145C41.9994 20.9573 42.6667 19.3464 42.6667 17.6667C42.6667 15.987 41.9994 14.3761 40.8117 13.1883C39.6239 12.0006 38.013 11.3333 36.3333 11.3333H30Z" fill="#FF7262"/>
<path d="M17.3333 17.6667C17.3333 19.3464 18.0006 20.9573 19.1883 22.145C20.3761 23.3327 21.987 24 23.6667 24H30V11.3333H23.6667C21.987 11.3333 20.3761 12.0006 19.1883 13.1883C18.0006 14.3761 17.3333 15.987 17.3333 17.6667V17.6667Z" fill="#F24E1E"/>
<path d="M17.3333 30.3333C17.3333 32.013 18.0006 33.6239 19.1883 34.8117C20.3761 35.9994 21.987 36.6667 23.6667 36.6667H30V24H23.6667C21.987 24 20.3761 24.6673 19.1883 25.855C18.0006 27.0427 17.3333 28.6536 17.3333 30.3333V30.3333Z" fill="#A259FF"/>
</g>
<defs>
<clipPath id="clip0_7_42">
<rect width="25.3333" height="38" fill="white" transform="translate(17.3333 11.3333)"/>
</clipPath>
</defs>
</svg>
