<?xml version="1.0" encoding="utf-8"?>
<!-- Generator: Adobe Illustrator 19.0.0, SVG Export Plug-In . SVG Version: 6.00 Build 0)  -->
<svg version="1.1" id="Camada_1" xmlns="http://www.w3.org/2000/svg" xmlns:xlink="http://www.w3.org/1999/xlink" x="0px" y="0px"
	 viewBox="0 0 384 384" style="enable-background:new 0 0 384 384;" xml:space="preserve">
<style type="text/css">
	.st0{fill:#FF502E;}
	.st1{fill:#FFFFFF;}
</style>
<rect id="XMLID_1_" class="st0" width="384" height="384"/>
<g id="XMLID_5_">
	<path id="XMLID_20_" class="st1" d="M136,86c0.8,0.7,1.2,1.1,1.5,1.4c10.7,10.7,21.4,21.4,32.1,32c0.9,0.9,1.1,1.6,0.7,2.9
		c-3.7,11.1,1.3,23.2,11.7,28.5c0.5,0.3,1,0.5,1.6,0.8c0,0.6,0,1.2,0,1.8c0,26.7,0,53.5,0,80.2c0,1.4-0.4,2-1.6,2.6
		c-8.8,4.4-13.8,13.7-12.9,23.4c1.1,10.8,9.5,19.5,20.3,21.1c12.4,1.8,24.6-6.8,26.6-19.8c1.5-9.8-3.3-19.3-11.4-24
		c-0.4-0.2-0.8-0.5-1.2-0.8c0-27.5,0-54.9,0-82.2c10.3,10.3,20.6,20.6,30.9,31c-0.4,1.4-0.9,3.1-1.1,4.8c-2.3,13.7,7.5,25.5,20,27.3
		c12.7,1.8,24.8-7.1,26.7-20c1.8-12.6-6.9-24.7-19.5-26.7c-3.5-0.6-6.9-0.4-10.3,0.6c-0.9,0.3-1.5,0.1-2.2-0.6
		c-10.6-10.6-21.2-21.2-31.8-31.8c-0.3-0.3-0.6-0.6-0.9-0.9c0.3-1.4,0.6-2.9,0.9-4.3c1.7-10.4-4.1-21-14.1-25.2
		c-4.9-2.1-10-2.4-15.1-1.1c-1.2,0.3-1.9,0.1-2.8-0.8c-10.8-10.9-21.7-21.8-32.6-32.6c-0.4-0.4-0.7-0.8-1.1-1.2
		c0.5-0.5,0.9-1,1.4-1.4c8.6-8.6,17.3-17.1,25.8-25.8c7.8-8,20.6-8,28.5,0c37,37.1,74,74.1,111.1,111.1c7.4,7.4,14.7,14.7,22.1,22.1
		c4,4,5.9,8.8,5.9,14.3c-0.1,4.8-1.8,9-5,12.7c-0.4,0.4-0.8,0.8-1.2,1.3c-44.1,44.1-88.1,88.1-132.2,132.2c-2.1,2.1-4.5,3.9-7.3,4.9
		c-7.6,2.7-14.4,1.3-20.4-4c-0.6-0.5-1.1-1.1-1.7-1.7c-43.8-43.8-87.6-87.5-131.3-131.3c-1.2-1.2-2.4-2.5-3.4-3.9
		c-5.3-7.6-4.5-17.9,1.8-24.6c2.3-2.4,4.6-4.6,6.9-6.9c27.8-27.8,55.6-55.6,83.4-83.4C135.1,87.4,135.5,86.7,136,86z"/>
</g>
</svg>
