<?xml version="1.0" encoding="utf-8"?>
<!-- Generator: Adobe Illustrator 19.0.0, SVG Export Plug-In . SVG Version: 6.00 Build 0)  -->
<svg version="1.1" id="Camada_1" xmlns="http://www.w3.org/2000/svg" xmlns:xlink="http://www.w3.org/1999/xlink" x="0px" y="0px"
	 viewBox="0 0 384 384" style="enable-background:new 0 0 384 384;" xml:space="preserve">
<style type="text/css">
	.st0{fill:#662D91;}
	.st1{fill:#FFFFFF;}
</style>
<rect id="XMLID_1_" class="st0" width="384" height="384"/>
<g id="XMLID_2_">
	<path id="XMLID_16_" class="st1" d="M43.6,184.2c0.7-5.4,1.4-10.9,2.3-16.3c3.4-21.2,11.5-40.5,23.7-58.2
		c18.3-26.7,43-45.4,73.4-56.3c20.7-7.4,42-9.4,63.9-7.4c27.2,2.5,51.7,12.2,73.5,28.4c26.6,19.8,44.6,45.7,54,77.4
		c6.1,20.4,7.4,41.2,4.5,62.2c-5.8,41.4-26.3,74.2-59.3,99.4c-12,9.1-25.4,15.7-39.6,20.5c-6.5,2.2-11-0.9-11-7.8
		c-0.1-12.8,0-25.7,0-38.5c0-6.4-0.4-12.8-3.2-18.7c-1.6-3.4-3.9-6.6-5.9-9.9c5.4-1,11.3-1.8,17-3.2c15.1-3.9,28.6-10.6,37.8-23.9
		c6.7-9.6,9.8-20.7,11.1-32.2c1-8.7,1.3-17.5-0.3-26.2c-1.9-9.7-6.1-18.3-12.5-25.7c-1.2-1.3-1.4-2.4-0.8-4.1
		c4.3-12.2,2.6-24.1-1.9-35.9c-0.3-0.7-1.5-1.4-2.4-1.5c-5.2-0.7-10,0.7-14.6,2.9c-7.5,3.5-14.7,7.6-22.1,11.3
		c-1.3,0.7-3.2,1.1-4.5,0.7c-23.1-5.8-46.2-5.8-69.3,0c-1.4,0.3-3.3,0-4.5-0.8c-9.4-6-19.4-10.8-30.2-13.6c-0.2,0-0.4-0.1-0.6-0.2
		c-6.9-1.5-8.1-0.7-10.1,6.1c-3.1,10.5-3.6,21,0.1,31.6c0.3,0.9,0,2.3-0.6,3c-12.4,14.1-15.3,30.9-13.6,49c1,10.6,3.5,20.7,8.2,30.2
		c6.7,13.4,18,21.6,31.7,26.3c8.1,2.8,16.8,4,25.3,5.9c0.4,0.1,0.9,0.1,1,0.2c-2.2,3.9-4.4,7.8-6.4,11.8c-0.7,1.3-1.2,2.9-1.3,4.4
		c-0.1,3.1-1.8,4.5-4.6,5.3c-9.4,2.5-18.7,4.2-27.7-1.3c-4.7-2.9-8.2-6.9-11-11.7c-4.3-7.3-10.3-12.6-18.4-15
		c-3-0.9-6.4-0.6-9.6-0.5c-2,0.1-2.6,1.7-1.3,3.4c1.3,1.6,2.6,3.5,4.4,4.5c8,4.6,12.4,11.9,16,20c2,4.6,4,9.2,7.8,12.7
		c6.2,5.6,13.8,7.7,21.8,8.1c7,0.3,14,0.1,21.4,0.1c0,4.2,0,9.1,0,14c0,3.8,0.1,7.5,0.1,11.3c0,6.9-4.6,10.3-11.2,8.1
		c-21.9-7.5-41.2-19.2-57.4-35.8c-15.7-16.1-27.7-34.6-35.1-55.9c-4.2-12.1-6.6-24.5-7.6-37.3c-0.1-1.1-0.3-2.3-0.5-3.4
		C43.6,195.7,43.6,189.9,43.6,184.2z"/>
</g>
</svg>
