<svg width="40" height="39" viewBox="0 0 40 39" fill="none" xmlns="http://www.w3.org/2000/svg">
<path fill-rule="evenodd" clip-rule="evenodd" d="M20 0C8.95014 0 0 8.95014 0 20C0 28.8452 5.72179 36.3255 13.6746 38.9764C14.6719 39.1339 15.0656 38.5565 15.0656 38.0315C15.0656 37.5591 15.0394 35.9843 15.0394 34.3045C10.0263 35.2231 8.71392 33.0709 8.32022 31.9686C8.084 31.3911 7.11287 29.6063 6.27298 29.1339C5.56431 28.7665 4.56693 27.8215 6.24673 27.7953C7.82154 27.769 8.95014 29.2389 9.3176 29.8425C11.1287 32.8609 13.9896 32.0211 15.1444 31.4961C15.3281 30.21 15.8531 29.3177 16.4305 28.819C11.9947 28.3202 7.32284 26.588 7.32284 18.9502C7.32284 16.7716 8.11024 14.9606 9.37009 13.5696C9.16011 13.0709 8.4777 11.0237 9.58007 8.26773C9.58007 8.26773 11.2599 7.74279 15.0919 10.315C16.6929 9.86878 18.399 9.63256 20.0787 9.63256C21.7849 9.63256 23.4646 9.86878 25.0656 10.315C28.8977 7.71655 30.5512 8.26773 30.5512 8.26773C31.6536 11.0237 30.9449 13.0709 30.7612 13.5696C32.0473 14.9606 32.8084 16.7455 32.8084 18.9502C32.8084 26.6142 28.1365 28.3202 23.6746 28.819C24.4094 29.4489 25.0394 30.6299 25.0394 32.5197C25.0394 35.1969 25.0131 37.3491 25.0131 38.0053C25.0131 38.5302 25.3806 39.1602 26.378 38.9502C34.5145 36.1943 40 28.5565 40 19.9738C40 8.95014 31.0499 0 20 0Z" fill="white"/>
</svg>
