<svg width="150" height="37" viewBox="0 0 150 37" fill="none" xmlns="http://www.w3.org/2000/svg">
<path d="M91.6033 28.5093H91.5535C91.5784 28.5093 91.5784 28.5342 91.6033 28.5342H91.6282L91.6033 28.5093ZM91.6033 28.5342C91.4041 28.5342 90.8813 28.6338 90.3335 28.6338C88.6155 28.6338 88.0179 27.8371 88.0179 26.7913V19.8694H91.5286C91.7278 19.8694 91.8772 19.6951 91.8772 19.4461V15.6864C91.8772 15.4872 91.7029 15.3129 91.5286 15.3129H88.0179V10.6319C88.0179 10.4576 87.8934 10.358 87.6942 10.358H82.9136C82.7144 10.358 82.6148 10.4825 82.6148 10.6319V15.4374C82.6148 15.4374 80.1996 16.0349 80.0502 16.0598C79.8759 16.1096 79.7763 16.259 79.7763 16.4333V19.4461C79.7763 19.6951 79.9506 19.8694 80.1498 19.8694H82.5899V27.1399C82.5899 32.543 86.3496 33.0907 88.9142 33.0907C90.0845 33.0907 91.5037 32.7173 91.7278 32.5928C91.8523 32.543 91.927 32.3936 91.927 32.2442V28.9326C91.927 28.7334 91.8025 28.584 91.6033 28.5342ZM144.041 23.6789C144.041 19.6702 142.422 19.1473 140.729 19.3216C139.409 19.3963 138.339 20.0686 138.339 20.0686V27.862C138.339 27.862 139.409 28.6089 141.028 28.6587C143.294 28.7085 144.041 27.8869 144.041 23.6789ZM149.419 23.3304C149.419 30.9245 146.954 33.0907 142.671 33.0907C139.036 33.0907 137.094 31.2482 137.094 31.2482C137.094 31.2482 137.019 32.2691 136.895 32.3936C136.82 32.5181 136.72 32.5679 136.571 32.5679H133.309C133.085 32.5679 132.886 32.3936 132.886 32.1944L132.936 7.61909C132.936 7.4199 133.11 7.24561 133.309 7.24561H138.015C138.214 7.24561 138.389 7.4199 138.389 7.61909V15.9603C138.389 15.9603 140.206 14.79 142.87 14.79L142.845 14.7402C145.485 14.7402 149.419 15.7362 149.419 23.3304ZM130.122 15.3378H125.466C125.217 15.3378 125.092 15.5121 125.092 15.7611V27.7873C125.092 27.7873 123.872 28.6338 122.204 28.6338C120.561 28.6338 120.063 27.8869 120.063 26.2186V15.7113C120.063 15.5121 119.889 15.3378 119.689 15.3378H114.959C114.759 15.3378 114.585 15.5121 114.585 15.7113V27.0403C114.585 31.8956 117.299 33.1156 121.034 33.1156C124.121 33.1156 126.611 31.4225 126.611 31.4225C126.611 31.4225 126.736 32.294 126.786 32.4185C126.835 32.5181 126.985 32.6177 127.134 32.6177H130.097C130.346 32.6177 130.471 32.4434 130.471 32.2442L130.52 15.7113C130.545 15.5121 130.346 15.3378 130.122 15.3378ZM77.6848 15.3129H72.9789C72.7797 15.3129 72.6054 15.5121 72.6054 15.7611V31.9952C72.6054 32.4434 72.9042 32.5928 73.2777 32.5928H77.5354C77.9836 32.5928 78.0832 32.3936 78.0832 31.9952V15.6864C78.0583 15.4872 77.884 15.3129 77.6848 15.3129ZM75.3443 7.81828C73.6512 7.81828 72.2817 9.16283 72.2817 10.8809C72.2817 12.574 73.6263 13.9434 75.3443 13.9434C77.0125 13.9434 78.3571 12.5989 78.3571 10.8809C78.3571 9.18773 77.0125 7.81828 75.3443 7.81828ZM111.846 7.27051H107.165C106.966 7.27051 106.792 7.4448 106.792 7.64399V16.6823H99.4714V7.64399C99.4714 7.4448 99.2971 7.27051 99.0979 7.27051H94.392C94.1928 7.27051 94.0185 7.4448 94.0185 7.64399V32.2193C94.0185 32.4185 94.2177 32.5928 94.392 32.5928H99.0979C99.2971 32.5928 99.4714 32.4185 99.4714 32.2193V21.7119H106.792L106.742 32.2193C106.742 32.4185 106.916 32.5928 107.115 32.5928H111.821C112.02 32.5928 112.195 32.4185 112.195 32.2193V7.64399C112.22 7.4448 112.045 7.27051 111.846 7.27051ZM70.0906 18.1514V30.8498C70.0906 30.9245 70.0657 31.0988 69.9661 31.1237C69.9661 31.1237 67.2023 33.0907 62.6458 33.0907C57.1431 33.0907 50.5947 31.3727 50.5947 19.9939C50.5947 8.61506 56.2966 6.27455 61.874 6.29945C66.7044 6.29945 68.6465 7.395 68.9453 7.59419C69.02 7.71869 69.0698 7.79339 69.0698 7.89298L68.1734 11.8519C68.1734 12.0511 67.9742 12.3001 67.7252 12.2254C66.9285 11.9764 65.7333 11.5033 62.9197 11.5033C59.6579 11.5033 56.1721 12.4246 56.1721 19.7698C56.1721 27.0901 59.4837 27.9616 61.874 27.9616C63.9157 27.9616 64.6377 27.7126 64.6377 27.7126V22.6332H61.376C61.127 22.6332 60.9527 22.4589 60.9527 22.2597V18.1763C60.9527 17.9771 61.127 17.8028 61.376 17.8028H69.6673C69.9163 17.7779 70.0906 17.9522 70.0906 18.1514Z" fill="white"/>
<path fill-rule="evenodd" clip-rule="evenodd" d="M18.973 0C8.49055 0 0 8.49055 0 18.973C0 27.364 5.42798 34.4602 12.9724 36.975C13.9185 37.1244 14.292 36.5766 14.292 36.0786C14.292 35.6304 14.2671 34.1365 14.2671 32.543C9.51141 33.4144 8.26646 31.3727 7.89298 30.327C7.66889 29.7792 6.74762 28.086 5.95086 27.6379C5.27858 27.2893 4.33242 26.3929 5.92596 26.368C7.4199 26.3431 8.49055 27.7375 8.83914 28.3101C10.5572 31.1735 13.2712 30.3768 14.3667 29.8788C14.541 28.6587 15.039 27.8122 15.5868 27.3391C11.3788 26.866 6.94681 25.2227 6.94681 17.9771C6.94681 15.9104 7.69378 14.1924 8.88894 12.8728C8.68974 12.3997 8.04237 10.4576 9.08813 7.84318C9.08813 7.84318 10.6817 7.3452 14.3169 9.7853C15.8357 9.36202 17.4542 9.13793 19.0477 9.13793C20.6662 9.13793 22.2597 9.36202 23.7785 9.7853C27.4138 7.3203 28.9824 7.84318 28.9824 7.84318C30.0282 10.4576 29.3559 12.3997 29.1816 12.8728C30.4017 14.1924 31.1237 15.8856 31.1237 17.9771C31.1237 25.2476 26.6917 26.866 22.4589 27.3391C23.156 27.9367 23.7536 29.0571 23.7536 30.8498C23.7536 33.3895 23.7287 35.4312 23.7287 36.0537C23.7287 36.5517 24.0773 37.1493 25.0235 36.9501C32.7422 34.3357 37.946 27.0901 37.946 18.9481C37.946 8.49055 29.4555 0 18.973 0Z" fill="white"/>
</svg>
