<?xml version="1.0" encoding="utf-8"?>
<!-- Generator: Adobe Illustrator 19.0.0, SVG Export Plug-In . SVG Version: 6.00 Build 0)  -->
<svg version="1.1" id="Camada_1" xmlns="http://www.w3.org/2000/svg" xmlns:xlink="http://www.w3.org/1999/xlink" x="0px" y="0px"
	 viewBox="0 0 384 384" style="enable-background:new 0 0 384 384;" xml:space="preserve">
<style type="text/css">
	.st0{fill:#E44D26;}
	.st1{fill:#FEFDFD;}
</style>
<rect id="XMLID_2_" class="st0" width="384" height="384"/>
<g id="XMLID_10_">
	<path id="XMLID_7_" class="st1" d="M84.4,100.4c71.9,0,143.3,0,215.1,0c-6.5,73.1-13,146-19.6,219.3c-8,2.3-16.1,4.6-24.2,6.8
		c-20.3,5.6-40.5,11.2-60.8,16.8c-1.8,0.5-3.5,0.8-5.3,0.3c-28-7.8-56.1-15.6-84.1-23.4c-0.5-0.1-0.9-0.4-1.6-0.7
		C97.5,246.6,91,173.7,84.4,100.4z M224.8,226.5c-1,11.7-1.9,22.9-2.8,34.3c-9.8,2.8-19.5,5.6-29.3,8.4c-0.5,0.1-1,0.1-1.5,0
		c-9.7-2.8-19.4-5.6-29.2-8.4c-0.8-7.1-1.6-13.9-2.3-20.6c-9.3,0-18.2,0-27.2,0c1.4,14.2,2.8,28.1,4.1,42c0.6,0.2,1,0.5,1.5,0.6
		c17.4,4.7,34.9,9.5,52.3,14.2c1.4,0.4,2.8,0.2,4.2-0.2c8.4-2.3,16.8-4.5,25.2-6.8c9-2.5,18-5,27.2-7.5c2.3-27.8,4.6-55.4,6.9-83.4
		c-32.7,0-65,0-97.4,0c-1-9.1-1.9-17.9-2.9-27c34.7,0,68.9,0,103.4,0c0.7-9.4,1.4-18.5,2.2-27.7c-45.4,0-90.1,0-135.4,0
		c2.5,27.4,5,54.5,7.6,82.1C162.7,226.5,193.5,226.5,224.8,226.5z"/>
	<path id="XMLID_6_" class="st1" d="M239.7,80.9c-4.2,0-8.3,0-12.8,0c0-6.2,0-12.5,0-18.7c-0.3-0.1-0.6-0.2-0.9-0.3
		c-3,4.4-5.9,8.9-9.1,13.6c-3.1-4.7-6-9.1-9.4-14.3c0,7,0,13.2,0,19.7c-4.6,0-8.7,0-13.1,0c0-13.4,0-26.8,0-40.6c4.1,0,8.2,0,12.3,0
		c1.6,0,2.2,1.1,2.8,2.2c2.4,3.9,4.8,7.9,7.5,12.2c2.6-4.3,5.1-8.2,7.5-12.3c0.8-1.3,1.5-2.3,3.2-2.2c3.8,0.1,7.7,0,11.8,0
		C239.7,53.8,239.7,67.1,239.7,80.9z"/>
	<path id="XMLID_5_" class="st1" d="M117.9,67.7c0,4.5,0,8.7,0,13.1c-4.5,0-8.7,0-13.1,0c0-13.4,0-26.8,0-40.3c4.3,0,8.5,0,12.9,0
		c0,4.4,0,8.6,0,13.1c4.3,0,8.4,0,12.9,0c0-4.2,0-8.5,0-13c4.6,0,8.8,0,13.2,0c0,13.3,0,26.6,0,40.2c-4.1,0-8.3,0-12.9,0
		c0-4.2,0-8.3,0-12.9C126.5,67.2,122.4,67.5,117.9,67.7z"/>
	<path id="XMLID_4_" class="st1" d="M162.6,80.8c0-8.9,0-17.5,0-26.4c-4.1-1.1-8.1,0.1-12.1-0.8c0-4.4,0-8.7,0-13.2
		c12.5,0,24.8,0,37.3,0c0.6,4.4,0.2,8.7,0.2,13.3c-4,0-7.8,0-12,0c0,9.1,0,17.9,0,27C171.5,80.8,167.3,80.8,162.6,80.8z"/>
	<path id="XMLID_3_" class="st1" d="M279.9,67.7c0,4.8,0,8.8,0,13.1c-10.9,0-21.7,0-32.7,0c0-13.4,0-26.7,0-40.3c4.3,0,8.6,0,13.3,0
		c0,8.9,0,17.8,0,27.1C267.2,67.7,273.4,67.7,279.9,67.7z"/>
</g>
</svg>
