<?xml version="1.0" encoding="utf-8"?>
<!-- Generator: Adobe Illustrator 19.0.0, SVG Export Plug-In . SVG Version: 6.00 Build 0)  -->
<svg version="1.1" id="Camada_1" xmlns="http://www.w3.org/2000/svg" xmlns:xlink="http://www.w3.org/1999/xlink" x="0px" y="0px"
	 viewBox="0 0 384 384" style="enable-background:new 0 0 384 384;" xml:space="preserve">
<style type="text/css">
	.st0{fill:#FFFFFF;}
	.st1{fill:#0073BB;}
	.st2{fill:#E82D2E;}
</style>
<rect id="XMLID_2_" class="st0" width="384" height="384"/>
<g id="XMLID_1_">
	<path id="XMLID_57_" class="st1" d="M80,313.3c0.2,0.2,0.2,0,0.2-0.1c0.9-2.2,2.6-3.7,4.5-5c3.7-2.7,7.8-4.6,12-6.2
		c6.5-2.5,13.2-4.3,20.2-5c2.6-0.3,5.3-0.3,7.9,0.1c1.2,0.2,2.4,0.6,3.5,1.3c-1.2,0.1-2.5,0.1-3.7,0.3c-7.4,0.8-14.3,2.9-20.9,6.1
		c-1.1,0.5-2.1,1.2-3,2c-0.4,0.4-0.8,0.7-1.1,1.2c-0.6,1-0.5,1.9,0.3,2.8c0.7,0.7,1.6,1.2,2.5,1.6c4.5,1.9,9.2,3.1,13.9,4
		c7.3,1.5,14.7,2.3,22.2,3c10,0.9,20.1,1.3,30.2,1.5c6.9,0.1,13.7,0.1,20.6,0c11.4-0.2,22.8-0.6,34.2-1.5c9.3-0.7,18.6-1.5,27.9-2.8
		c8-1.1,15.9-2.4,23.6-4.6c2.9-0.9,5.8-1.9,8.4-3.6c0.8-0.6,1.6-1.2,2.2-2c1.5-1.9,1.6-3.8,0.2-5.8c-0.2-0.3-0.4-0.5-0.6-0.8
		c0.2-0.2,0.3,0,0.5,0c1.5,0.7,2.9,1.6,3.9,2.9c1.2,1.4,1.4,3.1,0.4,4.7c-1.1,2-2.9,3.3-4.8,4.5c-4.1,2.5-8.5,4.2-13.1,5.7
		c-8,2.6-16.1,4.4-24.4,5.9c-11.7,2.1-23.5,3.5-35.4,4.4c-9.1,0.7-18.3,1-27.5,1.2c-11.9,0.2-23.9-0.1-35.8-0.8
		c-7.8-0.4-15.5-1-23.2-1.8c-11-1.1-22-2.5-32.9-4.4c-3.1-0.5-6.1-1.3-9-2.7c-1.6-0.8-3.1-1.7-3.8-3.5c0-0.1-0.1-0.2-0.2-0.1
		C80,315,80,314.2,80,313.3z"/>
	<path id="XMLID_56_" class="st1" d="M180.9,343.8c0-0.4-0.3-0.3-0.5-0.3c-4.2-0.1-8.4-0.3-12.7-0.5c-11.8-0.7-23.6-1.6-35.1-4.1
		c-3.6-0.8-7.1-1.7-10.4-3.2c-0.5-0.2-0.9-0.5-1.4-0.7c0-0.1,0-0.1,0.1-0.2c0.4,0.1,0.8,0.1,1.2,0.2c6.9,1.1,13.8,1.9,20.7,2.5
		c8.9,0.8,17.7,1.2,26.6,1.5c12.8,0.3,25.6,0.2,38.5-0.5c9.2-0.5,18.4-1.2,27.5-2.3c14.2-1.7,28.4-4,42.2-7.8
		c6.5-1.8,12.9-4,18.9-7.2c2.2-1.2,4.3-2.5,6.1-4.2c0.5-0.5,1-1.1,1.5-1.7c0,0.4,0,0.9,0,1.3c-0.3-0.1-0.3,0.2-0.3,0.4
		c-0.7,2.7-2.1,4.9-4.1,6.9c-2.9,3-6.5,5-10.2,6.7c-6.6,3.1-13.7,5.1-20.8,6.6c-7.9,1.8-15.8,3-23.8,3.9c-7.8,0.9-15.6,1.5-23.5,2
		c-4.4,0.3-8.8,0.4-13.2,0.5c-0.2,0-0.6-0.2-0.6,0.3C198.7,343.8,189.8,343.8,180.9,343.8z"/>
	<path id="XMLID_55_" class="st1" d="M304,227.9c-0.4-0.1-0.3,0.2-0.3,0.3c-1,7-4.7,12.5-9.8,17.2c-5.5,5.1-11.9,8.8-18.6,11.8
		c-6.1,2.7-12.4,4.8-18.8,6.6c-0.2,0.1-0.4,0.1-0.8,0.2c0.7-0.7,1-1.4,1.8-1.8c7.1-3.7,13.9-7.9,20.1-13.1
		c4.4-3.8,8.4-7.9,11.1-13.1c1.9-3.6,3-7.4,2.7-11.5c-0.6-6.5-4.1-11.1-9.7-14.1c-4.8-2.6-9.8-2.9-15-1.4c-1.3,0.4-2.6,0.7-3.9,1.1
		c0.1-0.4,0.4-0.6,0.6-0.9c1.3-1.5,3-2.4,4.9-3c6.8-2.2,13.6-2.5,20.5-0.1c6.3,2.2,11.1,6.2,13.8,12.5c0.7,1.6,1.1,3.2,1.3,4.9
		c0,0.3,0,0.3,0.3,0.5C304,225.1,304,226.5,304,227.9z"/>
	<path id="XMLID_53_" class="st2" d="M192.2,206.2c-0.5-0.1-0.7-0.6-1.1-0.9c-7.6-6.9-15.1-13.9-21.9-21.5
		c-4.7-5.2-9-10.7-12.3-16.8c-2.2-4-3.8-8.2-4.4-12.7c-0.8-6.1,0.5-11.7,3.7-16.9c2.7-4.3,6.1-8.2,9.7-11.7
		c7.2-7.2,15.4-13.2,23.3-19.5c6-4.8,12-9.6,17.5-15.1c4.6-4.7,8.8-9.7,12-15.5c4.3-7.8,6.1-16.2,5.5-25.1c-0.2-3.2-0.7-6.3-1.5-9.4
		c0-0.2-0.2-0.4,0-0.7c0.5,0.6,1,1.2,1.4,1.7c4.2,5.9,6.3,12.4,6.4,19.6c0.2,8.5-2.4,16.2-6.3,23.6c-3.9,7.2-8.9,13.6-14.6,19.5
		c-5.6,5.9-11.9,11.3-18.3,16.4c-6,4.8-11.6,10.1-16.1,16.4c-3.4,4.7-6,9.9-7,15.7c-0.8,5-0.3,9.9,1.4,14.8c2.1,6.2,5.5,11.6,9.1,17
		c3.2,4.8,6.7,9.4,9.8,14.3c1.2,2,2.4,4,3.4,6.2C192,205.6,192.2,205.9,192.2,206.2L192.2,206.2z"/>
	<path id="XMLID_52_" class="st2" d="M260,102.3c-6.4,3.7-12.7,7.5-18.8,11.6c-5.8,3.8-11.5,7.9-16.8,12.4
		c-3.7,3.2-7.3,6.6-10.1,10.7c-1.7,2.4-3.1,5-3.8,7.8c-1.2,4.4-0.5,8.6,1.3,12.7c1.7,3.7,3.9,7.1,6.3,10.4c1.8,2.6,3.8,5.1,5.5,7.8
		c2.4,3.8,3.7,8,3.4,12.6c-0.3,4.1-1.8,7.8-4,11.2c-3,4.7-7,8.5-11.4,11.9c-2.4,1.9-5,3.6-7.7,5.2c-0.2,0.1-0.5,0.3-0.8,0.3
		c0.4-0.4,0.8-0.8,1.1-1.1c2.9-3,5.3-6.4,6.6-10.4c2.2-6.4,1.1-12.3-2.8-17.8c-1.6-2.3-3.5-4.3-5.2-6.6c-3.7-4.9-6.8-10.1-8.5-16
		c-2.8-9.4-1.4-18.2,3.9-26.4c3.3-5.1,7.6-9.3,12.3-13c8.5-6.6,17.9-11.5,27.8-15.7c6.7-2.8,13.6-5.2,20.6-7.2
		C259.2,102.4,259.6,102.1,260,102.3L260,102.3z"/>
	<path id="XMLID_51_" class="st1" d="M151.5,275.1c-0.6,0.6-1.3,1.1-1.8,1.7c-1.4,1.7-1.2,3.3,0.7,4.4c2,1.2,4.3,1.7,6.5,2.1
		c5.6,0.9,11.3,1.4,17,1.8c4.6,0.3,9.3,0.5,13.9,0.4c6.9-0.1,13.8-0.8,20.7-1.8c4.8-0.7,9.5-1.5,14.2-2.4c0.3-0.1,0.6-0.1,0.9,0.1
		c5.1,3,10.4,5.6,15.8,7.7c0.1,0,0.2,0.1,0.3,0.2c-0.1,0.3-0.4,0.3-0.7,0.4c-8.4,3.5-17.1,6-26.1,7.7c-7.9,1.5-15.8,2.3-23.8,2.4
		c-10.5,0.2-20.8-0.6-31.1-2.9c-4.9-1.1-9.7-2.6-14.1-5c-2.2-1.2-4.2-2.5-5.6-4.6c-1.2-1.9-1.1-3.8,0.2-5.6c1.4-1.9,3.4-3,5.5-4
		C146.5,276.6,149,275.8,151.5,275.1z"/>
	<path id="XMLID_50_" class="st1" d="M256.3,218.4c0,0.3-0.3,0.3-0.5,0.4c-4.3,2-8.5,4.1-12.4,6.7c-0.3,0.2-0.6,0.3-0.9,0.3
		c-8.4,2.1-16.9,3.6-25.4,4.8c-9.3,1.3-18.7,2.1-28.1,2.6c-8.7,0.5-17.4,0.7-26.2,0.6c-10.3-0.1-20.5-0.5-30.7-1.5
		c-6.4-0.7-12.9-1.5-19.1-3.2c-2-0.5-3.9-1.2-5.7-2.2c-0.7-0.4-1.4-0.9-2-1.5c-1-1.1-1.1-2.3-0.2-3.5c0.9-1.2,2-1.9,3.3-2.6
		c4.6-2.4,9.4-4.4,14.2-6.1c9-3.1,18.2-5.2,27.7-5.9c2.2-0.2,4.4-0.2,6.6-0.2c0.1,0,0.3,0,0.4,0.1c-1,0.3-1.9,0.5-2.9,0.8
		c-6.8,1.8-13.6,3.7-20.1,6.4c-2,0.8-4,1.8-5.8,3c-0.7,0.5-1.4,1-1.9,1.8c-0.6,0.9-0.5,1.7,0.3,2.4c0.7,0.7,1.6,1.1,2.6,1.4
		c3,1.1,6.1,1.5,9.2,1.9c7.3,0.9,14.7,1.1,22,1.2c10.8,0.1,21.6-0.2,32.5-0.8c10.8-0.6,21.5-1.4,32.2-2.7
		c10.2-1.2,20.3-2.6,30.4-4.4C255.9,218.4,256.1,218.4,256.3,218.4L256.3,218.4z"/>
	<path id="XMLID_49_" class="st1" d="M245.1,257.1c-1.6,0.4-3.3,0.9-4.9,1.3c-10.3,2.7-20.7,4.7-31.3,6c-7.2,0.9-14.4,1.4-21.6,1.7
		c-7.9,0.2-15.9,0.1-23.8-0.5c-7.9-0.7-15.8-1.7-23.5-4.1c-2.9-0.9-5.7-2-8.3-3.8c-1-0.7-2-1.6-2.6-2.7c-0.8-1.3-0.8-2.7-0.2-4
		c0.6-1.2,1.5-2.1,2.5-2.9c3.8-3,8.3-4.6,12.9-6.3c-0.1,0.4-0.3,0.5-0.5,0.7c-1.1,1.1-2.2,2.2-2.8,3.6c-0.8,1.8-0.4,3.4,1.2,4.6
		c1.6,1.1,3.4,1.6,5.2,2c3.2,0.7,6.4,0.9,9.6,1.2c8.4,0.8,16.9,1.3,25.4,1.2c9.1-0.1,18.1-0.7,27.1-1.9c7.6-1,15.2-2.2,22.7-3.6
		c0.4-0.1,0.6-0.1,0.9,0.2c3.4,3.1,7.3,5.5,11.6,7.1C244.9,256.9,245,256.9,245.1,257.1z"/>
	<path id="XMLID_48_" class="st1" d="M256.3,218.4C256.4,218.4,256.4,218.4,256.3,218.4C256.4,218.4,256.4,218.4,256.3,218.4
		C256.3,218.4,256.3,218.4,256.3,218.4z"/>
	<path id="XMLID_47_" class="st2" d="M260,102.3C260,102.3,260,102.3,260,102.3C260,102.3,260,102.3,260,102.3
		C260,102.3,260,102.3,260,102.3z"/>
	<path id="XMLID_46_" class="st2" d="M192.1,206.3c0,0,0.1,0,0.1,0C192.1,206.4,192.2,206.3,192.1,206.3
		C192.2,206.2,192.1,206.3,192.1,206.3z"/>
</g>
</svg>
