<?xml version="1.0" encoding="utf-8"?>
<!-- Generator: Adobe Illustrator 19.0.0, SVG Export Plug-In . SVG Version: 6.00 Build 0)  -->
<svg version="1.1" id="Camada_1" xmlns="http://www.w3.org/2000/svg" xmlns:xlink="http://www.w3.org/1999/xlink" x="0px" y="0px"
	 viewBox="0 0 384 384" style="enable-background:new 0 0 384 384;" xml:space="preserve">
<style type="text/css">
	.st0{fill:#F6DE1E;}
	.st1{fill:#010100;}
</style>
<g id="XMLID_1_">
	<g id="XMLID_3_">
		<path id="XMLID_24_" class="st0" d="M192,384c-63.3,0-126.5,0-189.8,0c-1.8,0-2.2-0.4-2.2-2.2C0,255.3,0,128.7,0,2.2
			C0,0.4,0.4,0,2.2,0c126.5,0,253.1,0,379.6,0c1.8,0,2.2,0.4,2.2,2.2c0,126.5,0,253.1,0,379.6c0,1.8-0.4,2.2-2.2,2.2
			C318.5,383.9,255.3,384,192,384z M294.2,353.9c3.9,0,7.8-0.1,11.7-0.7c2.6-0.4,5.2-0.8,7.8-1.4c21.7-5,38.6-19.4,40.3-44.1
			c1.2-17.7-3.9-33-18.4-44.3c-4.9-3.8-10.1-7-15.6-9.9c-8.7-4.6-17.9-8.1-26.8-12.1c-4.8-2.2-9.6-4.4-13.5-8.1
			c-4.7-4.6-5.8-10.2-4.2-16.3c1.6-5.9,5.8-9.3,11.6-10.5c9.3-1.9,17.4,0.4,23.6,8c1.4,1.7,2.6,3.6,3.8,5.5c0.6,0.9,0.9,1.3,2,0.6
			c8.5-5.5,17.1-11,25.6-16.4c0.9-0.6,1.2-1,0.6-2.1c-5.4-9.1-12.2-16.8-21.9-21.6c-13.3-6.6-27.3-7.4-41.6-4.8
			c-12.4,2.2-23,7.9-30.6,18.1c-10.3,13.8-11.3,29.2-6.9,45.2c3.6,13.1,12.6,21.9,23.8,28.8c9.8,6,20.5,9.9,30.9,14.6
			c5,2.3,10.1,4.4,14.5,7.9c10.9,8.7,9.1,23.5-3.8,29c-8.7,3.8-17.6,3.5-26.5,0.7c-9.7-3-16.3-9.8-21.6-18.1
			c-0.9-1.4-1.5-1.8-3.1-0.8c-8.5,5.1-17.1,10-25.7,14.9c-1.7,0.9-1.6,1.7-0.8,3.1c5,8.9,11.6,16.4,20.1,22.2
			C263.1,350.4,278.2,353.8,294.2,353.9z M209.2,242.8c0-21.4,0-42.7,0-64.1c0-2-0.5-2.5-2.5-2.5c-10.2,0.1-20.5,0.1-30.7,0
			c-2.5,0-3,0.6-3,3c0.1,39.2,0.1,78.4,0.1,117.6c0,3.6,0,7.2-0.7,10.7c-1.1,5.3-3.2,10-8.5,12.3c-7.2,3-18.7,3.3-25.9-5.4
			c-2.5-3-4.6-6.3-6.5-9.8c-0.6-1-1-1.6-2.3-0.8c-8.8,5.4-17.7,10.8-26.6,16.2c-1,0.6-1.3,1.1-0.7,2.2c5.6,10.9,13.4,19.7,24.5,25.2
			c14.5,7.2,29.8,7.9,45.4,4.6c14.7-3.1,25.8-11.1,32.2-25.1c4.2-9,5.3-18.7,5.3-28.5C209.2,279.9,209.2,261.4,209.2,242.8z"/>
		<path id="XMLID_23_" class="st1" d="M294.2,353.9c-16,0-31.1-3.5-44.5-12.6c-8.5-5.8-15.1-13.3-20.1-22.2
			c-0.8-1.5-0.9-2.2,0.8-3.1c8.6-4.9,17.2-9.9,25.7-14.9c1.6-0.9,2.2-0.6,3.1,0.8c5.3,8.3,11.9,15.1,21.6,18.1
			c8.9,2.7,17.8,3,26.5-0.7c12.8-5.6,14.7-20.3,3.8-29c-4.4-3.5-9.5-5.6-14.5-7.9c-10.4-4.7-21.1-8.6-30.9-14.6
			c-11.2-6.9-20.2-15.8-23.8-28.8c-4.4-16-3.4-31.4,6.9-45.2c7.7-10.2,18.2-15.9,30.6-18.1c14.3-2.6,28.4-1.7,41.6,4.8
			c9.6,4.8,16.4,12.5,21.9,21.6c0.6,1.1,0.3,1.5-0.6,2.1c-8.5,5.5-17.1,10.9-25.6,16.4c-1.1,0.7-1.4,0.3-2-0.6
			c-1.2-1.9-2.4-3.8-3.8-5.5c-6.2-7.6-14.3-9.9-23.6-8c-5.9,1.2-10.1,4.6-11.6,10.5c-1.6,6.1-0.5,11.8,4.2,16.3
			c3.9,3.7,8.7,6,13.5,8.1c8.9,4.1,18.1,7.6,26.8,12.1c5.5,2.9,10.7,6,15.6,9.9c14.4,11.3,19.5,26.6,18.4,44.3
			c-1.7,24.7-18.6,39.1-40.3,44.1c-2.6,0.6-5.2,1-7.8,1.4C302.1,353.7,298.1,353.9,294.2,353.9z"/>
		<path id="XMLID_22_" class="st1" d="M209.2,242.8c0,18.6,0,37.1,0,55.7c0,9.8-1.2,19.5-5.3,28.5c-6.4,13.9-17.5,21.9-32.2,25.1
			c-15.5,3.3-30.9,2.6-45.4-4.6c-11.1-5.5-18.9-14.3-24.5-25.2c-0.6-1.2-0.3-1.6,0.7-2.2c8.9-5.3,17.8-10.7,26.6-16.2
			c1.3-0.8,1.7-0.2,2.3,0.8c1.9,3.4,4,6.7,6.5,9.8c7.2,8.7,18.7,8.4,25.9,5.4c5.3-2.2,7.4-7,8.5-12.3c0.7-3.5,0.7-7.2,0.7-10.7
			c0-39.2,0-78.4-0.1-117.6c0-2.4,0.5-3.1,3-3c10.2,0.2,20.5,0.1,30.7,0c2,0,2.5,0.5,2.5,2.5C209.1,200.1,209.2,221.5,209.2,242.8z"
			/>
	</g>
</g>
</svg>
