<svg width="152" height="37" viewBox="0 0 152 37" fill="none" xmlns="http://www.w3.org/2000/svg">
<path d="M149.562 34.6536C149.656 34.6545 149.748 34.6363 149.834 34.6C149.92 34.5637 149.997 34.5102 150.062 34.4427C150.126 34.3752 150.176 34.2953 150.208 34.2077C150.24 34.1202 150.254 34.027 150.249 33.9339C150.249 33.4236 149.941 33.1797 149.309 33.1797H148.288V35.8518H148.672V34.687H149.144L149.155 34.7012L149.887 35.8518H150.297L149.51 34.6609L149.562 34.6536ZM149.118 34.3859H148.673V33.4826H149.237C149.529 33.4826 149.861 33.5302 149.861 33.9118C149.861 34.3507 149.525 34.3859 149.116 34.3859M0 5.43678H5.66677V26.0783H16.1576V31.3078H0V5.43678ZM18.663 13.7665H24.1069V31.2982H18.663V13.7665ZM21.3849 5.0506C22.0095 5.05071 22.62 5.23602 23.1393 5.5831C23.6585 5.93018 24.0632 6.42343 24.3022 7.0005C24.5411 7.57756 24.6036 8.21252 24.4816 8.82508C24.3597 9.43764 24.0589 10.0003 23.6172 10.4419C23.1755 10.8835 22.6128 11.1842 22.0003 11.306C21.3877 11.4278 20.7527 11.3653 20.1757 11.1262C19.5987 10.8872 19.1055 10.4824 18.7585 9.96309C18.4115 9.44376 18.2263 8.83321 18.2263 8.20863C18.2263 7.79387 18.308 7.38316 18.4668 6.99997C18.6255 6.61679 18.8582 6.26862 19.1515 5.97536C19.4448 5.68211 19.793 5.4495 20.1762 5.29083C20.5594 5.13215 20.9702 5.05052 21.3849 5.0506ZM46.8794 5.43281H52.3234V20.8941L58.4931 13.7586H65.1676L58.0225 21.8751L65.0173 31.3056H58.175L52.3959 22.6395H52.3245V31.3044H46.8806L46.8794 5.43281ZM27.1254 13.7682H32.3533V16.1641H32.4276C32.9497 15.2695 33.7051 14.5335 34.613 14.0347C35.5208 13.5359 36.5471 13.2931 37.5823 13.3321C43.1027 13.3321 44.1189 16.9643 44.1189 21.6829V31.2971H38.675V22.7734C38.675 20.7387 38.6376 18.1234 35.8396 18.1234C33.0099 18.1234 32.5733 20.3389 32.5733 22.6254V31.2948H27.1294L27.1254 13.7682Z" fill="white"/>
<path d="M76.6321 20.4932C76.6425 20.0515 76.5632 19.6123 76.3989 19.2022C76.2346 18.7921 75.9887 18.4197 75.6762 18.1074C75.3637 17.7951 74.9911 17.5495 74.5809 17.3855C74.1707 17.2214 73.7315 17.1424 73.2898 17.1531C72.3386 17.0939 71.4023 17.4109 70.6826 18.0357C69.963 18.6605 69.5177 19.5431 69.4428 20.4932H76.6321ZM81.2436 28.2621C80.3389 29.3591 79.2017 30.2412 77.9141 30.8444C76.6265 31.4477 75.2209 31.7571 73.799 31.7501C68.3551 31.7501 63.9966 28.1163 63.9966 22.4893C63.9966 16.8622 68.3545 13.2301 73.799 13.2301C78.8874 13.2301 82.0783 16.8593 82.0783 22.4893V24.1961H69.4428C69.6001 25.1642 70.1019 26.0428 70.8559 26.67C71.6098 27.2972 72.565 27.6308 73.5455 27.6094C74.3204 27.6046 75.0818 27.406 75.7603 27.0319C76.4388 26.6577 77.013 26.1197 77.4306 25.467L81.2436 28.2621ZM93.4255 18.0043C90.7035 18.0043 89.0703 19.8217 89.0703 22.47C89.0703 25.1182 90.7029 26.9374 93.4255 26.9374C96.148 26.9374 97.7846 25.1227 97.7846 22.47C97.7846 19.8172 96.1508 18.0043 93.4255 18.0043ZM102.796 31.2948H97.7846V28.9698H97.7103C97.0815 29.8155 96.266 30.5046 95.3272 30.9834C94.3885 31.4622 93.3519 31.7178 92.2981 31.7303C87.0674 31.7303 83.6219 27.9553 83.6219 22.6168C83.6219 17.7139 86.671 13.2119 91.6834 13.2119C93.9364 13.2119 96.0408 13.8283 97.2753 15.5369H97.3468V5.4311H102.796L102.796 31.2948ZM139.548 31.305H134.104V22.7796C134.104 20.7466 134.068 18.1296 131.273 18.1296C128.437 18.1296 128.003 20.3446 128.003 22.6316V31.3044H122.559V13.7728H127.786V16.1686H127.859C128.382 15.2744 129.138 14.5387 130.046 14.04C130.954 13.5413 131.98 13.2983 133.015 13.3367C138.533 13.3367 139.55 16.966 139.55 21.6874L139.548 31.305ZM116.417 11.3763C115.792 11.3764 115.181 11.1912 114.662 10.8442C114.142 10.4972 113.737 10.0038 113.498 9.42662C113.259 8.8494 113.196 8.21421 113.318 7.60137C113.44 6.98853 113.74 6.42556 114.182 5.98367C114.624 5.54177 115.187 5.24079 115.799 5.11878C116.412 4.99677 117.047 5.05922 117.625 5.29823C118.202 5.53723 118.696 5.94206 119.043 6.46152C119.39 6.98099 119.575 7.59175 119.576 8.21657C119.576 8.63144 119.494 9.04226 119.335 9.42557C119.177 9.80889 118.944 10.1572 118.651 10.4506C118.357 10.744 118.009 10.9768 117.626 11.1356C117.243 11.2944 116.832 11.3762 116.417 11.3763ZM119.139 31.305H113.689V13.7728H119.139V31.305ZM142.262 0.00250224H110.954C110.243 -0.00551695 109.558 0.268911 109.05 0.765481C108.542 1.26205 108.251 1.94014 108.243 2.65074V34.0888C108.251 34.7997 108.541 35.4783 109.05 35.9753C109.558 36.4724 110.243 36.7474 110.954 36.7398H142.262C142.974 36.7488 143.661 36.4746 144.171 35.9775C144.682 35.4804 144.974 34.8011 144.984 34.0888V2.64847C144.974 1.93646 144.681 1.2576 144.171 0.761046C143.661 0.264487 142.974 -0.00915658 142.262 0.000233945M149.165 31.9894C148.503 31.9958 147.87 32.2642 147.405 32.736C146.94 33.2077 146.68 33.8444 146.684 34.5067C146.687 35.1691 146.952 35.8032 147.422 36.2705C147.891 36.7377 148.527 37 149.189 37C149.851 37 150.487 36.7377 150.956 36.2705C151.426 35.8032 151.691 35.1691 151.694 34.5067C151.697 33.8444 151.438 33.2077 150.973 32.736C150.508 32.2642 149.875 31.9958 149.213 31.9894H149.165ZM149.165 36.7132C148.73 36.7204 148.304 36.5986 147.938 36.3633C147.573 36.128 147.286 35.7896 147.113 35.391C146.94 34.9924 146.889 34.5515 146.967 34.124C147.045 33.6965 147.247 33.3016 147.549 32.9893C147.851 32.677 148.239 32.4613 148.664 32.3694C149.089 32.2776 149.531 32.3137 149.935 32.4733C150.339 32.6329 150.687 32.9087 150.934 33.2659C151.182 33.6231 151.318 34.0456 151.325 34.48V34.5169C151.337 35.0868 151.122 35.6382 150.728 36.0499C150.334 36.4615 149.792 36.6997 149.222 36.712H149.165" fill="white"/>
</svg>
