<?xml version="1.0" encoding="utf-8"?>
<!-- Generator: Adobe Illustrator 19.0.0, SVG Export Plug-In . SVG Version: 6.00 Build 0)  -->
<svg version="1.1" id="Camada_1" xmlns="http://www.w3.org/2000/svg" xmlns:xlink="http://www.w3.org/1999/xlink" x="0px" y="0px"
	 viewBox="0 0 384 384" style="enable-background:new 0 0 384 384;" xml:space="preserve">
<style type="text/css">
	.st0{fill:#FFFFFF;}
	.st1{fill:#880303;}
	.st2{fill:#FEFDFD;}
</style>
<rect id="XMLID_2_" class="st0" width="384" height="384"/>
<g id="XMLID_1_">
	<path id="XMLID_132_" class="st1" d="M202.1,160c-2.2-1.1-4.4-2.1-6.6-3.3c-14.9-8.1-25.4-20-30.7-36.2c-1.3-4-1.7-8-1.4-12.1
		c0.2-2.9,1.6-4.7,4.4-5.6c4.8-1.5,9.5-0.7,14.2,0c8.2,1.3,16,3.7,23.6,6.9c0.8,0.3,1.7,1.2,2.7,0.4c-3.5-3.8-9.3-3.6-13.3-7.4
		c3-0.7,5.8-1.3,8.7-1.5c11.6-1.1,23,0.2,34.5,1.6c31.2,4,61.6,11.6,91.2,21.9c5.6,2,11.1,4.5,16.6,6.7c1.1,0.4,1.8,1,1.3,2.3
		c-1.2,3-1.4,6.1-1.8,9.6c1.2-2.1,1.5-4,2-5.8c1.2-3.8,2.3-4.6,5.2-3.8c3.9,1.1,5.5,3.3,4.6,6.7c-1.4,5.6-4.2,10.6-7.2,15.5
		c-1.5,2.4-4,3.7-6.6,4.6c-9.6,3.5-19.7,4.9-29.6,6.9c-14.6,3-29.3,5.9-43.7,9.7c-5.5,1.4-6.4,3.6-4,8.6c0.7,1.5,1.4,2.9,2.4,5.2
		c-5,0-9.5-0.1-14,0c-8.1,0.2-16.3-0.1-24.2,2.2c-7.8,2.3-14.5,6.1-18.7,13.3c-1,1.8-3,2.4-5,3.6c0-15.6,0-30.8,0-46.3
		c-2.4,0-4.5,0-6.6,0c-6.5,0-13,0-19.5,0c-1.7,0-2.7,0.3-3.6,2c-3.2,6.3-6.7,12.5-10.1,18.7c-0.5,1-1.1,1.9-1.9,3.4
		c-4.5-8.2-8.7-16-13-23.9c-9.1,0-18.2,0-27.7,0c0,7.8,0,15.6,0,24.1c-2.9-2.6-4.6-5.3-6.7-7.6c-9.6-10.4-21.5-16.1-35.3-18.7
		c-17.2-3.2-34-1.4-50.6,3.6c-0.5,0.1-1,0.3-1.5,0.4c-1.3,0.2-2.7,0.5-4,0.7c-0.5-0.8,0.1-1,0.5-1.3c23.3-20.4,49-36.7,78.3-47.1
		c16.7-5.9,33.8-8.9,51.6-8.2c0.7,0,1.4,0.1,2,0.1c0.2,0,0.5,0.1,0.9,0.3c0.2,1.9,0.3,3.8,0.6,5.7c2.7,16.3,11.9,28.2,25.2,37.3
		c4,2.7,8.3,4.8,12.9,6.3c1.1,0.4,2.2,0.9,3.5,0.7c0.3,0.4,0.7,0.6,1.2,0.2C202.9,160,202.6,159.9,202.1,160z M286,160.4
		c-1.8-0.4-3.6,0.2-5.3,0.8c-3.5,1.1-7,2.6-10.6,3.4c-5.5,1.2-10.3,3.5-14.7,6.8c-1.2,0.9-2.5,2-2.4,3.7c0.3,3.4,1.3,6.6,3.7,9.8
		c-0.2-2.3-0.4-4.2-0.6-6c-0.3-3.8,1-6.2,4.3-8c0.8-0.4,1.5-0.8,2.3-1.2c4.9-2.4,9.7-4.9,15.1-6.2c2.8-0.7,5.8-1.3,8.4-2.7
		c0.6,0.1,1.1,0,1.5-0.6C287,159.8,286.5,159.9,286,160.4z M203.5,129.9c0.2,0.1,0.4,0.2,0.7,0.3C204,129.7,203.8,129.3,203.5,129.9
		c0.7-1.3-0.7-1.6-1.3-2.2c-7.7-7.1-17-11.4-26.9-14.3c-2.1-0.6-3,0.1-3,2.4c0,2.4,0.9,4.7,2,6.8c4.4,8.7,10.9,15.5,18.5,21.3
		c2.6,2,5.2,4.1,8.6,5.7c-2.2-3.7-5.7-5.9-6.8-9.9c1.8-0.3,3,1.2,4.9,0.8c-2.7-3.2-5.2-6.2-7.9-9.5c3.3-0.3,5.3,2.7,8.4,2.4
		c-1.4-2-2.6-3.9-3.5-6.4C199.2,128.1,201.4,129,203.5,129.9z M248.3,122.2c-0.1,0.3-0.1,0.5-0.2,0.8c1.9,0.6,3.8,1.2,5.7,1.7
		c1,0.3,1.9,0.7,2.5,1.7c2.2,3.8,5.7,5.4,9.9,6.1c7.1,1.3,14.1,0.5,21.2,0.1c2.1-0.1,3.8-0.9,6-2.4
		C278,126.7,263.4,122.8,248.3,122.2z"/>
	<path id="XMLID_131_" class="st1" d="M178.8,230.2c-0.8,0.1-1.3,0.2-1.8,0.2c-8.1,0-16.2,0-24.5,0c0-12.1,0-24.1,0-36.6
		c4.5,6.8,8.7,13.2,13.1,20c4.4-6.8,8.6-13.2,13.2-20.2C178.8,206.2,178.8,218.1,178.8,230.2z"/>
	<path id="XMLID_128_" class="st1" d="M198.8,268.9c-6,5.4-12.8,5.7-17.8,0.9c-5.3-4.9-5.8-14.7-1.1-20.6c4.5-5.7,11.1-6,18.9-0.8
		c0.1-0.5,0.1-1,0.2-1.5c0.4-1.2,1.1-2.2,2.5-2.1c1.5,0.1,2.3,1,2.4,2.5c0.1,2.4,0,4.8,0,7.2c0,5-0.2,9.9,0,14.9
		c0.5,10.6-7.2,15.2-17.1,13.6c-2-0.3-4-0.9-5.7-2.2c-0.9-0.7-1.4-1.5-0.9-2.6c0.5-1.1,1.4-1.5,2.5-1.2c1.5,0.4,2.9,0.9,4.4,1.3
		C194.5,280.4,199.2,276.7,198.8,268.9z M190.4,249.1c-5.2,0-8.9,4.2-8.9,9.8c0,5.6,3.9,9.8,9,9.8c5-0.1,8.8-4.2,8.8-9.7
		C199.3,253.4,195.4,249.1,190.4,249.1z"/>
	<path id="XMLID_127_" class="st1" d="M72,249c6.8-6.3,13.1-5.8,16.9,1c1.2-1.1,2.3-2.3,3.6-3.2c6.7-4.8,14.5-1.4,15,6.8
		c0.4,5.5,0.2,11.1,0.2,16.6c0,1.4-0.6,2.5-2.3,2.5c-1.7,0-2.5-0.9-2.5-2.6c0-3.9,0-7.9,0-11.8c0-1.1-0.1-2.2-0.2-3.3
		c-0.5-4.2-2.4-5.9-6-5.7c-3.8,0.1-6.7,2.9-6.8,6.6c-0.1,4.4,0,8.9,0,13.3c0,1,0,2.1-0.8,2.9c-0.8,0.7-1.7,0.7-2.6,0.5
		c-1.2-0.3-1.4-1.3-1.4-2.4c0-4.5,0-9.1-0.1-13.6c0-4.8-1.9-7.2-5.6-7.3c-4.1-0.1-7.2,2.9-7.3,7.2c-0.1,4.3-0.1,8.5,0,12.8
		c0,1.8-0.3,3.4-2.5,3.4c-2.3,0-2.5-1.7-2.5-3.4c0-6.7,0-13.3,0-20c0-1.8-0.1-3.9,2.4-4C71.6,245.1,71.8,247,72,249z"/>
	<path id="XMLID_124_" class="st1" d="M303.9,260.2c0.2,7.6,8.8,10.6,14.2,7.2c0.1-0.1,0.3-0.2,0.4-0.3c1.4-1,3-2.5,4.4-0.6
		c1.5,2-0.5,3.3-1.9,4.3c-6.7,4.7-16.5,2.6-20.4-4.3c-4.1-7.3-1-17.5,6.3-20.9c8-3.7,18,2.9,17.8,11.7c0,2.3-1.4,2.9-3.3,2.9
		C315.6,260.1,309.8,260.2,303.9,260.2z M319.4,255.9c0.2-4-4.3-6.9-7.6-6.8c-4.3,0.2-7.2,2.7-7.6,6.8
		C309.2,255.9,314.2,255.9,319.4,255.9z"/>
	<path id="XMLID_121_" class="st1" d="M223.7,244.6c8,0,13.8,6.1,13.8,14.3c0,8.2-5.9,14.3-13.8,14.4c-8,0.1-14-6.2-14-14.5
		C209.9,250.6,215.7,244.6,223.7,244.6z M232.6,258.9c0-5.6-3.8-9.8-8.9-9.8c-5,0-8.9,4.2-9,9.8c0,5.5,4,9.8,9,9.8
		C228.8,268.7,232.6,264.5,232.6,258.9z"/>
	<path id="XMLID_118_" class="st1" d="M255.7,244.6c7.8,0,13.9,6.2,13.9,14.3c0,8.1-6.1,14.4-13.9,14.4c-8,0-13.9-6.1-14-14.2
		C241.8,250.6,247.6,244.6,255.7,244.6z M264.6,259.1c0-5.6-3.7-9.8-8.8-9.9c-5.2-0.1-9,4-9,9.6c-0.1,5.6,3.7,9.8,8.8,9.9
		C260.6,268.8,264.6,264.6,264.6,259.1z"/>
	<path id="XMLID_115_" class="st1" d="M113.7,259.1c0-8.5,5.7-14.4,13.9-14.4c7.9,0,13.8,6.1,13.8,14.3c0,8.1-6.1,14.4-13.8,14.4
		C119.5,273.2,113.7,267.3,113.7,259.1z M136.5,259.1c0-5.7-3.7-9.9-8.8-9.9c-5.1-0.1-9.1,4.1-9.2,9.6c0,5.7,3.9,10,9.1,10
		C132.6,268.7,136.4,264.5,136.5,259.1z"/>
	<path id="XMLID_114_" class="st1" d="M152.4,249.1c2.5-2.5,4.8-4.2,8-4.4c6.1-0.4,9.9,2.7,10.2,8.8c0.3,5.5,0.1,11.1,0.1,16.6
		c0,1.5-0.7,2.5-2.2,2.6c-1.7,0.1-2.6-0.8-2.7-2.4c-0.1-2.1,0-4.3-0.1-6.4c0-2.8,0-5.6-0.1-8.4c-0.2-4.4-2.1-6.3-6.1-6.2
		c-4.1,0-7.2,2.8-7.3,6.6c-0.1,4.3,0,8.5,0,12.8c0,1.9,0.2,4.1-2.6,4c-2.6,0-2.5-2.1-2.5-3.9c0-6.5,0-13,0-19.5c0-1.9,0-3.9,2.5-4
		C152,245.1,152.3,247,152.4,249.1z"/>
	<path id="XMLID_113_" class="st1" d="M284.5,244.6c3.1,0,5.9,0.9,8.3,3c1.2,1,1.8,2.2,0.8,3.6c-1.1,1.5-2.4,0.9-3.5-0.2
		c-2.2-2.1-4.8-2.5-7.6-2c-1.6,0.3-2.9,1.2-3,3c-0.2,1.7,0.7,2.9,2.2,3.4c2.5,1,5.2,1.7,7.7,2.7c3.8,1.4,5.6,3.9,5.5,7.4
		c-0.1,3.2-2.4,6.1-6,7.2c-5.2,1.5-10,0.7-14-3.1c-1.1-1-2.1-2.3-0.7-3.8c1.4-1.5,2.7-0.7,3.9,0.5c2.8,2.7,6,3.8,9.8,2.5
		c1.4-0.5,2.3-1.4,2.5-2.9c0.2-1.6-0.6-2.7-2-3.3c-1.2-0.6-2.5-1-3.8-1.5c-1.4-0.5-2.8-0.8-4.1-1.3c-4.4-1.7-6.1-4.2-5.6-8.3
		c0.4-3.3,3.5-6.2,7.4-6.7C282.9,244.6,283.7,244.6,284.5,244.6z"/>
	<path id="XMLID_109_" class="st2" d="M286,160.4c0.5-0.5,1.1-0.6,1.8-0.3c-0.4,0.7-0.9,0.8-1.5,0.6
		C286.2,160.6,286.1,160.5,286,160.4z"/>
	<path id="XMLID_108_" class="st2" d="M203.5,130c0.3-0.6,0.5-0.3,0.8,0.2C204,130.1,203.7,130,203.5,130
		C203.5,129.9,203.5,130,203.5,130z"/>
	<path id="XMLID_107_" class="st2" d="M202.1,160c0.4-0.1,0.8,0,0.9,0.5c-0.5,0.4-0.8,0.3-1.2-0.2C202,160.1,202.1,160,202.1,160z"
		/>
</g>
</svg>
