<?xml version="1.0" encoding="utf-8"?>
<!-- Generator: Adobe Illustrator 19.0.0, SVG Export Plug-In . SVG Version: 6.00 Build 0)  -->
<svg version="1.1" id="Camada_1" xmlns="http://www.w3.org/2000/svg" xmlns:xlink="http://www.w3.org/1999/xlink" x="0px" y="0px"
	 viewBox="0 0 384 384" style="enable-background:new 0 0 384 384;" xml:space="preserve">
<style type="text/css">
	.st0{fill:#001E2B;}
	.st1{fill:#00EA63;}
</style>
<g id="XMLID_2_">
	<path id="XMLID_27_" class="st0" d="M0,0c128,0,256,0,384,0c0,128,0,256,0,384c-128,0-256,0-384,0C0,256,0,128,0,0z M192,60.4
		c-16.8,22.5-35.7,42.7-47.7,67.8c-24.4,51-17.5,104.9,21.5,146c12.9,13.6,23,26.7,21.8,46.1c-0.1,1,0.7,2,1,2.9
		c2.9,0.7,5.3,1.4,7.4-0.7c0.2-0.7,0.6-1.2,0.5-1.7c-1.1-19.5,9-32.6,21.8-46.7c37.1-40.7,46.3-87.8,24.3-139.7
		C230.7,106.5,210.4,84.6,192,60.4z"/>
	<path id="XMLID_24_" class="st1" d="M192,60.4c18.4,24.2,38.8,46.1,50.6,74c21.9,51.9,12.8,98.9-24.3,139.7
		c-12.8,14.1-22.9,27.2-21.8,46.7c0,0.5-0.3,1.1-0.5,1.7c-2.1,2.1-4.5,1.4-7.4,0.7c-0.3-0.9-1-1.9-1-2.9
		c1.1-19.4-8.9-32.5-21.8-46.1c-39-41.1-45.9-95-21.5-146C156.3,103.1,175.1,82.9,192,60.4z M191.9,289.9c5.7-2.9,6.4-7.1,6.2-12.4
		c-1-36-5.2-71.8-5.1-107.9c0-1.3-0.4-2.7-0.7-4.6c-0.6,1.2-1.1,1.7-1.1,2.1c-1.8,37.4-3.4,74.9-5.3,112.3
		C185.6,284.5,187.8,287.4,191.9,289.9z"/>
	<path id="XMLID_23_" class="st0" d="M191.9,289.9c-4.1-2.4-6.3-5.4-6-10.4c1.9-37.4,3.6-74.9,5.3-112.3c0-0.5,0.5-1,1.1-2.1
		c0.3,2,0.7,3.3,0.7,4.6c0,36,4.1,71.9,5.1,107.9C198.2,282.7,197.6,287,191.9,289.9z"/>
</g>
</svg>
