<?xml version="1.0" encoding="utf-8"?>
<!-- Generator: Adobe Illustrator 19.0.0, SVG Export Plug-In . SVG Version: 6.00 Build 0)  -->
<svg version="1.1" id="Camada_1" xmlns="http://www.w3.org/2000/svg" xmlns:xlink="http://www.w3.org/1999/xlink" x="0px" y="0px"
	 viewBox="0 0 384 384" style="enable-background:new 0 0 384 384;" xml:space="preserve">
<style type="text/css">
	.st0{fill:#38A056;}
	.st1{fill:#FFFFFF;}
</style>
<rect id="XMLID_2_" class="st0" width="384" height="384"/>
<g id="XMLID_1_">
	<path id="XMLID_14_" class="st1" d="M337,263.2c-0.2,0.6-0.6,1.1-0.7,1.7c-1.3,8.5-5.8,14.7-13.2,18.9
		c-26.7,15.4-53.4,30.9-80.1,46.4c-11.9,6.9-23.7,13.8-35.6,20.6c-10,5.8-19.9,5.9-29.9-0.1c-12.6-7.7-25.4-15.1-38.1-22.7
		c-1-0.6-1.9-1.5-3.3-2.6c1.4-0.7,2.3-1.2,3.2-1.6c4.9-2.2,10-4.1,14.8-6.6c2.6-1.4,4.6-1.2,7,0.3c8.9,5.4,17.9,10.7,26.8,16.1
		c2.6,1.6,4.7,1.6,7.4,0.1c33.4-19.4,66.8-38.8,100.2-58.1c5.4-3.1,10.8-6.4,16.3-9.4c2.9-1.5,3.7-3.6,3.7-6.7
		c-0.1-27.8,0-55.6,0-83.4c0-17.1-0.1-34.3,0.1-51.4c0-3-1-4.9-3.7-6.4c-23.5-13.5-47-27.1-70.5-40.6C226,68.7,210.6,59.9,195.2,51
		c-2.5-1.5-4.6-1.4-7.1,0c-25.7,14.9-51.4,29.7-77.1,44.5c-13.1,7.5-26.2,15.1-39.3,22.6c-2.8,1.6-4,3.6-4,6.9
		c0.1,44.8,0.1,89.6,0,134.5c0,3.1,1,5.1,3.8,6.7c10.2,5.8,20.1,12,30.5,17.4c3.9,2.1,8.6,3.5,13,3.8c10.1,0.6,17.1-6.5,17.1-16.7
		c0-44.2,0-88.4,0-132.5c0-5.7,0.6-6.2,6.1-6.3c3.7,0,7.5,0,11.2,0c2.7,0,4.1,1.1,4.1,4c-0.1,47.1,0.1,94.1-0.3,141.2
		c-0.1,10.2-4.3,19.3-13,25.6c-5.2,3.8-11.3,5.2-17.6,5.8c-12.2,1.2-23.1-2.6-33.5-8.4c-8.7-4.9-17.2-10.2-26.1-14.9
		c-8.7-4.6-14.4-11.1-15.5-21.1c-0.1-0.5-0.4-1-0.6-1.5c0-46.8,0-93.7,0-140.5c0.2-0.4,0.5-0.7,0.6-1.1c1.2-10.1,7.2-16.4,15.8-21.3
		c27.3-15.6,54.3-31.8,81.8-47.1c14.9-8.3,28.5-19.4,45.5-23.7c0.9,0,1.7,0,2.6,0c4.4,1.6,9.2,2.7,13.3,5
		c19.7,11.1,39.3,22.6,58.9,33.9c19.7,11.4,39.4,22.8,59,34.3c6.5,3.8,10.2,9.7,11.7,17.1c0.2,0.8,0.5,1.6,0.8,2.3
		C337,168.7,337,215.9,337,263.2z"/>
	<path id="XMLID_13_" class="st1" d="M225.6,128c10-0.1,19.9,0.7,29.6,3.8c16.4,5.4,25.7,16.6,27.9,33.7c0.1,1.1,0.4,2.1,0.4,3.2
		c0,2.1-0.8,3.6-3.1,3.7c-5,0.1-10,0-15,0c-2.1,0-2.8-1.4-3.3-3.2c-1.6-5.8-3.7-11.6-9-14.9c-3.3-2.1-7-3.9-10.7-4.6
		c-11-2.2-22.2-2.4-33.3-0.2c-3.7,0.7-7.5,2.4-10.7,4.5c-5.1,3.3-6.1,8.7-5.2,14.4c0.5,3,2.4,5.4,5.4,6.2c7.7,2.1,15.3,4.2,23.1,5.7
		c13.5,2.6,27.2,4.4,40.7,7.2c7.7,1.6,15,5.1,20,11.7c6.9,9,7.2,19.4,4.6,29.8c-3.5,14.1-13.6,21.9-26.6,26.4
		c-16.3,5.6-33.1,5.3-49.9,3.4c-9.7-1.1-19-3.7-27.3-9.1c-11.7-7.6-16.9-18.7-17.2-32.4c-0.1-3.3,1-4.3,4.4-4.4
		c4.3-0.1,8.5,0.1,12.8,0c2.9-0.1,4.3,1.2,4.6,4c1,7.5,3.9,14.1,11,17.6c3.7,1.8,7.7,3.2,11.8,3.8c11.9,1.8,24,2.1,35.9-0.1
		c4.6-0.8,9.2-2.8,13.1-5.3c5.9-3.9,7.1-10.3,5.5-16.8c-0.6-2.4-3.1-4.9-5.4-6.2c-7.4-4.3-15.9-5.2-24.2-6.4
		c-13.2-1.9-26.7-2.3-39.6-6.3c-8.3-2.5-16-6-21-13.6c-7.7-11.6-6.9-34.3,8.9-45.4c10-7.1,21.4-9.6,33.4-10.3
		C220.1,127.8,222.9,128,225.6,128z"/>
</g>
</svg>
