<?xml version="1.0" encoding="utf-8"?>
<!-- Generator: Adobe Illustrator 19.0.0, SVG Export Plug-In . SVG Version: 6.00 Build 0)  -->
<svg version="1.1" id="Camada_1" xmlns="http://www.w3.org/2000/svg" xmlns:xlink="http://www.w3.org/1999/xlink" x="0px" y="0px"
	 viewBox="0 0 384 384" style="enable-background:new 0 0 384 384;" xml:space="preserve">
<style type="text/css">
	.st0{fill:#FFFFFF;}
	.st1{fill:#F7C53D;}
	.st2{fill:#367CEF;}
</style>
<rect id="XMLID_2_" class="st0" width="384" height="384"/>
<g id="XMLID_1_">
	<path id="XMLID_37_" class="st1" d="M246.7,259.6c-17.1,0-34.2,0.1-51.3-0.1c-2.9,0-3.7,0.8-3.5,3.6c0.3,6.3-0.8,5.4,5.3,5.4
		c19.6,0,39.2,0.1,58.8-0.1c3,0,3.6,0.9,3.5,3.7c-0.2,7.8-0.3,15.6,0,23.5c0.3,8.8-3.3,15.6-9.7,21.1c-10.1,8.6-22.2,12.8-35,15.1
		c-22,3.9-43.6,2.9-64.6-5.4c-7.3-2.9-14-6.9-19.4-12.8c-4.2-4.7-6.5-10-6.5-16.3c0.1-24.5,0.1-49.1,0.3-73.6
		c0.1-8,4.7-13.7,10.3-18.7c6.5-5.8,14-8.9,23-8.7c20.7,0.3,41.4,0.3,62.1,0.1c9.5-0.1,18.7-1.7,26.4-7.9c7.6-6.1,14.2-13,18-22.1
		c1.5-3.6,2.4-7.3,2.4-11.2c0.1-8.8,0.4-17.6,0.2-26.3c-0.1-3.3,0.6-4.6,4.3-4.4c7.7,0.3,15.4,0.4,23.1,0
		c10.5-0.5,18.3,4.1,24.3,12.3c7.7,10.4,11.5,22.4,13.5,35c3.4,21.3,2.1,42.2-6,62.4c-2.4,6-5.6,11.5-9.8,16.3
		c-5.5,6.2-12.1,9.4-20.6,9.3C279.5,259.4,263.1,259.6,246.7,259.6z M242.6,297.5c0.1-7.2-5.4-12.9-12.5-13.1
		c-7.3-0.2-13.2,5.4-13.3,12.7c-0.1,7.1,5.8,13.2,12.9,13.2C236.7,310.4,242.5,304.6,242.6,297.5z"/>
	<path id="XMLID_34_" class="st2" d="M137.5,124.4c17,0,33.9-0.1,50.9,0.1c3.6,0,3.4-1.7,3.4-4.2c0-2.4,0.3-4.3-3.4-4.2
		c-20,0.2-39.9,0-59.9,0.2c-3.1,0-4.2-0.6-4.1-3.9c0.3-7.6,0.4-15.2,0-22.7c-0.6-10.9,4.3-18.7,12.7-24.7
		c10.4-7.5,22.3-11.2,34.8-13.1c21.2-3.3,42-2,62.1,6.1c8.6,3.4,16.3,8.2,21.7,16.1c2.4,3.5,3.9,7.3,3.8,11.5
		c-0.1,22.5,0.7,45-0.6,67.5c-0.9,14.9-12,29-26.1,33.6c-2.9,0.9-5.9,1.2-8.9,1.2c-21.4,0.1-42.8,0.3-64.3,0.3
		c-10.9,0-20.6,2.8-28.9,10.1c-8.5,7.4-13.7,16.2-13.3,27.9c0.3,10-0.2,20-0.1,30c0,3.1-1,3.8-3.9,3.7c-7.9-0.2-15.9-0.4-23.8,0
		c-11,0.6-18.9-4.4-25-13c-7.8-11-11.6-23.5-13.3-36.6c-3-22.2-1.4-44,8.4-64.6c1.9-4,4.4-7.7,7.3-11.2c5.8-6.8,13-10.2,22.1-10.1
		C105.2,124.6,121.3,124.4,137.5,124.4z M167.3,86.7c0.1-7.3-5.6-13.1-12.9-13.1c-7.1,0-12.8,5.5-13,12.7
		c-0.2,7.1,5.8,13.2,12.9,13.2C161.4,99.5,167.2,93.7,167.3,86.7z"/>
</g>
</svg>
