<?xml version="1.0" encoding="utf-8"?>
<!-- Generator: Adobe Illustrator 19.0.0, SVG Export Plug-In . SVG Version: 6.00 Build 0)  -->
<svg version="1.1" id="Camada_1" xmlns="http://www.w3.org/2000/svg" xmlns:xlink="http://www.w3.org/1999/xlink" x="0px" y="0px"
	 viewBox="0 0 384 384" style="enable-background:new 0 0 384 384;" xml:space="preserve">
<style type="text/css">
	.st0{fill:#23272F;}
	.st1{fill:#57C1D9;}
</style>
<g id="XMLID_1_">
	<path id="XMLID_108_" class="st0" d="M384,384c-128,0-255.9,0-384,0C0,256.1,0,128.1,0,0c127.9,0,256,0,384,0
		C384,127.9,384,255.9,384,384z M88.7,132.8c-8.4,3.5-16.1,6.9-23.4,11.3c-10.5,6.4-20.1,13.7-26.9,24.2
		c-9.8,15.1-10.5,30.5-1.3,46.1c2.9,5,6.7,9.4,10.9,13.3c9,8.4,19.3,14.7,30.4,19.9c3.3,1.6,6.7,3,10.3,4.6c-0.2,2-0.2,3.9-0.5,5.8
		c-0.9,5.1-1,10.2-1.1,15.3c-0.3,13.7,1,27.2,7,39.8c5.6,11.7,14.3,19.9,27,23.4c9.2,2.6,18.4,1.6,27.5-0.9
		c10.9-2.9,20.8-8,30.2-14.2c4.5-3,8.9-6.2,13.2-9.3c4.9,3.4,9.5,6.9,14.3,10c11.8,7.6,24.3,13.6,38.4,15.4c16.3,2.1,30-2.7,40.2-16
		c5.1-6.6,8-14.2,9.8-22.2c2.9-13,2.8-26,1.4-39.1c-0.3-2.7-1-5.3-0.4-8.1c7.8-3.3,15.4-6.7,22.5-11c9.5-5.7,18.3-12.4,25.1-21.3
		c8.3-10.8,12.2-22.8,8.9-36.4c-2.5-10.3-8.4-18.6-15.9-25.8c-9-8.6-19.5-14.9-30.7-20.2c-3.3-1.6-6.7-3-9.9-4.4
		c-0.5-2.4-0.1-4.4,0.3-6.4c0.9-5.2,1-10.5,1.1-15.8c0.3-13.4-1.1-26.5-7-38.8c-6.6-13.8-17.3-22.3-32.7-24.5
		c-7.7-1.1-15.3,0.1-22.7,2.2c-14.1,4-26.3,11.4-38,20c-1.5,1.1-2.8,2.5-4.8,3.2c-1.6-1.2-3.1-2.3-4.6-3.5
		c-9.9-7.4-20.4-13.8-32.1-18c-9-3.2-18.2-5.3-27.7-4.1c-17.5,2.2-28.6,12.5-34.9,28.4c-4.6,11.6-5.6,23.9-5.3,36.3
		C87.1,118.8,88.1,125.6,88.7,132.8z"/>
	<path id="XMLID_93_" class="st1" d="M88.7,132.8c-0.6-7.2-1.6-14-1.7-20.8c-0.2-12.4,0.7-24.7,5.3-36.3
		c6.3-15.9,17.5-26.2,34.9-28.4C136.8,46,146,48,155,51.3c11.7,4.2,22.2,10.6,32.1,18c1.5,1.1,3.1,2.3,4.6,3.5
		c2-0.7,3.3-2.1,4.8-3.2c11.6-8.6,23.9-16,38-20c7.4-2.1,15-3.3,22.7-2.2c15.4,2.1,26,10.7,32.7,24.5c5.9,12.3,7.3,25.4,7,38.8
		c-0.1,5.3-0.2,10.6-1.1,15.8c-0.3,2-0.8,4.1-0.3,6.4c3.2,1.4,6.6,2.9,9.9,4.4c11.2,5.3,21.7,11.6,30.7,20.2
		c7.5,7.2,13.5,15.5,15.9,25.8c3.2,13.6-0.6,25.6-8.9,36.4c-6.8,8.9-15.6,15.6-25.1,21.3c-7.1,4.3-14.7,7.7-22.5,11
		c-0.5,2.8,0.2,5.4,0.4,8.1c1.4,13.1,1.5,26.2-1.4,39.1c-1.8,8-4.7,15.6-9.8,22.2c-10.2,13.3-24,18.1-40.2,16
		c-14.1-1.8-26.6-7.8-38.4-15.4c-4.8-3.1-9.4-6.6-14.3-10c-4.4,3.1-8.7,6.3-13.2,9.3c-9.4,6.2-19.3,11.3-30.2,14.2
		c-9.1,2.4-18.2,3.4-27.5,0.9c-12.7-3.5-21.4-11.7-27-23.4c-6-12.6-7.3-26.1-7-39.8c0.1-5.1,0.2-10.2,1.1-15.3
		c0.3-1.9,0.3-3.8,0.5-5.8c-3.6-1.6-7-3-10.3-4.6c-11-5.2-21.4-11.5-30.4-19.9c-4.2-4-8-8.3-10.9-13.3c-9.2-15.6-8.5-31.1,1.3-46.1
		c6.8-10.4,16.4-17.8,26.9-24.2C72.6,139.7,80.3,136.2,88.7,132.8z M226.3,132.7c-23.2-2.3-46-2.4-68.9,0.1
		c-13.5,18.9-25,38.7-34.2,59.7c9.6,21.3,20.9,41.3,34.4,59.8c23.2,2.4,46,2.4,68.8,0c13.6-18.9,25-38.8,34.3-59.8
		C251.2,171.2,239.8,151.4,226.3,132.7z M91.8,148.6c-0.9,0.2-1.5,0.2-2.1,0.5c-10,4.2-19.6,9.4-28,16.4c-4.9,4.1-9.3,8.8-12.3,14.5
		c-4.4,8.2-4.4,16.5,0,24.8c2,3.7,4.5,7,7.4,10c9.1,9.3,20.2,15.5,32,20.7c1,0.4,1.9,1.2,3.2,0.5c0.2-0.5,0.4-1.1,0.6-1.7
		c3.4-13.3,7.5-26.4,12.9-39.1c0.9-2.1,0.5-4-0.3-5.9c-3.4-8.3-6.4-16.7-9-25.3C94.6,158.8,93.2,153.8,91.8,148.6z M292.3,236.7
		c14.6-6.3,27.9-13.4,37.9-25.4c1.6-1.9,3-4.1,4.3-6.4c4.6-8.3,4.6-16.7,0-25.1c-2-3.7-4.5-7-7.5-9.9c-8.9-9-19.7-15.1-31.2-20.2
		c-1.1-0.5-2.2-1.4-3.6-0.8c-0.2,0.4-0.4,0.8-0.5,1.3c-3.5,13.6-7.7,27-13.2,40c-0.9,2-0.4,3.7,0.4,5.5c3.4,8.1,6.3,16.4,8.8,24.8
		C289.2,225.6,290.6,230.8,292.3,236.7z M103.7,257.2c-1.6,13.2-2.1,25.9,0.6,38.5c1.1,4.9,2.7,9.5,5.3,13.8
		c5.1,8.5,12.7,12.7,22.6,12.9c3.6,0.1,7-0.4,10.4-1.3c13.7-3.5,25.7-10.4,36.6-19.2c0.2-0.1,0.1-0.6,0.2-0.9
		c-0.3-0.3-0.5-0.8-0.8-1.1c-10-9.7-19.3-20-27.7-31.1c-1.3-1.8-2.9-2.3-4.9-2.6C131.9,264.5,118.1,261.4,103.7,257.2z M280.3,257.2
		c-14.3,4.2-28.1,7.3-42.3,9.1c-2.4,0.3-4,1.3-5.5,3.3c-7.8,10.3-16.4,20-25.7,29c-0.9,0.9-2.1,1.5-2.4,3.3
		c3.8,3.4,8.2,6.2,12.7,8.9c9.1,5.5,18.6,9.8,29.2,11.4c13,1.9,23.4-3.3,29.3-15c1-2,1.9-4,2.6-6.2
		C282.6,286.8,281.9,272.4,280.3,257.2z M179.4,83.4c0-0.2,0-0.5-0.1-0.5c-11.2-9-23.3-16.3-37.5-19.5c-18.8-4.1-30.9,3.3-36.5,21.7
		c-3.9,12.8-3.3,25.9-2.1,39c0.1,1.1,0,2.3,1.1,3.2c13.7-4,27.7-7.1,42-8.9c2.2-0.3,3.7-1.4,5-3.2c7.8-10.3,16.5-20,25.8-29
		C178,85.4,179.2,84.8,179.4,83.4z M204.1,83.3c1.2,1.3,2.3,2.5,3.4,3.6c8.7,8.5,16.9,17.5,24.2,27.2c2.2,3,4.7,4.4,8.3,4.7
		c7.2,0.7,14.2,2.1,21.2,3.8c6.3,1.5,12.6,3.1,18.8,4.6c1.8-8,2.1-23.3,0.8-32.3c-0.8-5.7-2.2-11.3-4.7-16.5
		c-5.9-12.4-16.7-17.9-30.2-15.8c-8.5,1.3-16.3,4.4-23.8,8.5C215.8,74.6,209.7,78.4,204.1,83.3z M106.5,241.6c9.1,4,24.9,7.3,29.2,6
		c-7.3-11.3-13.9-22.8-20.4-35.4C111.3,222.3,108.8,231.8,106.5,241.6z M268.6,172.6c3.9-10.2,6.6-19.8,8.8-29.9
		c-9.8-2.8-19.2-5.9-30.1-6.7C255.4,148.1,261.9,159.9,268.6,172.6z M277.4,241.6c-2.3-9.9-4.8-19.4-8.7-29
		c-7,12.3-13.8,24-20.6,35.8C253.7,248.6,270.2,244.8,277.4,241.6z M115.4,171.6c6.7-11.6,13.3-23.1,20.4-35.5
		c-10.6,1.2-19.9,3.9-29.1,6.8C108.4,152.9,112.8,167.2,115.4,171.6z M191.8,93.4c-7.5,7.3-14.7,14-21.1,22.8
		c14.5-1.4,28.1-1,42.6-0.2C206.4,107.5,199.5,100.4,191.8,93.4z M213.4,268.7c-14.7,1.1-28.3,1.1-42.8,0.1
		c7,8.6,13.8,15.8,21.4,22.6C199.6,284.3,206.5,277.3,213.4,268.7z"/>
	<path id="XMLID_90_" class="st0" d="M226.3,132.7c13.5,18.8,24.9,38.5,34.3,59.7c-9.3,21-20.7,40.9-34.3,59.8
		c-22.8,2.4-45.6,2.4-68.8,0c-13.4-18.5-24.8-38.4-34.4-59.8c9.2-21,20.8-40.9,34.2-59.7C180.3,130.3,203.1,130.3,226.3,132.7z
		 M224.6,192.7c0.1-17.1-13.8-31.3-30.8-31.5c-17.2-0.2-31.4,13.7-31.6,30.7c-0.2,17.4,13.8,31.6,31.1,31.7
		C210.4,223.7,224.5,209.8,224.6,192.7z"/>
	<path id="XMLID_89_" class="st0" d="M91.8,148.6c1.4,5.2,2.8,10.2,4.3,15.3c2.5,8.6,5.5,17,9,25.3c0.8,2,1.2,3.8,0.3,5.9
		c-5.4,12.7-9.5,25.7-12.9,39.1c-0.2,0.6-0.4,1.2-0.6,1.7c-1.3,0.7-2.2,0-3.2-0.5c-11.8-5.1-22.9-11.4-32-20.7
		c-2.9-3-5.4-6.3-7.4-10c-4.4-8.3-4.3-16.5,0-24.8c3.1-5.7,7.4-10.4,12.3-14.5c8.4-7,18-12.1,28-16.4
		C90.3,148.8,90.9,148.8,91.8,148.6z"/>
	<path id="XMLID_88_" class="st0" d="M292.3,236.7c-1.7-5.9-3-11.1-4.6-16.3c-2.5-8.4-5.5-16.7-8.8-24.8c-0.7-1.8-1.2-3.5-0.4-5.5
		c5.5-12.9,9.7-26.4,13.2-40c0.1-0.5,0.4-0.9,0.5-1.3c1.5-0.6,2.5,0.3,3.6,0.8c11.4,5.1,22.2,11.2,31.2,20.2c2.9,3,5.5,6.2,7.5,9.9
		c4.6,8.4,4.6,16.8,0,25.1c-1.2,2.2-2.6,4.4-4.3,6.4C320.2,223.3,306.9,230.4,292.3,236.7z"/>
	<path id="XMLID_87_" class="st0" d="M103.7,257.2c14.4,4.2,28.2,7.3,42.3,9.1c1.9,0.2,3.5,0.8,4.9,2.6
		c8.4,11.1,17.7,21.4,27.7,31.1c0.3,0.3,0.6,0.7,0.8,1.1c-0.1,0.4,0,0.8-0.2,0.9c-10.9,8.8-22.9,15.7-36.6,19.2
		c-3.4,0.9-6.9,1.4-10.4,1.3c-9.9-0.2-17.5-4.4-22.6-12.9c-2.6-4.3-4.3-8.9-5.3-13.8C101.5,283.1,102.1,270.4,103.7,257.2z"/>
	<path id="XMLID_86_" class="st0" d="M280.3,257.2c1.6,15.1,2.3,29.6-2.1,43.8c-0.7,2.1-1.6,4.2-2.6,6.2c-5.9,11.7-16.3,17-29.3,15
		c-10.6-1.6-20.2-5.9-29.2-11.4c-4.5-2.7-8.9-5.5-12.7-8.9c0.3-1.7,1.5-2.4,2.4-3.3c9.3-9,17.9-18.7,25.7-29c1.5-1.9,3.1-3,5.5-3.3
		C252.2,264.5,266,261.4,280.3,257.2z"/>
	<path id="XMLID_85_" class="st0" d="M179.4,83.4c-0.3,1.3-1.4,2-2.3,2.8c-9.3,9-17.9,18.7-25.8,29c-1.3,1.8-2.8,2.9-5,3.2
		c-14.3,1.8-28.3,4.9-42,8.9c-1.1-1-1-2.2-1.1-3.2c-1.2-13.1-1.8-26.2,2.1-39c5.6-18.5,17.7-25.9,36.5-21.7
		c14.1,3.1,26.3,10.4,37.5,19.5C179.4,83,179.4,83.2,179.4,83.4z"/>
	<path id="XMLID_84_" class="st0" d="M204.1,83.3c5.6-5,11.7-8.7,18-12.1c7.5-4.1,15.3-7.1,23.8-8.5c13.5-2.1,24.3,3.4,30.2,15.8
		c2.5,5.2,3.8,10.8,4.7,16.5c1.3,8.9,1,24.2-0.8,32.3c-6.3-1.5-12.5-3.1-18.8-4.6c-7-1.7-14-3.1-21.2-3.8c-3.6-0.4-6.1-1.8-8.3-4.7
		c-7.3-9.7-15.5-18.7-24.2-27.2C206.3,85.8,205.3,84.7,204.1,83.3z"/>
	<path id="XMLID_83_" class="st0" d="M106.5,241.6c2.3-9.9,4.8-19.4,8.8-29.4c6.5,12.6,13.1,24.1,20.4,35.4
		C131.4,249,115.6,245.6,106.5,241.6z"/>
	<path id="XMLID_82_" class="st0" d="M268.6,172.6c-6.7-12.8-13.2-24.6-21.3-36.6c10.9,0.9,20.3,4,30.1,6.7
		C275.2,152.9,272.5,162.4,268.6,172.6z"/>
	<path id="XMLID_81_" class="st0" d="M277.4,241.6c-7.2,3.1-23.7,7-29.3,6.9c6.8-11.8,13.5-23.6,20.6-35.8
		C272.6,222.3,275,231.8,277.4,241.6z"/>
	<path id="XMLID_80_" class="st0" d="M115.4,171.6c-2.7-4.4-7.1-18.7-8.7-28.7c9.2-2.9,18.6-5.6,29.1-6.8
		C128.7,148.5,122.1,160,115.4,171.6z"/>
	<path id="XMLID_79_" class="st0" d="M191.8,93.4c7.7,7.1,14.6,14.1,21.4,22.6c-14.4-0.8-28-1.2-42.6,0.2
		C177.1,107.4,184.3,100.7,191.8,93.4z"/>
	<path id="XMLID_78_" class="st0" d="M213.4,268.7c-6.9,8.7-13.8,15.6-21.4,22.6c-7.6-6.7-14.5-14-21.4-22.6
		C185.1,269.8,198.7,269.8,213.4,268.7z"/>
	<path id="XMLID_77_" class="st1" d="M224.6,192.7c-0.1,17.1-14.2,31-31.3,31c-17.3-0.1-31.3-14.3-31.1-31.7
		c0.2-17.1,14.4-30.9,31.6-30.7C210.8,161.4,224.7,175.5,224.6,192.7z"/>
</g>
</svg>
