<?xml version="1.0" encoding="utf-8"?>
<!-- Generator: Adobe Illustrator 19.0.0, SVG Export Plug-In . SVG Version: 6.00 Build 0)  -->
<svg version="1.1" id="Camada_1" xmlns="http://www.w3.org/2000/svg" xmlns:xlink="http://www.w3.org/1999/xlink" x="0px" y="0px"
	 viewBox="0 0 384 384" style="enable-background:new 0 0 384 384;" xml:space="preserve">
<style type="text/css">
	.st0{fill:#764ABC;}
	.st1{fill:#FFFFFF;}
</style>
<rect id="XMLID_1_" class="st0" width="384" height="384"/>
<g id="XMLID_2_">
	<path id="XMLID_17_" class="st1" d="M334.1,261.8c-0.7,4-1.3,8.1-2.1,12c-4.9,23.4-20.4,37.6-41.4,46.1c-26,10.5-51.8,7.3-77.9-4
		c4.8-3.9,8.8-7.6,13.3-10.6c1.4-0.9,4.2-0.3,6.2,0.3c15.2,5,30.4,7.5,46.5,3.6c24.2-5.9,48.1-35,36.6-67.6
		c-8.8-24.9-25.5-42.8-48.1-55.7c-22.2-12.8-46-19.2-71.7-18.8c-3.7,0.1-5.4,1.7-7.4,4.3c-7.2,9.6-20.2,10.7-28.7,2.8
		c-8.2-7.7-8.2-20.9,0-28.6c7.8-7.3,20.6-6.9,27.6,1.3c2.3,2.8,4.5,4,8.2,4.1c26.6,0.7,52.3,5.1,75.8,18.4
		c28,16,50.2,37.2,59.4,69.3c1.7,5.8,2.5,11.9,3.7,17.9C334.1,258.5,334.1,260.1,334.1,261.8z"/>
	<path id="XMLID_16_" class="st1" d="M49.9,254.4c0.9-5,1.7-10,2.8-15c5.2-23.2,19.1-40.4,38.4-55.3c1.5,5.4,3.2,10,3.8,14.7
		c0.2,1.6-1.8,3.9-3.3,5.3c-11.6,10.6-20.7,22.8-25,38.1c-8.4,30.1,11.1,60.5,42,65.7c20.8,3.5,40.6,0.1,59.2-9.2
		c25.1-12.5,46.6-29.3,60.6-54.4c1.8-3.3,2-5.5-0.1-8.8c-4.5-7-3.6-16.5,1.3-22.5c5-6.1,13.4-8.5,21.3-6.2c6.9,2,12.8,9.8,13.5,17.7
		c0.7,7.9-5.4,16.5-13.4,19.6c-2.4,0.9-5.3,2.7-6.4,4.8c-22.2,41.7-56.9,66.2-103.1,74.2c-25.9,4.5-50.4,1-71.1-17.1
		c-11.7-10.3-17-23.8-18.9-39c-0.3-2.2-1-4.3-1.6-6.4C49.9,258.5,49.9,256.4,49.9,254.4z"/>
	<path id="XMLID_15_" class="st1" d="M262.9,144.3c-5.1-1.4-9.8-2.6-14.3-4.2c-0.9-0.3-1.5-2.2-1.7-3.4
		c-2.4-16.1-8.3-30.9-18.3-43.8C215,75.5,197.3,70.1,176,75.6c-25,6.5-38.6,24.2-46.1,47.1c-11.8,36.3-7.2,71.2,10.8,104.6
		c1.6,2.9,3.3,3.9,6.7,4.2c7.8,0.6,14.2,4.2,17.4,11.8c3,7,2.1,13.7-2.4,19.7c-5.3,7.2-15.8,9.5-23.9,5.6c-8.4-4-12.8-13.7-9.9-23.5
		c1.1-3.7,0.3-6.2-1.3-9.2c-12.9-23.9-20.7-49.4-19.8-76.6c1-30,8.4-58.1,30.9-80.1c31.8-31.1,81.1-29.6,108.1,11.7
		c9.7,14.8,14.3,31.2,16.8,48.4C263.4,140.6,263,142.1,262.9,144.3z"/>
</g>
</svg>
