<?xml version="1.0" encoding="utf-8"?>
<!-- Generator: Adobe Illustrator 19.0.0, SVG Export Plug-In . SVG Version: 6.00 Build 0)  -->
<svg version="1.1" id="Camada_1" xmlns="http://www.w3.org/2000/svg" xmlns:xlink="http://www.w3.org/1999/xlink" x="0px" y="0px"
	 viewBox="0 0 384 384" style="enable-background:new 0 0 384 384;" xml:space="preserve">
<style type="text/css">
	.st0{fill:#255B6D;}
	.st1{fill:#FFFFFF;}
</style>
<rect id="XMLID_2_" y="-0.2" class="st0" width="384" height="384.3"/>
<g id="XMLID_3_">
	<path id="XMLID_67_" class="st1" d="M293.1,173.8c0,15.7,0.1,30.6-0.1,45.6c-0.1,5.9-3.8,10.1-8.2,13.7
		c-10.2,8.2-22.2,12.3-34.6,15.1c-43.4,9.9-86.5,9.7-129.2-3.7c-9.1-2.8-17.6-6.9-24.5-13.9c-3.2-3.3-5.6-7.1-5.6-11.9
		c-0.1-14.7,0-29.4,0-44.9c31.5,19.3,65.9,23.3,101,23.3C227,197.1,261.4,193.1,293.1,173.8z"/>
	<path id="XMLID_64_" class="st1" d="M192.1,182.7c-25-0.5-49.8-2.6-73.5-11.4c-7.8-2.9-15.1-6.4-21.3-12.1
		c-4.2-3.9-6.5-8.6-6.5-14.5c0.1-14.5,0.2-28.9,0-43.4c-0.1-8.4,4.9-13.2,10.9-17.4c12.2-8.5,26.3-12.4,40.6-15.1
		c38-7.1,75.9-6.9,113.3,3.5c9.7,2.7,18.7,7.4,27.4,12.9c7.3,4.6,9.8,11.1,10,19c0.2,13.7,0,27.4,0.1,41.2
		c0.1,7.9-4.6,12.9-10.4,17.2c-7.7,5.7-16.6,9-25.7,11.7C235.9,180.5,214,182.2,192.1,182.7z M189.7,136.5
		c18.3-0.1,34.2-1.5,49.9-4.8c14.1-3,28.1-6.9,39.9-16c12.6-9.8,10.6-21.3-1.4-29.8c-7.9-5.6-16.7-9.5-26-12.1
		c-41.2-11.1-82.3-10.3-123.4,0.6c-9.4,2.5-18.5,6.2-25.7,12.9C96,93.8,92,101,99.4,110.4c5.3,6.7,12.4,10.7,20.1,13.9
		C142.7,133.8,167.2,135.8,189.7,136.5z"/>
	<path id="XMLID_63_" class="st1" d="M90.8,246.3c51.3,33.2,162,28.3,201.2,0.2c1.8,1.5,0.9,3.6,1,5.4c0.1,9.5-0.3,19,0.1,28.4
		c0.4,8.4-3.2,14.3-9.7,19c-10.9,8-23.4,12.1-36.4,14.8c-42.7,8.8-85.1,8.8-127-4.8c-7.9-2.6-15.2-6.1-21.6-11.5
		c-5.2-4.4-8-9.9-7.8-17C91,269.4,90.8,258,90.8,246.3z"/>
</g>
</svg>
