<?xml version="1.0" encoding="utf-8"?>
<!-- Generator: Adobe Illustrator 19.0.0, SVG Export Plug-In . SVG Version: 6.00 Build 0)  -->
<svg version="1.1" id="Camada_1" xmlns="http://www.w3.org/2000/svg" xmlns:xlink="http://www.w3.org/1999/xlink" x="0px" y="0px"
	 viewBox="0 0 384 384" style="enable-background:new 0 0 384 384;" xml:space="preserve">
<style type="text/css">
	.st0{fill:#007BD0;}
	.st1{fill:#FBFCFD;}
</style>
<rect id="XMLID_2_" y="-0.2" class="st0" width="384" height="384.3"/>
<g id="XMLID_1_">
	<path id="XMLID_31_" class="st1" d="M343,203c-8.7,6.8-17.3,12.4-26.3,17.5c-2.8-0.2-3.3-2.9-4.8-4.7c-5.8-7-13-10.1-22.1-9.1
		c-6.8,0.7-11.8,3.6-13.5,10.2c-1.7,6.7-0.6,13.2,5.5,17.8c6.2,4.6,13.3,7.5,20.2,10.5c9.6,4.2,19.1,8.7,28.1,14.4
		c19.6,12.3,26.1,30.6,23,52.3c-3.2,22-18.1,34.3-38.6,38.8c-27.4,6.1-53,1.9-74.1-18.5c-1.5-1.5-2.9-3.1-4.1-4.8
		c-2.3-3.2-4.4-6.5-7.2-10.7c9.7-5.6,19.2-11.1,28.9-16.8c7.6,9.4,14.8,18.6,27.3,20.7c7.2,1.2,14.1,1.2,21-1.6
		c6.2-2.6,10.7-6.4,11.3-13.8c0.6-7.4-2.2-12.7-8.5-16.5c-10.3-6.4-21.8-10.4-32.6-15.7c-14.8-7.2-28.4-16.2-33.5-32.7
		c-10.9-35,10.4-63.1,44.3-65C311.1,174,330.2,181.2,343,203z"/>
	<path id="XMLID_30_" class="st1" d="M219,177.7c0,10.3,0,20.2,0,31.1c-16.4,0-32.7,0-49.5,0c0,47.8,0,94.7,0,141.9
		c-11.9,0-23.1,0-35.2,0c0-47.1,0-94,0-141.8c-17.1,0-33.3,0-49.9,0c0-10.8,0-20.7,0-31.2C129.1,177.7,173.6,177.7,219,177.7z"/>
</g>
</svg>
