<?xml version="1.0" encoding="UTF-8"?>
<svg xmlns="http://www.w3.org/2000/svg" xmlns:xlink="http://www.w3.org/1999/xlink" width="67px" height="35px" viewBox="0 0 66 35" version="1.1">
<g id="surface1">
<rect x="0" y="0" width="66" height="35" style="fill:rgb(70.196078%,9.803922%,25.882353%);fill-opacity:1;stroke:none;"/>
<path style="fill-rule:nonzero;fill:rgb(0%,0%,0%);fill-opacity:1;stroke-width:300;stroke-linecap:butt;stroke-linejoin:miter;stroke:rgb(100%,100%,100%);stroke-opacity:1;stroke-miterlimit:4;" d="M 0 450.066964 L 7410 450.066964 M 7410 1049.866071 L 0 1049.866071 M 0 1650.100446 L 7410 1650.100446 M 7410 2249.899554 L 0 2249.899554 M 0 2850.133929 L 7410 2850.133929 M 7410 3449.933036 L 0 3449.933036 " transform="matrix(0.00890688,0,0,0.00897436,0,0)"/>
<path style=" stroke:none;fill-rule:nonzero;fill:rgb(3.921569%,19.215686%,38.039216%);fill-opacity:1;" d="M 0 0 L 26.398438 0 L 26.398438 18.847656 L 0 18.847656 "/>
<path style=" stroke:none;fill-rule:nonzero;fill:rgb(100%,100%,100%);fill-opacity:1;" d="M 2.199219 0.808594 L 2.828125 2.757812 L 1.183594 1.550781 L 3.214844 1.550781 L 1.570312 2.757812 Z M 2.199219 0.808594 "/>
<path style=" stroke:none;fill-rule:nonzero;fill:rgb(100%,100%,100%);fill-opacity:1;" d="M 2.199219 4.578125 L 2.828125 6.523438 L 1.183594 5.320312 L 3.214844 5.320312 L 1.570312 6.523438 Z M 2.199219 4.578125 "/>
<path style=" stroke:none;fill-rule:nonzero;fill:rgb(100%,100%,100%);fill-opacity:1;" d="M 2.199219 8.347656 L 2.828125 10.292969 L 1.183594 9.089844 L 3.214844 9.089844 L 1.570312 10.292969 Z M 2.199219 8.347656 "/>
<path style=" stroke:none;fill-rule:nonzero;fill:rgb(100%,100%,100%);fill-opacity:1;" d="M 2.199219 12.117188 L 2.828125 14.0625 L 1.183594 12.859375 L 3.214844 12.859375 L 1.570312 14.0625 Z M 2.199219 12.117188 "/>
<path style=" stroke:none;fill-rule:nonzero;fill:rgb(100%,100%,100%);fill-opacity:1;" d="M 2.199219 15.882812 L 2.828125 17.832031 L 1.183594 16.628906 L 3.214844 16.628906 L 1.570312 17.832031 Z M 2.199219 15.882812 "/>
<path style=" stroke:none;fill-rule:nonzero;fill:rgb(100%,100%,100%);fill-opacity:1;" d="M 4.398438 2.691406 L 5.027344 4.640625 L 3.382812 3.4375 L 5.417969 3.4375 L 3.773438 4.640625 Z M 4.398438 2.691406 "/>
<path style=" stroke:none;fill-rule:nonzero;fill:rgb(100%,100%,100%);fill-opacity:1;" d="M 4.398438 6.460938 L 5.027344 8.410156 L 3.382812 7.207031 L 5.417969 7.207031 L 3.773438 8.410156 Z M 4.398438 6.460938 "/>
<path style=" stroke:none;fill-rule:nonzero;fill:rgb(100%,100%,100%);fill-opacity:1;" d="M 4.398438 10.230469 L 5.027344 12.179688 L 3.382812 10.976562 L 5.417969 10.976562 L 3.773438 12.179688 Z M 4.398438 10.230469 "/>
<path style=" stroke:none;fill-rule:nonzero;fill:rgb(100%,100%,100%);fill-opacity:1;" d="M 4.398438 14 L 5.027344 15.949219 L 3.382812 14.742188 L 5.417969 14.742188 L 3.773438 15.949219 Z M 4.398438 14 "/>
<path style=" stroke:none;fill-rule:nonzero;fill:rgb(100%,100%,100%);fill-opacity:1;" d="M 6.601562 0.808594 L 7.226562 2.757812 L 5.582031 1.550781 L 7.617188 1.550781 L 5.972656 2.757812 Z M 6.601562 0.808594 "/>
<path style=" stroke:none;fill-rule:nonzero;fill:rgb(100%,100%,100%);fill-opacity:1;" d="M 6.601562 4.578125 L 7.226562 6.523438 L 5.582031 5.320312 L 7.617188 5.320312 L 5.972656 6.523438 Z M 6.601562 4.578125 "/>
<path style=" stroke:none;fill-rule:nonzero;fill:rgb(100%,100%,100%);fill-opacity:1;" d="M 6.601562 8.347656 L 7.226562 10.292969 L 5.582031 9.089844 L 7.617188 9.089844 L 5.972656 10.292969 Z M 6.601562 8.347656 "/>
<path style=" stroke:none;fill-rule:nonzero;fill:rgb(100%,100%,100%);fill-opacity:1;" d="M 6.601562 12.117188 L 7.226562 14.0625 L 5.582031 12.859375 L 7.617188 12.859375 L 5.972656 14.0625 Z M 6.601562 12.117188 "/>
<path style=" stroke:none;fill-rule:nonzero;fill:rgb(100%,100%,100%);fill-opacity:1;" d="M 6.601562 15.882812 L 7.226562 17.832031 L 5.582031 16.628906 L 7.617188 16.628906 L 5.972656 17.832031 Z M 6.601562 15.882812 "/>
<path style=" stroke:none;fill-rule:nonzero;fill:rgb(100%,100%,100%);fill-opacity:1;" d="M 8.800781 2.691406 L 9.429688 4.640625 L 7.785156 3.4375 L 9.816406 3.4375 L 8.171875 4.640625 Z M 8.800781 2.691406 "/>
<path style=" stroke:none;fill-rule:nonzero;fill:rgb(100%,100%,100%);fill-opacity:1;" d="M 8.800781 6.460938 L 9.429688 8.410156 L 7.785156 7.207031 L 9.816406 7.207031 L 8.171875 8.410156 Z M 8.800781 6.460938 "/>
<path style=" stroke:none;fill-rule:nonzero;fill:rgb(100%,100%,100%);fill-opacity:1;" d="M 8.800781 10.230469 L 9.429688 12.179688 L 7.785156 10.976562 L 9.816406 10.976562 L 8.171875 12.179688 Z M 8.800781 10.230469 "/>
<path style=" stroke:none;fill-rule:nonzero;fill:rgb(100%,100%,100%);fill-opacity:1;" d="M 8.800781 14 L 9.429688 15.949219 L 7.785156 14.742188 L 9.816406 14.742188 L 8.171875 15.949219 Z M 8.800781 14 "/>
<path style=" stroke:none;fill-rule:nonzero;fill:rgb(100%,100%,100%);fill-opacity:1;" d="M 11 0.808594 L 11.628906 2.757812 L 9.984375 1.550781 L 12.015625 1.550781 L 10.371094 2.757812 Z M 11 0.808594 "/>
<path style=" stroke:none;fill-rule:nonzero;fill:rgb(100%,100%,100%);fill-opacity:1;" d="M 11 4.578125 L 11.628906 6.523438 L 9.984375 5.320312 L 12.015625 5.320312 L 10.371094 6.523438 Z M 11 4.578125 "/>
<path style=" stroke:none;fill-rule:nonzero;fill:rgb(100%,100%,100%);fill-opacity:1;" d="M 11 8.347656 L 11.628906 10.292969 L 9.984375 9.089844 L 12.015625 9.089844 L 10.371094 10.292969 Z M 11 8.347656 "/>
<path style=" stroke:none;fill-rule:nonzero;fill:rgb(100%,100%,100%);fill-opacity:1;" d="M 11 12.117188 L 11.628906 14.0625 L 9.984375 12.859375 L 12.015625 12.859375 L 10.371094 14.0625 Z M 11 12.117188 "/>
<path style=" stroke:none;fill-rule:nonzero;fill:rgb(100%,100%,100%);fill-opacity:1;" d="M 11 15.882812 L 11.628906 17.832031 L 9.984375 16.628906 L 12.015625 16.628906 L 10.371094 17.832031 Z M 11 15.882812 "/>
<path style=" stroke:none;fill-rule:nonzero;fill:rgb(100%,100%,100%);fill-opacity:1;" d="M 13.199219 2.691406 L 13.828125 4.640625 L 12.183594 3.4375 L 14.214844 3.4375 L 12.570312 4.640625 Z M 13.199219 2.691406 "/>
<path style=" stroke:none;fill-rule:nonzero;fill:rgb(100%,100%,100%);fill-opacity:1;" d="M 13.199219 6.460938 L 13.828125 8.410156 L 12.183594 7.207031 L 14.214844 7.207031 L 12.570312 8.410156 Z M 13.199219 6.460938 "/>
<path style=" stroke:none;fill-rule:nonzero;fill:rgb(100%,100%,100%);fill-opacity:1;" d="M 13.199219 10.230469 L 13.828125 12.179688 L 12.183594 10.976562 L 14.214844 10.976562 L 12.570312 12.179688 Z M 13.199219 10.230469 "/>
<path style=" stroke:none;fill-rule:nonzero;fill:rgb(100%,100%,100%);fill-opacity:1;" d="M 13.199219 14 L 13.828125 15.949219 L 12.183594 14.742188 L 14.214844 14.742188 L 12.570312 15.949219 Z M 13.199219 14 "/>
<path style=" stroke:none;fill-rule:nonzero;fill:rgb(100%,100%,100%);fill-opacity:1;" d="M 15.398438 0.808594 L 16.027344 2.757812 L 14.382812 1.550781 L 16.417969 1.550781 L 14.773438 2.757812 Z M 15.398438 0.808594 "/>
<path style=" stroke:none;fill-rule:nonzero;fill:rgb(100%,100%,100%);fill-opacity:1;" d="M 15.398438 4.578125 L 16.027344 6.523438 L 14.382812 5.320312 L 16.417969 5.320312 L 14.773438 6.523438 Z M 15.398438 4.578125 "/>
<path style=" stroke:none;fill-rule:nonzero;fill:rgb(100%,100%,100%);fill-opacity:1;" d="M 15.398438 8.347656 L 16.027344 10.292969 L 14.382812 9.089844 L 16.417969 9.089844 L 14.773438 10.292969 Z M 15.398438 8.347656 "/>
<path style=" stroke:none;fill-rule:nonzero;fill:rgb(100%,100%,100%);fill-opacity:1;" d="M 15.398438 12.117188 L 16.027344 14.0625 L 14.382812 12.859375 L 16.417969 12.859375 L 14.773438 14.0625 Z M 15.398438 12.117188 "/>
<path style=" stroke:none;fill-rule:nonzero;fill:rgb(100%,100%,100%);fill-opacity:1;" d="M 15.398438 15.882812 L 16.027344 17.832031 L 14.382812 16.628906 L 16.417969 16.628906 L 14.773438 17.832031 Z M 15.398438 15.882812 "/>
<path style=" stroke:none;fill-rule:nonzero;fill:rgb(100%,100%,100%);fill-opacity:1;" d="M 17.601562 2.691406 L 18.226562 4.640625 L 16.582031 3.4375 L 18.617188 3.4375 L 16.972656 4.640625 Z M 17.601562 2.691406 "/>
<path style=" stroke:none;fill-rule:nonzero;fill:rgb(100%,100%,100%);fill-opacity:1;" d="M 17.601562 6.460938 L 18.226562 8.410156 L 16.582031 7.207031 L 18.617188 7.207031 L 16.972656 8.410156 Z M 17.601562 6.460938 "/>
<path style=" stroke:none;fill-rule:nonzero;fill:rgb(100%,100%,100%);fill-opacity:1;" d="M 17.601562 10.230469 L 18.226562 12.179688 L 16.582031 10.976562 L 18.617188 10.976562 L 16.972656 12.179688 Z M 17.601562 10.230469 "/>
<path style=" stroke:none;fill-rule:nonzero;fill:rgb(100%,100%,100%);fill-opacity:1;" d="M 17.601562 14 L 18.226562 15.949219 L 16.582031 14.742188 L 18.617188 14.742188 L 16.972656 15.949219 Z M 17.601562 14 "/>
<path style=" stroke:none;fill-rule:nonzero;fill:rgb(100%,100%,100%);fill-opacity:1;" d="M 19.800781 0.808594 L 20.429688 2.757812 L 18.785156 1.550781 L 20.816406 1.550781 L 19.171875 2.757812 Z M 19.800781 0.808594 "/>
<path style=" stroke:none;fill-rule:nonzero;fill:rgb(100%,100%,100%);fill-opacity:1;" d="M 19.800781 4.578125 L 20.429688 6.523438 L 18.785156 5.320312 L 20.816406 5.320312 L 19.171875 6.523438 Z M 19.800781 4.578125 "/>
<path style=" stroke:none;fill-rule:nonzero;fill:rgb(100%,100%,100%);fill-opacity:1;" d="M 19.800781 8.347656 L 20.429688 10.292969 L 18.785156 9.089844 L 20.816406 9.089844 L 19.171875 10.292969 Z M 19.800781 8.347656 "/>
<path style=" stroke:none;fill-rule:nonzero;fill:rgb(100%,100%,100%);fill-opacity:1;" d="M 19.800781 12.117188 L 20.429688 14.0625 L 18.785156 12.859375 L 20.816406 12.859375 L 19.171875 14.0625 Z M 19.800781 12.117188 "/>
<path style=" stroke:none;fill-rule:nonzero;fill:rgb(100%,100%,100%);fill-opacity:1;" d="M 19.800781 15.882812 L 20.429688 17.832031 L 18.785156 16.628906 L 20.816406 16.628906 L 19.171875 17.832031 Z M 19.800781 15.882812 "/>
<path style=" stroke:none;fill-rule:nonzero;fill:rgb(100%,100%,100%);fill-opacity:1;" d="M 22 2.691406 L 22.628906 4.640625 L 20.984375 3.4375 L 23.015625 3.4375 L 21.371094 4.640625 Z M 22 2.691406 "/>
<path style=" stroke:none;fill-rule:nonzero;fill:rgb(100%,100%,100%);fill-opacity:1;" d="M 22 6.460938 L 22.628906 8.410156 L 20.984375 7.207031 L 23.015625 7.207031 L 21.371094 8.410156 Z M 22 6.460938 "/>
<path style=" stroke:none;fill-rule:nonzero;fill:rgb(100%,100%,100%);fill-opacity:1;" d="M 22 10.230469 L 22.628906 12.179688 L 20.984375 10.976562 L 23.015625 10.976562 L 21.371094 12.179688 Z M 22 10.230469 "/>
<path style=" stroke:none;fill-rule:nonzero;fill:rgb(100%,100%,100%);fill-opacity:1;" d="M 22 14 L 22.628906 15.949219 L 20.984375 14.742188 L 23.015625 14.742188 L 21.371094 15.949219 Z M 22 14 "/>
<path style=" stroke:none;fill-rule:nonzero;fill:rgb(100%,100%,100%);fill-opacity:1;" d="M 24.199219 0.808594 L 24.828125 2.757812 L 23.183594 1.550781 L 25.214844 1.550781 L 23.570312 2.757812 Z M 24.199219 0.808594 "/>
<path style=" stroke:none;fill-rule:nonzero;fill:rgb(100%,100%,100%);fill-opacity:1;" d="M 24.199219 4.578125 L 24.828125 6.523438 L 23.183594 5.320312 L 25.214844 5.320312 L 23.570312 6.523438 Z M 24.199219 4.578125 "/>
<path style=" stroke:none;fill-rule:nonzero;fill:rgb(100%,100%,100%);fill-opacity:1;" d="M 24.199219 8.347656 L 24.828125 10.292969 L 23.183594 9.089844 L 25.214844 9.089844 L 23.570312 10.292969 Z M 24.199219 8.347656 "/>
<path style=" stroke:none;fill-rule:nonzero;fill:rgb(100%,100%,100%);fill-opacity:1;" d="M 24.199219 12.117188 L 24.828125 14.0625 L 23.183594 12.859375 L 25.214844 12.859375 L 23.570312 14.0625 Z M 24.199219 12.117188 "/>
<path style=" stroke:none;fill-rule:nonzero;fill:rgb(100%,100%,100%);fill-opacity:1;" d="M 24.199219 15.882812 L 24.828125 17.832031 L 23.183594 16.628906 L 25.214844 16.628906 L 23.570312 17.832031 Z M 24.199219 15.882812 "/>
</g>
</svg>
