<svg width="32" height="32" viewBox="0 0 32 32" fill="none" xmlns="http://www.w3.org/2000/svg">
<rect width="32" height="32" fill="white"/>
<path d="M23.9382 18.3003C23.4131 18.4701 23.0425 18.6739 22.8263 18.9456C22.61 19.1834 22.5174 19.591 22.5174 20.1345V23.2935C22.5174 24.5163 22.8571 25.5014 23.5058 26.2147L22.9807 26.6562C21.5598 25.1617 20.0154 24.4484 18.3166 24.4484C16.3089 24.4484 14.7336 25.5014 13.6216 27.6413C12.8494 26.3166 11.9228 25.6372 10.8108 25.6372C10.2548 25.6372 9.82239 25.8071 9.45174 26.1467C9.08108 26.4864 8.89575 26.928 8.89575 27.4715C8.89575 28.0489 9.08108 28.3886 9.48263 28.5584C9.69884 28.6603 9.79151 28.7283 9.79151 28.7962C9.79151 28.9321 9.69884 29 9.48263 29C9.01931 29 8.64865 28.7283 8.37066 28.1848C8.12355 27.7092 8 27.1658 8 26.6223C8 24.6861 9.17375 23.4973 11.4903 23.0897V16.2962C10.8726 16.3302 10.5019 16.5 10.3784 16.8397C10.2857 17.0435 10.2548 17.519 10.2548 18.2323H9.45174V12.5937H10.2548V13.3071C10.2548 13.7826 10.3475 14.1223 10.5637 14.2582C10.7181 14.3601 11.027 14.428 11.5212 14.394V10.9293C11.5212 8.95924 10.5328 8.00815 8.5251 8.04212V7.46467H10.5328C11.9228 7.46467 13.0347 7.26087 13.8687 6.85326C14.2394 6.64946 14.8263 6.24185 15.6911 5.52853C16.4324 4.91712 17.2664 4.44158 18.193 4.13587C18.471 4.03397 18.7181 4 18.8726 4C19.0888 4 19.2741 4.13587 19.4903 4.44158C20.7568 6.30978 22.2703 7.29484 23.9691 7.46467V8.04212C23.3205 8.11005 22.888 8.27989 22.6718 8.55163C22.4556 8.85734 22.3629 9.36685 22.3629 10.1141V13.3071C22.3629 14.2582 21.9305 14.9375 21.0965 15.3111C20.695 15.481 19.8919 15.6508 18.6873 15.7867C19.2124 15.8546 20.0154 16.2283 21.0965 16.8736C22.1158 17.519 22.8263 17.8247 23.2587 17.8247C23.4749 17.8247 23.722 17.7908 24 17.6889V18.3003H23.9382ZM18.4402 13.9185V10.8954C18.4402 10.0462 18.1313 9.29891 17.4826 8.61956C16.9266 8.04212 16.2471 7.63451 15.444 7.43071V15.5489C16.4015 15.481 17.0502 15.413 17.3282 15.3111C18.0695 15.0734 18.4402 14.6318 18.4402 13.9185ZM18.4402 23.5992V18.8437C18.4402 17.7228 18.1622 17.0095 17.6062 16.7038C17.3282 16.5679 16.5869 16.4321 15.4131 16.2962V20.1005C15.4131 21.3234 15.5367 22.1726 15.7838 22.6481C16.1236 23.2935 16.8031 23.5992 17.8533 23.5992H18.4402Z" fill="#1B1B1B"/>
</svg>
